<svg width="60" height="61" viewBox="0 0 60 61" fill="none" xmlns="http://www.w3.org/2000/svg">
<path d="M40.3652 31.9144C38.868 31.9137 37.3957 32.297 36.0889 33.0276C34.7821 33.7583 33.6846 34.8119 32.9012 36.0877L26.5029 32.7846C27.2712 30.7687 27.2712 28.5406 26.5029 26.5247L32.9012 23.2216C34.0495 25.0871 35.8564 26.4536 37.9642 27.0505C40.0719 27.6475 42.327 27.4314 44.283 26.4451C46.2391 25.4588 47.7537 23.7741 48.5269 21.7245C49.3002 19.6748 49.2758 17.4096 48.4587 15.377C47.6415 13.3445 46.0911 11.6927 44.1143 10.7487C42.1375 9.8047 39.8783 9.63718 37.7839 10.2793C35.6894 10.9214 33.9124 12.3264 32.8044 14.2162C31.6964 16.106 31.3382 18.3429 31.8007 20.4842L25.0036 23.9936C23.8438 22.624 22.2914 21.6435 20.5563 21.1848C18.8212 20.7261 16.9871 20.8113 15.302 21.4289C13.6169 22.0465 12.1621 23.1667 11.1343 24.638C10.1066 26.1093 9.5554 27.8607 9.5554 29.6554C9.5554 31.4501 10.1066 33.2015 11.1343 34.6728C12.1621 36.1441 13.6169 37.2643 15.302 37.8819C16.9871 38.4995 18.8212 38.5847 20.5563 38.126C22.2914 37.6673 23.8438 36.6869 25.0036 35.3172L31.8007 38.8266C31.4175 40.5981 31.593 42.4447 32.3032 44.1122C33.0134 45.7797 34.2232 47.1859 35.7659 48.1371C37.3086 49.0883 39.1084 49.5376 40.9172 49.4232C42.726 49.3089 44.4548 48.6363 45.8654 47.4984C47.276 46.3604 48.299 44.813 48.7935 43.0693C49.2879 41.3257 49.2294 39.4716 48.6261 37.7626C48.0228 36.0535 46.9044 34.5736 45.4248 33.5268C43.9453 32.48 42.1776 31.9177 40.3652 31.9175V31.9144ZM40.3111 12.8571C40.821 12.8569 41.3195 13.008 41.7435 13.2913C42.1675 13.5745 42.4979 13.9771 42.6931 14.4482C42.8882 14.9193 42.9392 15.4376 42.8397 15.9377C42.7401 16.4378 42.4945 16.8971 42.1338 17.2575C41.7732 17.618 41.3137 17.8634 40.8136 17.9626C40.3134 18.0619 39.7951 18.0105 39.3241 17.8151C38.8531 17.6197 38.4507 17.289 38.1678 16.8648C37.8848 16.4406 37.734 15.9421 37.7345 15.4322C37.7349 14.7491 38.0065 14.0941 38.4897 13.6112C38.9729 13.1284 39.628 12.8571 40.3111 12.8571ZM36.1092 20.3961V20.3845C36.1477 20.0231 36.3096 19.6861 36.5675 19.43C36.8261 19.1705 37.1655 19.007 37.5297 18.9663C38.0621 18.9099 39.6843 18.879 40.5082 18.8798C41.332 18.8806 42.6559 18.9099 43.1891 18.9663C43.553 19.0071 43.8921 19.1707 44.1505 19.43C44.4083 19.6865 44.5701 20.0237 44.6088 20.3853V20.3961C44.6355 20.6226 44.649 20.8504 44.649 21.0785C44.6504 21.3541 44.6372 21.6296 44.6096 21.9039V21.9147C44.566 22.2942 44.4068 22.6511 44.1536 22.9372C43.9044 23.2284 43.5682 23.4319 43.1945 23.5176C42.6628 23.6381 41.3397 23.7564 40.5097 23.7494C39.682 23.7703 38.0567 23.6412 37.525 23.5176C37.1515 23.4316 36.8154 23.2282 36.5659 22.9372C36.3129 22.651 36.1538 22.2942 36.11 21.9147V21.9031C36.082 21.6295 36.0735 21.3541 36.0845 21.0793C36.0731 20.8513 36.0814 20.6227 36.1092 20.3961ZM18.2645 23.8808C18.7741 23.8808 19.2722 24.0319 19.696 24.315C20.1197 24.5982 20.4499 25.0006 20.645 25.4714C20.84 25.9422 20.891 26.4603 20.7916 26.9601C20.6922 27.4599 20.4468 27.919 20.0864 28.2794C19.7261 28.6397 19.267 28.8851 18.7671 28.9845C18.2673 29.084 17.7493 29.0329 17.2784 28.8379C16.8076 28.6429 16.4052 28.3126 16.1221 27.8889C15.839 27.4652 15.6878 26.967 15.6878 26.4574C15.6878 25.7741 15.9593 25.1187 16.4425 24.6355C16.9257 24.1523 17.5811 23.8808 18.2645 23.8808ZM22.5645 32.9268V32.9376C22.521 33.3174 22.3619 33.6746 22.1085 33.9609C21.8591 34.2519 21.523 34.4553 21.1495 34.5413C20.6178 34.6611 19.2947 34.7801 18.4646 34.7731C17.6369 34.794 16.0117 34.6657 15.48 34.5413C15.1062 34.4559 14.7699 34.2524 14.5209 33.9609C14.2677 33.6748 14.1085 33.3179 14.0649 32.9384V32.9276C14.0368 32.6532 14.0283 32.3771 14.0394 32.1014C14.0284 31.8736 14.0369 31.6453 14.0649 31.419V31.4082C14.1036 31.0466 14.2654 30.7094 14.5232 30.453C14.7818 30.1934 15.1212 30.0298 15.4854 29.9893C16.0178 29.9329 17.64 29.9019 18.4639 29.9019C19.2877 29.9019 20.6116 29.9329 21.1448 29.9893C21.5088 30.0297 21.848 30.1933 22.1062 30.453C22.3641 30.709 22.526 31.0461 22.5645 31.4074V31.419C22.5912 31.6452 22.6046 31.8728 22.6047 32.1007C22.6058 32.3766 22.5924 32.6523 22.5645 32.9268ZM40.3111 34.9076C40.8211 34.9074 41.3196 35.0586 41.7436 35.3418C42.1677 35.6251 42.4981 36.0278 42.6932 36.499C42.8883 36.9702 42.9392 37.4886 42.8396 37.9888C42.7399 38.4889 42.4941 38.9482 42.1333 39.3086C41.7725 39.669 41.3128 39.9142 40.8126 40.0133C40.3124 40.1123 39.794 40.0608 39.323 39.8652C38.8521 39.6695 38.4498 39.3386 38.167 38.9142C37.8842 38.4898 37.7337 37.9911 37.7345 37.4811C37.7353 36.7983 38.0071 36.1437 38.4902 35.6612C38.9734 35.1786 39.6283 34.9076 40.3111 34.9076ZM44.6111 43.9497V43.9606C44.5675 44.34 44.4083 44.697 44.1552 44.983C43.9059 45.2743 43.5697 45.4777 43.1961 45.5634C42.6644 45.684 41.3413 45.8022 40.5113 45.7953C39.6836 45.8161 38.0583 45.6871 37.5266 45.5634C37.1531 45.4774 36.8169 45.274 36.5675 44.983C36.3145 44.6969 36.1553 44.34 36.1115 43.9606V43.9497C36.0835 43.6761 36.075 43.4008 36.086 43.1259C36.075 42.8981 36.0835 42.6698 36.1115 42.4435V42.4319C36.1495 42.0705 36.3108 41.7331 36.5683 41.4767C36.8277 41.2165 37.1683 41.0529 37.5335 41.013C38.066 40.9566 39.6882 40.9256 40.512 40.9264C41.3359 40.9272 42.6597 40.9566 43.193 41.013C43.5569 41.0538 43.896 41.2173 44.1544 41.4767C44.4122 41.7331 44.574 42.0703 44.6127 42.4319V42.4427C44.6394 42.6692 44.6528 42.8971 44.6529 43.1251C44.6534 43.4005 44.6395 43.6758 44.6111 43.9497Z" fill="white"/>
</svg>
