<svg width="56" height="55" viewBox="0 0 56 55" fill="none" xmlns="http://www.w3.org/2000/svg">
<path d="M51.9192 29.1489C51.9955 30.9733 51.3451 32.7535 50.1106 34.099C48.876 35.4444 47.1582 36.2452 45.334 36.3257C45.2273 36.3307 45.1209 36.3331 45.0146 36.3331C44.5299 36.3328 44.0466 36.2804 43.5731 36.1767C42.1682 38.3458 40.3261 40.1978 38.1645 41.6143C36.0029 43.0307 33.5695 43.9804 31.0198 44.4026C30.7183 45.2885 30.1167 46.0413 29.319 46.5307C28.5213 47.0201 27.5777 47.2154 26.6512 47.0829C25.7248 46.9504 24.8738 46.4983 24.2453 45.8049C23.6168 45.1115 23.2503 44.2203 23.2092 43.2853C23.1681 42.3504 23.455 41.4304 24.0202 40.6845C24.5854 39.9387 25.3935 39.4137 26.3047 39.2004C27.2159 38.9871 28.1731 39.0989 29.0106 39.5164C29.8482 39.9339 30.5135 40.6309 30.8917 41.487C34.4812 40.8231 37.7239 38.9207 40.0548 36.1113C42.3856 33.302 43.6567 29.7638 43.6465 26.1134C43.6465 17.4894 36.6304 10.4733 28.0064 10.4733C19.3824 10.4733 12.3663 17.4894 12.3663 26.1134C12.3658 28.7801 13.0474 31.4026 14.3461 33.7316C14.3901 33.8085 14.4232 33.8911 14.4443 33.9771C14.5697 34.3258 14.5563 34.7094 14.4068 35.0484C14.2573 35.3875 13.9832 35.6561 13.6412 35.7987C12.8037 36.1511 11.9042 36.3326 10.9955 36.3325C10.8886 36.3325 10.7814 36.33 10.674 36.325C8.85058 36.2435 7.13387 35.4422 5.90031 34.0969C4.66675 32.7515 4.01704 30.9719 4.09362 29.1483C4.12441 28.421 4.10723 27.7722 4.09044 27.1447C4.0748 26.554 4.05849 25.943 4.08532 25.3056C4.1654 23.5249 4.93136 21.8443 6.22277 20.6158C7.51419 19.3873 9.23088 18.7061 11.0133 18.7149C13.8755 12.1663 20.4146 7.57788 28.0064 7.57788C35.5982 7.57788 42.1374 12.1662 44.9996 18.715C46.7822 18.7048 48.4994 19.3854 49.7911 20.614C51.0827 21.8426 51.8484 23.5236 51.9274 25.3045C51.9543 25.9429 51.9381 26.5538 51.9223 27.1445C51.9057 27.7721 51.8884 28.4212 51.9192 29.1489ZM40.1483 26.1134C40.1476 27.9735 39.7197 29.8087 38.8975 31.4773C38.0754 33.1459 36.881 34.6034 35.4065 35.7374C33.9319 36.8714 32.2166 37.6515 30.3929 38.0177C28.5691 38.3839 26.6856 38.3264 24.8876 37.8495L19.9731 40.6877C19.7251 40.8309 19.4402 40.8973 19.1545 40.8786C18.8687 40.8599 18.595 40.7569 18.3678 40.5825C18.1406 40.4082 17.9702 40.1705 17.8782 39.8993C17.7861 39.6281 17.7766 39.3358 17.8507 39.0592L19.1067 34.3736C17.0267 32.1253 15.8693 29.1763 15.8649 26.1134C15.8649 19.4165 21.3113 13.9686 28.0064 13.9686C34.7015 13.9686 40.1483 19.4165 40.1483 26.1134ZM24.6308 26.1134C24.6308 25.7294 24.4783 25.3612 24.2068 25.0897C23.9353 24.8182 23.5671 24.6657 23.1831 24.6657H23.1807C22.8945 24.6662 22.6148 24.7516 22.3771 24.911C22.1394 25.0704 21.9543 25.2967 21.8451 25.5612C21.736 25.8258 21.7077 26.1168 21.7638 26.3975C21.82 26.6781 21.9581 26.9358 22.1607 27.138C22.3632 27.3402 22.6212 27.4778 22.902 27.5335C23.1827 27.5891 23.4737 27.5603 23.738 27.4506C24.0024 27.341 24.2284 27.1554 24.3873 26.9174C24.5463 26.6794 24.6311 26.3996 24.6311 26.1134H24.6308ZM29.4544 26.1134C29.4543 26.066 29.4517 26.0186 29.4467 25.9715C29.4421 25.9242 29.4351 25.8772 29.4255 25.8306C29.4169 25.7842 29.4052 25.7384 29.3907 25.6935C29.3773 25.6482 29.3609 25.6038 29.3435 25.5594C29.3261 25.515 29.3049 25.4735 29.2827 25.432C29.2606 25.3903 29.2365 25.3497 29.2103 25.3104C29.1839 25.2707 29.1555 25.2324 29.1253 25.1955C29.0955 25.1586 29.0637 25.1235 29.0298 25.0903C28.997 25.0566 28.9613 25.0247 28.9246 24.9938C28.8879 24.9649 28.8492 24.9359 28.8097 24.9099C28.7704 24.8837 28.7299 24.8595 28.6882 24.8375C28.6466 24.8153 28.6032 24.795 28.5597 24.7767C28.5162 24.7585 28.4718 24.7427 28.4266 24.7294C28.3363 24.7004 28.2431 24.6816 28.1487 24.6734C28.0069 24.6597 27.8638 24.6666 27.724 24.6937C27.6774 24.7032 27.6314 24.7151 27.5861 24.7294C27.5408 24.7426 27.4964 24.7584 27.4529 24.7767C27.4095 24.795 27.366 24.8153 27.3245 24.8375C27.283 24.8597 27.2425 24.8838 27.2028 24.9099C27.1236 24.9624 27.0499 25.0229 26.9829 25.0903C26.949 25.1235 26.9171 25.1587 26.8872 25.1955C26.8573 25.2324 26.8293 25.2707 26.8033 25.3104C26.7768 25.3496 26.7523 25.3902 26.73 25.432C26.7077 25.4733 26.6877 25.5159 26.6701 25.5594C26.6517 25.6033 26.6356 25.648 26.6218 25.6935C26.6084 25.7379 26.5968 25.7843 26.5872 25.8306C26.5776 25.8772 26.5705 25.9242 26.5658 25.9715C26.5611 26.0188 26.5591 26.0661 26.5591 26.1134C26.5591 26.1607 26.5611 26.2089 26.5658 26.2562C26.5706 26.3032 26.5777 26.3499 26.5872 26.3962C26.5968 26.4425 26.6084 26.4888 26.6218 26.5342C26.6356 26.5794 26.6517 26.6238 26.6701 26.6674C26.6877 26.7112 26.7077 26.7541 26.73 26.7957C26.7521 26.8372 26.7773 26.8778 26.8033 26.9173C26.8293 26.9567 26.8573 26.9947 26.8872 27.0312C26.9173 27.0682 26.9492 27.1036 26.9829 27.1374C27.0166 27.1702 27.0514 27.203 27.089 27.2329C27.1253 27.2631 27.1633 27.2911 27.2028 27.3169C27.2425 27.343 27.2829 27.3681 27.3245 27.3903C27.4083 27.434 27.4959 27.4701 27.5861 27.4984C27.6313 27.5119 27.6777 27.5235 27.724 27.5331C27.817 27.5521 27.9118 27.5615 28.0068 27.5611C28.3903 27.5601 28.7579 27.4078 29.0298 27.1374C29.0965 27.0697 29.1569 26.996 29.2103 26.9173C29.2364 26.8778 29.2605 26.8372 29.2827 26.7957C29.3049 26.7542 29.3252 26.7108 29.3435 26.6674C29.3618 26.6239 29.3773 26.5786 29.3907 26.5342C29.4051 26.4889 29.4168 26.4428 29.4255 26.3962C29.435 26.3499 29.442 26.3032 29.4467 26.2562C29.4516 26.2087 29.4541 26.161 29.4541 26.1132L29.4544 26.1134ZM34.2801 26.1134C34.2801 25.7294 34.1276 25.3612 33.8561 25.0897C33.5846 24.8182 33.2163 24.6657 32.8324 24.6657H32.8296C32.5434 24.6662 32.2637 24.7516 32.026 24.911C31.7883 25.0704 31.6032 25.2967 31.4941 25.5613C31.3849 25.8259 31.3567 26.1169 31.4128 26.3975C31.469 26.6782 31.6071 26.9359 31.8097 27.1381C32.0123 27.3402 32.2702 27.4778 32.551 27.5335C32.8317 27.5891 33.1227 27.5603 33.387 27.4506C33.6514 27.341 33.8773 27.1554 34.0363 26.9174C34.1953 26.6794 34.2801 26.3996 34.2801 26.1134Z" fill="white"/>
</svg>
