<svg width="60" height="61" viewBox="0 0 60 61" fill="none" xmlns="http://www.w3.org/2000/svg">
<path d="M30.5695 20.9786C30.7012 20.9784 30.8307 21.0118 30.9458 21.0756L35.7956 23.7407L34.839 18.1954C34.818 18.0736 34.8262 17.9486 34.863 17.8306C34.8997 17.7125 34.9638 17.6049 35.0502 17.5165L38.8683 13.6053L33.5702 12.8403C33.4481 12.8225 33.3319 12.7761 33.2312 12.7049C33.1305 12.6336 33.048 12.5396 32.9906 12.4304L30.5695 7.84961L28.1485 12.4304C28.0911 12.5396 28.0086 12.6336 27.9079 12.7049C27.8071 12.7761 27.691 12.8225 27.5689 12.8403L22.2716 13.6029L26.0897 17.5141C26.176 17.6025 26.2402 17.7102 26.2769 17.8282C26.3136 17.9462 26.3218 18.0713 26.3009 18.1931L25.3442 23.7407L30.1941 21.0756C30.3089 21.0119 30.4382 20.9785 30.5695 20.9786ZM47.8702 31.3424L52.1318 31.2916L49.638 27.9475C49.5645 27.8487 49.5154 27.734 49.4946 27.6126C49.4738 27.4912 49.4819 27.3666 49.5184 27.249L50.7097 23.3863L46.8478 24.5785C46.7303 24.6155 46.6056 24.6239 46.4841 24.6031C46.3626 24.5823 46.2478 24.5328 46.1493 24.4588L42.8052 21.965L42.7544 26.2266C42.7523 26.3496 42.7213 26.4704 42.6638 26.5791C42.6063 26.6878 42.524 26.7815 42.4235 26.8524L38.8346 29.3868L42.9719 30.5876C43.0985 30.6243 43.2139 30.6925 43.3072 30.7857C43.4004 30.879 43.4686 30.9944 43.5053 31.1211L44.7061 35.2591L47.2405 31.6694C47.3123 31.5691 47.4067 31.4872 47.5161 31.4304C47.6256 31.3736 47.7469 31.3434 47.8702 31.3424Z" fill="white"/>
<path d="M31.3552 40.3984C31.3078 34.8675 31.813 29.3457 32.8633 23.9152L30.5683 22.6534L28.2732 23.9152C29.3235 29.3457 29.8288 34.8675 29.7814 40.3984H31.3552ZM18.0525 49.7852H43.0848V51.3497H18.0525V49.7852ZM13.8973 31.6734L16.4318 35.2623L17.6325 31.125C17.6692 30.9983 17.7374 30.883 17.8307 30.7897C17.9239 30.6965 18.0393 30.6283 18.166 30.5916L22.304 29.3908L18.7143 26.8564C18.6138 26.7854 18.5315 26.6918 18.474 26.5831C18.4165 26.4743 18.3855 26.3536 18.3834 26.2306L18.3326 21.969L14.9885 24.4628C14.8895 24.5359 14.7748 24.5848 14.6535 24.6056C14.5322 24.6264 14.4077 24.6184 14.29 24.5824L10.4281 23.3864L11.6195 27.2491C11.6559 27.3667 11.6641 27.4913 11.6433 27.6127C11.6225 27.7341 11.5733 27.8488 11.4998 27.9476L9.00601 31.2917L13.2676 31.3425C13.3913 31.344 13.5128 31.3747 13.6223 31.4322C13.7317 31.4897 13.826 31.5724 13.8973 31.6734ZM40.6153 31.5357C39.2248 34.7033 37.4374 37.6814 35.2961 40.3984H37.1844C38.6714 37.9471 40.5171 35.7323 42.66 33.8277L42.1234 31.9753L40.6153 31.5357ZM40.7373 42.7451C40.7373 42.5377 40.6549 42.3387 40.5082 42.192C40.3615 42.0453 40.1625 41.9629 39.9551 41.9629H21.1815C20.974 41.9629 20.7751 42.0453 20.6284 42.192C20.4817 42.3387 20.3992 42.5377 20.3992 42.7451V48.2207H40.7373V42.7451Z" fill="white"/>
<path d="M19.0113 31.9734L18.4747 33.8281C20.6177 35.7327 22.4634 37.9476 23.9504 40.3988H25.8387C23.6973 37.6819 21.91 34.7038 20.5195 31.5361L19.0113 31.9734Z" fill="white"/>
</svg>
