<svg width="56" height="55" viewBox="0 0 56 55" fill="none" xmlns="http://www.w3.org/2000/svg">
<path d="M17.7423 39.69L18.1923 42.0082C15.0127 39.3597 12.798 35.5273 11.9537 31.2127H10.3991C11.2848 36.1653 13.8195 40.5642 17.4969 43.5309L15.206 44.0764L15.5332 45.7355L20.2787 44.5991L19.256 39.3264L17.7628 39.69H17.7423ZM38.1355 14.2582L37.8287 12.69C41.0074 15.3435 43.2274 19.1725 44.0878 23.4855H45.6423C44.7566 18.5329 42.2219 14.134 38.5446 11.1673L40.14 10.7809L39.8128 9.12183L35.7423 10.0991L36.6219 14.6218L38.115 14.2582H38.1355ZM43.5355 25.4173H42.0014L39.69 21.8718C39.5621 21.6577 39.389 21.4816 39.1858 21.3588C38.9826 21.236 38.7554 21.1703 38.5241 21.1673C38.2924 21.1675 38.0643 21.232 37.8607 21.3551C37.6571 21.4781 37.4843 21.6558 37.3582 21.8718L35.2719 25.4173H34.965V26.5764C34.965 26.7582 34.9446 26.94 34.9241 27.1218H36.1105L38.5446 22.9855L41.2446 27.1218H43.556C44.0469 27.1218 44.4355 27.5536 44.4355 28.0991V44.6446C44.4355 45.19 44.0469 45.6218 43.556 45.6218H24.84C24.3491 45.6218 23.9605 45.19 23.9605 44.6446V30.7355H22.4264V44.6446C22.4264 46.1218 23.5105 47.3264 24.84 47.3264H43.556C44.8855 47.3264 45.9696 46.1218 45.9696 44.6446V28.0991C45.9696 26.6218 44.8855 25.4173 43.556 25.4173H43.5355ZM21.731 13.7582C21.4855 14.69 20.9537 16.4855 20.2378 18.8036H23.3264C22.4469 16.0991 21.956 14.5991 21.7514 13.7582H21.731Z" fill="white"/>
<path d="M33.6142 26.5991V10.0536C33.6142 8.57637 32.5301 7.37183 31.2006 7.37183H12.4847C11.1551 7.37183 10.071 8.57637 10.071 10.0536V26.5991C10.071 28.0764 11.1551 29.2809 12.4847 29.2809H14.0187L16.3301 32.8264C16.596 33.2582 17.0256 33.5309 17.496 33.5309C17.9665 33.5309 18.4165 33.2582 18.6619 32.8264L20.7483 29.2809H31.1596C32.4892 29.2809 33.5733 28.0764 33.5733 26.5991H33.6142ZM24.696 23.2127L23.6733 20.1446H19.8892L18.9074 23.2127H17.496L20.9119 12.4855H22.6915L26.2506 23.2127H24.7369H24.696ZM33.1846 31.2355V32.44H29.3597V34.1446H30.3415C30.9347 35.7127 31.7733 37.1673 32.8574 38.44C31.8828 39.3531 30.8028 40.1174 29.646 40.7127L30.3006 42.2582C31.671 41.5536 32.8983 40.6673 33.9619 39.6218C35.0256 40.6446 36.2733 41.5536 37.6233 42.2582L38.2778 40.7127C37.1211 40.1174 36.0411 39.3531 35.0665 38.44C36.1301 37.1673 36.9687 35.7127 37.5824 34.1446H38.5642V32.44H34.7392V31.2355H33.2051H33.1846ZM33.9415 37.2355C33.1642 36.3036 32.5096 35.2582 31.9983 34.1446H35.8642C35.3733 35.2582 34.7187 36.3036 33.921 37.2355H33.9415Z" fill="white"/>
</svg>
