<svg width="56" height="55" viewBox="0 0 56 55" fill="none" xmlns="http://www.w3.org/2000/svg">
<path fill-rule="evenodd" clip-rule="evenodd" d="M24.6475 11.7785V17.3592H25.9509V11.7785H24.6475ZM31.8083 20.3901V26.9564H29.6201L28.6193 19.5787L31.8083 20.3901ZM43.7729 11.8997C44.9481 12.2181 45.8192 13.2967 45.8192 14.5689C45.8192 15.8412 44.9481 16.9198 43.7729 17.2382V11.8997ZM27.262 17.8806L41.6446 21.5401C41.7414 21.5652 41.8427 21.5677 41.9406 21.5475C42.0386 21.5272 42.1306 21.4848 42.2095 21.4234C42.2885 21.362 42.3523 21.2833 42.3961 21.1934C42.4399 21.1034 42.4624 21.0047 42.462 20.9046V8.23324C42.4624 8.13322 42.4399 8.03444 42.3961 7.94451C42.3523 7.85458 42.2885 7.77589 42.2095 7.7145C42.1306 7.65311 42.0386 7.61067 41.9406 7.59043C41.8427 7.57019 41.7414 7.5727 41.6446 7.59776L27.262 11.2573V17.8806ZM28.5196 34.795C26.3629 32.1714 23.0956 30.4907 19.4546 30.4907C13.2336 30.4907 8.10277 35.3967 7.74029 41.5309C7.73466 41.6203 7.74744 41.7098 7.77783 41.794C7.80822 41.8781 7.85559 41.9552 7.91699 42.0203C7.97838 42.0854 8.0525 42.1372 8.13475 42.1725C8.217 42.2078 8.30562 42.2258 8.39511 42.2254H29.1201C28.4797 40.8502 28.1215 39.317 28.1215 37.7C28.1209 36.718 28.2548 35.7406 28.5196 34.795ZM38.8548 28.2775C33.6508 28.2775 29.4326 32.4961 29.4326 37.7C29.4326 42.9038 33.6508 47.1224 38.8548 47.1224C44.0587 47.1224 48.2774 42.9038 48.2774 37.7C48.2774 32.4961 44.0587 28.2775 38.8548 28.2775ZM38.8548 44.9036C34.8763 44.9036 31.6512 41.6784 31.6512 37.7C31.6512 33.7214 34.8763 30.4962 38.8548 30.4962C42.8333 30.4962 46.0584 33.7214 46.0584 37.7C46.0584 41.6784 42.8333 44.9036 38.8548 44.9036ZM19.4547 16.9868C22.9574 16.9868 25.7969 19.8263 25.7969 23.329C25.7969 26.8317 22.9574 29.6712 19.4547 29.6712C15.9519 29.6712 13.1124 26.8317 13.1124 23.329C13.1123 19.8264 15.9519 16.9868 19.4547 16.9868Z" fill="white"/>
<path d="M42.5129 33.6488C42.6376 33.7006 42.6823 33.7951 42.6799 33.9212C42.6752 34.108 42.6799 34.2947 42.6799 34.4838C42.6799 34.6908 42.607 34.7606 42.3929 34.7606H40.8287C40.8898 34.8529 40.9533 34.9249 40.991 35.0059C41.0851 35.2175 41.1697 35.4313 41.2497 35.6473C41.2709 35.7058 41.2921 35.7306 41.3603 35.7283C41.7131 35.7238 42.066 35.7261 42.4188 35.7261C42.6188 35.7261 42.6917 35.7959 42.6917 35.9872V36.5768C42.6917 36.7636 42.6141 36.8356 42.4165 36.8356C42.0707 36.8356 41.7225 36.8379 41.3767 36.8334C41.3156 36.8334 41.2897 36.8469 41.2779 36.9099C41.165 37.4973 40.8828 37.9946 40.4076 38.3862C39.9795 38.7396 39.4784 38.9489 38.9303 39.0614C38.7798 39.0929 38.6292 39.1154 38.4646 39.1447C38.4975 39.1784 38.5234 39.2099 38.5493 39.2369C39.629 40.3577 40.6405 41.5325 41.652 42.7073C41.7155 42.7816 41.7508 42.8558 41.7014 42.9526C41.652 43.0471 41.572 43.0809 41.4661 43.0809C41.0286 43.0786 40.5934 43.0786 40.1559 43.0809C40.0571 43.0809 39.9889 43.0404 39.9254 42.9706C39.2997 42.2639 38.6763 41.5528 38.0412 40.8528C37.5542 40.3172 37.0555 39.7951 36.5545 39.2707C36.451 39.1604 36.3945 39.0524 36.4016 38.9016C36.4134 38.6743 36.404 38.447 36.404 38.2197C36.404 38.0442 36.491 37.9631 36.6745 37.9586C37.072 37.9519 37.4719 37.9586 37.8671 37.9361C38.3164 37.9091 38.7469 37.8011 39.1185 37.5355C39.3467 37.3735 39.5067 37.1642 39.5913 36.9031C39.5984 36.8829 39.6007 36.8626 39.6055 36.8334H36.7027C36.4722 36.8334 36.4016 36.7681 36.4016 36.5498V35.9782C36.404 35.7936 36.4769 35.7216 36.6721 35.7216H39.5137C39.4878 35.6788 39.4714 35.6451 39.4526 35.6136C39.2949 35.3795 39.0644 35.2332 38.7986 35.1365C38.4128 34.9947 38.0059 34.9654 37.5966 34.9654H36.7098C36.4745 34.9654 36.4016 34.8956 36.4016 34.6661C36.4016 34.4163 36.4063 34.1687 36.3993 33.9189C36.3969 33.7906 36.4369 33.6984 36.5592 33.6421H42.5129V33.6488Z" fill="white"/>
</svg>
