<svg width="60" height="61" viewBox="0 0 60 61" fill="none" xmlns="http://www.w3.org/2000/svg">
<path d="M33.343 28.734L30.6904 25.3052L28.0379 28.734C27.8974 28.9155 27.7062 29.0512 27.4886 29.1239C27.2709 29.1967 27.0365 29.2031 26.8152 29.1424L24.5437 28.5197L25.8858 33.2572H35.4744L36.8304 28.5215L34.5656 29.1424C34.3443 29.2031 34.1099 29.1967 33.8922 29.124C33.6746 29.0513 33.4834 28.9155 33.343 28.734Z" fill="white"/>
<path d="M30.6915 9.89502C19.7887 9.89502 10.9187 18.765 10.9187 29.6678C10.9187 40.5706 19.7887 49.4406 30.6914 49.4406C41.5941 49.4406 50.4641 40.5706 50.4641 29.6678C50.4641 18.765 41.5942 9.89502 30.6915 9.89502ZM30.6915 44.8063C22.3441 44.8063 15.5529 38.0152 15.5529 29.6677C15.5529 21.3203 22.3441 14.5292 30.6915 14.5292C39.0389 14.5292 45.8301 21.3204 45.8301 29.6678C45.8301 38.0153 39.0388 44.8063 30.6915 44.8063Z" fill="white"/>
<path d="M30.6933 16.8464C23.6235 16.8464 17.8718 22.5981 17.8718 29.6679C17.8718 36.7376 23.6235 42.4893 30.6933 42.4893C37.763 42.4893 43.5147 36.7376 43.5147 29.6679C43.5147 22.5981 37.7629 16.8464 30.6933 16.8464ZM39.6282 27.1783L37.4644 34.7347C37.3951 34.9766 37.249 35.1894 37.048 35.3409C36.8471 35.4924 36.6023 35.5743 36.3506 35.5744H25.0127C24.7605 35.5744 24.5152 35.4921 24.314 35.3399C24.1128 35.1878 23.9667 34.9742 23.898 34.7315L21.7574 27.1751C21.7014 26.9775 21.699 26.7687 21.7503 26.5698C21.8016 26.371 21.9048 26.1894 22.0494 26.0436C22.194 25.8978 22.3747 25.793 22.5731 25.74C22.7714 25.687 22.9803 25.6877 23.1784 25.7419L26.6827 26.7026L29.777 22.7029C29.8853 22.5629 30.0241 22.4497 30.183 22.3717C30.3418 22.2938 30.5164 22.2533 30.6933 22.2533C30.8703 22.2533 31.0449 22.2938 31.2037 22.3717C31.3625 22.4497 31.5014 22.5629 31.6097 22.7029L34.704 26.7026L38.2081 25.7419C38.4065 25.6876 38.6157 25.6869 38.8143 25.7401C39.0129 25.7933 39.1938 25.8984 39.3384 26.0447C39.4829 26.1909 39.586 26.373 39.6369 26.5722C39.6878 26.7714 39.6848 26.9806 39.6282 27.1783Z" fill="white"/>
</svg>
