<svg width="105" height="31" viewBox="0 0 105 31" fill="none" xmlns="http://www.w3.org/2000/svg">
<g clip-path="url(#clip0_1_19560)">
<g clip-path="url(#clip1_1_19560)">
<g clip-path="url(#clip2_1_19560)">
<g clip-path="url(#clip3_1_19560)">
<path d="M88.7083 6.81788C90.5418 6.81788 92.1085 5.25111 92.1085 3.41773C92.1085 1.58424 90.5417 0.0175781 88.7083 0.0175781C86.8414 0.0175781 85.2747 1.58435 85.2747 3.41773C85.2747 5.25111 86.8414 6.81788 88.7083 6.81788Z" fill="#F72442"/>
<path d="M79.9917 23.4786H84.9834V8.53323H79.9917V23.4786ZM69.7056 18.4261C67.9813 18.4261 67.0736 17.0345 67.0736 15.3706C67.0736 13.7669 67.9813 12.4359 69.7056 12.4359C70.6736 12.4359 71.6721 12.8292 72.4286 13.616V17.2162C71.6721 18.0025 70.6736 18.4261 69.7056 18.4261ZM69.6453 30.0133C74.9396 30.0133 77.4203 27.4116 77.4203 22.9944V8.53323H72.4286V9.38041C71.5207 8.53323 70.1898 8.04904 68.707 8.04904C64.6231 8.04904 61.9304 11.1046 61.9304 15.3706C61.9304 19.6968 64.6231 22.813 68.707 22.813C70.1898 22.813 71.5207 22.2078 72.4286 21.4816V22.9943C72.4286 24.6282 71.4905 25.4754 69.3427 25.4754C67.6181 25.4754 65.2886 24.8095 63.2919 23.4178V28.2586C64.5625 29.0755 67.1039 30.0133 69.6453 30.0133ZM50.8576 23.9628C52.7031 23.9628 53.9739 23.2669 54.8817 22.3896V23.4786H59.8127V8.53323H54.8209V18.0931C54.246 18.9104 53.4293 19.4245 52.4915 19.4245C51.2811 19.4245 50.4643 18.6078 50.4643 17.3067V8.53323H45.4725V18.5471C45.4725 22.0262 48.0743 23.9628 50.8576 23.9628ZM29.4078 23.4786H43.2038V19.3035H36.0942L43.0525 12.5265V8.53323H29.5292V12.6176H36.3665L29.4078 19.3943V23.4786ZM12.8293 23.4786H27.593V18.6381H17.9724V15.2192H26.6552V10.53H17.9724V6.9903H27.593V2.30078H12.8293V23.4786Z" fill="white"/>
<mask id="mask0_1_19560" style="mask-type:alpha" maskUnits="userSpaceOnUse" x="12" y="2" width="73" height="29">
<path d="M79.9917 23.4786H84.9834V8.53323H79.9917V23.4786ZM69.7056 18.4261C67.9813 18.4261 67.0736 17.0345 67.0736 15.3706C67.0736 13.7669 67.9813 12.4359 69.7056 12.4359C70.6736 12.4359 71.6721 12.8292 72.4286 13.616V17.2162C71.6721 18.0025 70.6736 18.4261 69.7056 18.4261ZM69.6453 30.0133C74.9396 30.0133 77.4203 27.4116 77.4203 22.9944V8.53323H72.4286V9.38041C71.5207 8.53323 70.1898 8.04904 68.707 8.04904C64.6231 8.04904 61.9304 11.1046 61.9304 15.3706C61.9304 19.6968 64.6231 22.813 68.707 22.813C70.1898 22.813 71.5207 22.2078 72.4286 21.4816V22.9943C72.4286 24.6282 71.4905 25.4754 69.3427 25.4754C67.6181 25.4754 65.2886 24.8095 63.2919 23.4178V28.2586C64.5625 29.0755 67.1039 30.0133 69.6453 30.0133ZM50.8576 23.9628C52.7031 23.9628 53.9739 23.2669 54.8817 22.3896V23.4786H59.8127V8.53323H54.8209V18.0931C54.246 18.9104 53.4293 19.4245 52.4915 19.4245C51.2811 19.4245 50.4643 18.6078 50.4643 17.3067V8.53323H45.4725V18.5471C45.4725 22.0262 48.0743 23.9628 50.8576 23.9628ZM29.4078 23.4786H43.2038V19.3035H36.0942L43.0525 12.5265V8.53323H29.5292V12.6176H36.3665L29.4078 19.3943V23.4786ZM12.8293 23.4786H27.593V18.6381H17.9724V15.2192H26.6552V10.53H17.9724V6.9903H27.593V2.30078H12.8293V23.4786Z" fill="black"/>
</mask>
<g mask="url(#mask0_1_19560)">
<path d="M9.14185 -13.7444C9.14185 -13.7444 11.2348 21.0389 67.2432 20.1768C123.252 19.3147 126.156 -31.1543 126.156 -31.1543L9.14185 -13.7444Z" fill="#F72442"/>
</g>
</g>
</g>
</g>
</g>
<defs>
<clipPath id="clip0_1_19560">
<rect width="80.56" height="30" fill="white" transform="translate(12.345 0.015625)"/>
</clipPath>
<clipPath id="clip1_1_19560">
<rect width="80.56" height="30" fill="white" transform="translate(12.345 0.015625)"/>
</clipPath>
<clipPath id="clip2_1_19560">
<rect width="80.56" height="30" fill="white" transform="translate(12.345 0.015625)"/>
</clipPath>
<clipPath id="clip3_1_19560">
<rect width="80.56" height="29.9957" fill="white" transform="translate(12.345 0.0175781)"/>
</clipPath>
</defs>
</svg>
