<svg width="148" height="31" viewBox="0 0 148 31" fill="none" xmlns="http://www.w3.org/2000/svg">
<g clip-path="url(#clip0_1_19546)">
<g clip-path="url(#clip1_1_19546)">
<g clip-path="url(#clip2_1_19546)">
<g clip-path="url(#clip3_1_19546)">
<path d="M24.8171 0.352005C25.3473 0.221107 25.8897 0.0929891 26.0222 0.0671237C26.1547 0.0413792 26.2975 0.0516528 26.3396 0.0900883C26.3816 0.128403 26.507 0.676531 26.6182 1.30806C26.7293 1.93959 27.0102 3.02738 27.2424 3.72539C27.4745 4.42339 27.836 5.33448 28.0455 5.7499C28.2551 6.16544 28.4605 6.5053 28.502 6.5053C28.5434 6.5053 28.7453 6.13824 28.9504 5.68946C29.1555 5.2408 29.4598 4.49156 29.6268 4.02453C29.7937 3.55763 30.0359 2.71458 30.1649 2.1511C30.294 1.58774 30.4335 0.87693 30.4749 0.571619L30.5502 0.0166016L31.2066 0.119821C31.5676 0.176629 32.2955 0.360104 32.8242 0.527504C33.3527 0.695024 33.8082 0.871126 33.8364 0.918986C33.8646 0.966733 33.7626 1.61034 33.6098 2.34908C33.4572 3.08782 33.1696 4.17561 32.9711 4.7664C32.7725 5.3572 32.5725 5.93579 32.5268 6.05206C32.4722 6.19057 32.4998 6.26358 32.607 6.26346C32.6969 6.26346 33.1144 6.10016 33.5349 5.90073C33.9554 5.70118 34.3621 5.57404 34.4387 5.61803C34.5153 5.66202 34.5372 5.65284 34.4874 5.59773C34.4375 5.54249 34.6273 5.36155 34.9091 5.1956C35.191 5.02965 35.6928 4.67564 36.0242 4.40889C36.3556 4.14201 36.8563 3.70556 37.1367 3.43893L37.6468 2.95401L37.9802 3.24615C38.1638 3.40678 38.569 3.7799 38.8808 4.07517C39.1926 4.37045 39.4145 4.67092 39.3737 4.74283C39.3329 4.81475 39.3444 4.83276 39.3995 4.78272C39.4544 4.73268 39.5986 4.78188 39.72 4.89211C39.8414 5.00221 39.9407 5.18968 39.9407 5.30873C39.9407 5.42948 39.5175 5.88853 38.9827 6.34758C38.456 6.79998 37.873 7.28284 37.6873 7.42063C37.5017 7.55829 37.0244 7.87038 36.6268 8.11404C36.2291 8.3577 35.3593 8.79738 34.6938 9.0911C34.0284 9.38481 32.958 9.75267 32.3151 9.90839C31.6723 10.0642 31.1459 10.2264 31.145 10.269C31.1443 10.3114 31.5634 10.7406 32.0763 11.2227C32.5893 11.705 33.3828 12.3629 33.8398 12.6847L34.6707 13.27L35.4679 12.564C35.9065 12.1758 36.699 11.5597 37.2293 11.195C37.7595 10.8302 38.5556 10.3305 38.9982 10.0843C39.4409 9.83811 40.3357 9.42544 40.9866 9.16738L42.17 8.69805L42.3058 8.96142C42.3803 9.10627 42.5853 9.64673 42.7612 10.1623C42.9373 10.6779 43.0931 11.2983 43.1077 11.5406C43.1303 11.9182 43.0909 11.9935 42.8328 12.0661C42.6671 12.1128 42.152 12.3279 41.688 12.5443C41.2241 12.7606 40.5191 13.1327 40.1214 13.3708C39.7238 13.609 39.1136 14.0175 38.7657 14.2786C38.4179 14.5396 38.1331 14.8163 38.1331 14.8934C38.1331 14.9705 38.6889 15.1829 39.3683 15.3654C40.0476 15.548 40.9288 15.7459 41.3265 15.8055C41.7241 15.865 42.3477 15.9439 42.7123 15.9808C43.0769 16.0177 43.4054 16.0492 43.4425 16.0509C43.4794 16.0524 43.4678 16.448 43.4168 16.9301C43.3656 17.4121 43.2604 18.0783 43.1829 18.4106C43.1054 18.743 42.9929 19.1104 42.9329 19.2272C42.8448 19.398 42.7245 19.4256 42.3161 19.3684C42.0369 19.3292 41.2933 19.2162 40.6637 19.1172C40.034 19.0181 39.3562 18.8891 39.1573 18.8305C38.9586 18.7719 38.2536 18.5529 37.5908 18.344C36.928 18.1349 35.6805 17.6189 34.8185 17.197C33.9566 16.7752 32.7093 16.0536 32.0469 15.5936C31.3845 15.1335 30.3136 14.2547 29.6674 13.641L28.4925 12.5248L27.5585 13.4008C27.0449 13.8825 26.2616 14.5677 25.8177 14.9234C25.3739 15.2793 24.9879 15.5703 24.96 15.5703C24.9321 15.5703 24.5415 15.8176 24.0921 16.12C23.6425 16.4222 22.6728 16.9598 21.9371 17.3144C21.2013 17.669 20.1385 18.1074 19.5751 18.2886C19.0117 18.4698 18.2796 18.6893 17.9483 18.7762C17.6169 18.8632 17.0077 18.9955 16.5946 19.0702C16.1816 19.145 15.6665 19.2242 15.4498 19.2462C15.2332 19.2683 14.8329 19.3262 14.5601 19.375L14.0641 19.4638L13.8663 18.635C13.7576 18.1792 13.6173 17.4277 13.5545 16.9648C13.4916 16.502 13.4541 16.1095 13.471 16.0924C13.488 16.0755 14.0142 16.0036 14.6405 15.9328C15.2667 15.8618 16.2672 15.6938 16.8637 15.5593C17.4602 15.4248 18.1517 15.228 18.4002 15.122C18.6488 15.016 18.8521 14.8836 18.8521 14.8278C18.8521 14.7721 18.4432 14.4405 17.9433 14.0908C17.4436 13.7412 16.5895 13.2229 16.0453 12.9392C15.5013 12.6555 14.7494 12.3101 14.3745 12.1717L13.6931 11.9203L13.9708 10.9351C14.1236 10.3933 14.3263 9.73561 14.421 9.47352C14.5159 9.21152 14.6786 8.94334 14.7826 8.87752C14.9197 8.79078 15.2389 8.86389 15.9463 9.14432C16.4824 9.35679 17.342 9.75592 17.8564 10.0311C18.3709 10.3063 19.1119 10.7483 19.5031 11.0132C19.8943 11.2782 20.5722 11.7946 21.0095 12.1611C21.4466 12.5276 21.9178 12.9291 22.0564 13.0535C22.3054 13.2771 22.3199 13.2709 23.3819 12.4814C23.9724 12.0423 24.7403 11.4038 25.0882 11.0624C25.4362 10.721 25.7209 10.3805 25.7209 10.3057C25.7209 10.231 25.409 10.0999 25.028 10.0145C24.647 9.92905 23.932 9.72738 23.4394 9.56625C22.9466 9.40504 22.1154 9.06042 21.592 8.80047C21.0685 8.54045 20.1932 8.02617 19.6466 7.65765C19.1001 7.28912 18.2639 6.62835 17.7883 6.18925C17.3129 5.75026 16.924 5.3537 16.924 5.30801C16.924 5.26244 17.3443 4.80629 17.8579 4.29443C18.3715 3.78243 18.9156 3.27757 19.0667 3.17242C19.332 2.98786 19.3672 3.0049 20.0716 3.65902C20.4731 4.03178 21.1899 4.59792 21.6646 4.91712C22.1391 5.23634 22.8257 5.64015 23.1903 5.81444C23.5548 5.98885 24.0024 6.16713 24.185 6.21076L24.5169 6.29004L24.1045 5.09843C23.8775 4.44297 23.5505 3.23273 23.3777 2.40915C23.2048 1.58545 23.0785 0.901339 23.0967 0.888895C23.1151 0.876441 23.2928 0.804166 23.4915 0.728141C23.6903 0.652116 24.2869 0.482783 24.8171 0.352005Z" fill="#FD5F2F"/>
<path d="M23.0108 17.6306C23.6736 17.279 24.3211 16.9176 24.4496 16.8275C24.5781 16.7371 24.6938 16.6756 24.7065 16.6908C24.7193 16.7059 25.0498 17.1261 25.4411 17.6247C25.8322 18.1233 26.6589 19.1997 27.2779 20.0169C27.897 20.8339 28.4467 21.4866 28.4997 21.4673C28.5524 21.4478 29.1182 20.7521 29.7569 19.9211C30.3956 19.0902 31.2166 18.0119 31.5813 17.5251C32.2247 16.6662 32.2528 16.6452 32.5201 16.8208C32.6716 16.9204 33.2442 17.2509 33.7926 17.555C34.3408 17.8593 34.8236 18.109 34.8653 18.11C34.9068 18.111 35.0155 18.1593 35.1068 18.2172C35.2345 18.2984 35.0273 18.6404 34.203 19.7095C33.6146 20.4723 32.8991 21.4039 32.6126 21.7798C32.3182 22.1662 32.0353 22.4279 31.9614 22.3821C31.8834 22.3338 31.8655 22.3574 31.9171 22.4411C31.9668 22.5217 31.681 23.0034 31.2427 23.5777C30.8245 24.126 30.428 24.6132 30.3617 24.6605C30.2909 24.7111 30.2163 25.8348 30.181 27.3801L30.1207 30.0135H28.4939H26.8671L26.8345 27.4974L26.8018 24.9812L25.991 23.9231C25.5448 23.3412 25.0443 22.685 24.8787 22.4649C24.713 22.2447 24.094 21.4328 23.5034 20.6605C22.9126 19.8883 22.2664 19.0525 22.0673 18.8031C21.8682 18.5539 21.7279 18.3319 21.7555 18.3099C21.7831 18.2877 22.348 17.9821 23.0108 17.6306Z" fill="#FD5F2F"/>
<path fill-rule="evenodd" clip-rule="evenodd" d="M62.1939 9.30497C61.7693 9.40104 61.1338 9.66442 60.7817 9.89017C60.4297 10.116 59.8887 10.5576 59.5796 10.8714C59.2706 11.1853 58.8454 11.7727 58.6348 12.1766C58.3146 12.7906 58.2519 13.2017 58.2519 14.6872C58.2519 16.1635 58.3154 16.5852 58.6284 17.1851C58.8355 17.5821 59.3026 18.2006 59.6665 18.5595C60.0305 18.9186 60.6856 19.3924 61.1224 19.6127C61.7786 19.9434 62.2072 20.0134 63.5873 20.0145C65.1708 20.0159 65.3279 19.9807 66.604 19.3401L67.95 18.6644V16.7201C67.95 15.6507 67.9696 14.7161 67.9937 14.6428C68.0179 14.5694 67.3096 14.4866 66.4198 14.4584L64.8022 14.4074V15.3021C64.8022 16.1741 64.8155 16.197 65.3165 16.197C65.5994 16.197 65.8746 16.2687 65.9279 16.3563C65.9813 16.444 65.9777 16.7547 65.9202 17.0466C65.853 17.3881 65.6505 17.6542 65.3527 17.7924C65.0981 17.9105 64.4832 18.0499 63.9865 18.1024C63.2743 18.1773 62.9118 18.1128 62.2699 17.7973C61.7667 17.5499 61.2802 17.1266 60.994 16.6875C60.6523 16.163 60.5136 15.6893 60.4622 14.8718C60.4119 14.066 60.4748 13.6015 60.6943 13.1606C60.8601 12.8279 61.1637 12.3683 61.3688 12.1391C61.574 11.91 61.963 11.6057 62.2336 11.4627C62.5042 11.3199 63.1054 11.2 63.5698 11.1962C64.0985 11.1922 64.7319 11.3421 65.2641 11.5972C65.7313 11.8213 66.1612 12.0315 66.2191 12.0642C66.2769 12.0969 66.6141 11.7643 66.9686 11.3251L67.6129 10.5265L66.9077 10.0526C66.5198 9.79178 65.7497 9.4703 65.1964 9.33796C64.6429 9.20581 63.9147 9.10476 63.5781 9.11384C63.2414 9.12267 62.6185 9.20863 62.1939 9.30497ZM73.7523 9.35091C73.2405 9.47672 72.4929 9.81912 72.091 10.1121C71.689 10.4048 71.105 10.9798 70.7934 11.3897C70.4816 11.7997 70.0981 12.5837 69.9412 13.132C69.7548 13.783 69.6871 14.479 69.746 15.1387C69.7957 15.6939 69.994 16.511 70.187 16.9542C70.38 17.3972 70.8686 18.0956 71.2728 18.5061C71.6769 18.9166 72.3734 19.4242 72.8206 19.6342C73.4758 19.9418 73.9557 20.0148 75.295 20.0102C76.621 20.0056 77.1254 19.9264 77.7947 19.6171C78.2559 19.404 78.8657 19.0613 79.1499 18.8558L79.6669 18.4819V16.4513V14.4207H78.093H76.5191V15.3089C76.5191 16.1772 76.5308 16.197 77.0437 16.197C77.5261 16.197 77.5684 16.2467 77.5684 16.8146C77.5684 17.2641 77.4582 17.5053 77.1635 17.7016C76.9409 17.8498 76.3911 18.0222 75.9418 18.0847C75.4602 18.1517 74.8011 18.1062 74.3354 17.9739C73.8207 17.8275 73.34 17.5179 72.9549 17.085C72.6299 16.7198 72.2664 16.1199 72.1468 15.7516C72.0167 15.3511 71.9717 14.7181 72.035 14.1754C72.1013 13.6065 72.3223 13.0033 72.628 12.5568C72.8961 12.1654 73.4231 11.6921 73.7989 11.5046C74.2231 11.2933 74.8133 11.1719 75.3558 11.1846C75.9187 11.1975 76.5343 11.3653 77.0866 11.6563L77.9436 12.108L78.4118 11.5508C78.6692 11.2442 78.9467 10.8784 79.0282 10.7378C79.1311 10.5606 79.0506 10.3913 78.7663 10.1866C78.5407 10.0241 78.1768 9.79504 77.9577 9.67745C77.7385 9.55986 77.1141 9.37988 76.57 9.27771C76.0258 9.17564 75.3785 9.09867 75.1316 9.10707C74.8849 9.11539 74.264 9.22518 73.7523 9.35091ZM116.391 9.30068C116.054 9.39779 115.535 9.66588 115.236 9.89626C114.937 10.1268 114.563 10.5917 114.405 10.9295C114.247 11.2671 114.118 11.8791 114.118 12.2892C114.118 12.6994 114.246 13.3095 114.403 13.645C114.572 14.0058 114.983 14.4248 115.408 14.6699C115.805 14.8978 116.82 15.3026 117.664 15.5692C118.508 15.8357 119.315 16.1718 119.456 16.3158C119.598 16.4596 119.714 16.7593 119.714 16.9813C119.714 17.2036 119.552 17.5347 119.353 17.7172C119.095 17.9544 118.724 18.0494 118.057 18.0494C117.346 18.0494 116.86 17.9116 116.02 17.4714L114.916 16.8934L114.349 17.5666C114.037 17.9368 113.778 18.289 113.775 18.3492C113.771 18.4096 114.064 18.6541 114.424 18.8924C114.785 19.1309 115.316 19.4224 115.605 19.5404C115.893 19.6581 116.562 19.8253 117.091 19.9116C117.637 20.0008 118.461 20.0026 118.996 19.9157C119.515 19.8315 120.231 19.567 120.587 19.328C120.942 19.0887 121.369 18.602 121.535 18.2464C121.702 17.8908 121.881 17.3293 121.934 16.9986C122 16.5824 121.911 16.1472 121.642 15.5842C121.379 15.031 121.022 14.6333 120.528 14.3406C120.128 14.104 119.211 13.7454 118.49 13.5439C117.769 13.3423 116.982 13.0295 116.741 12.8488C116.501 12.6679 116.28 12.3531 116.25 12.149C116.22 11.9448 116.366 11.6046 116.576 11.3917C116.894 11.0684 117.104 11.0178 117.864 11.0817C118.363 11.1237 119.126 11.3327 119.561 11.546C119.994 11.7593 120.393 11.9339 120.446 11.9339C120.498 11.9339 120.749 11.616 121.002 11.2272C121.256 10.8385 121.463 10.4799 121.463 10.4302C121.463 10.3804 121.168 10.1522 120.807 9.92291C120.447 9.69373 119.782 9.41296 119.331 9.29905C118.879 9.18524 118.171 9.09927 117.757 9.10793C117.343 9.11684 116.728 9.20349 116.391 9.30068ZM48.0138 9.34808C48.0138 9.39993 48.3545 10.0629 48.7709 10.8213C49.1871 11.5798 50.0921 13.2091 50.782 14.442L52.0361 16.6837V18.3053V19.9271H53.0853H54.1346L54.1361 18.1952L54.1378 16.4634L56.1207 12.9109L58.1037 9.35836L57.0556 9.30497C56.4792 9.27549 55.9133 9.28808 55.7979 9.33317C55.6824 9.37808 55.0527 10.4241 54.3987 11.6576C53.7446 12.891 53.1229 13.871 53.017 13.8351C52.911 13.7992 52.309 12.7774 51.6794 11.5642L50.5343 9.35836L49.2742 9.30617C48.581 9.27754 48.0138 9.2964 48.0138 9.34808ZM81.7069 9.64565C81.6455 9.87851 81.5943 12.2871 81.593 14.998L81.5906 19.9271L83.8203 19.9249C85.1286 19.9237 86.4155 19.824 86.9346 19.6836C87.421 19.5519 88.1447 19.2255 88.5426 18.9582C88.9404 18.6908 89.5444 18.06 89.8849 17.5565C90.2653 16.9941 90.5741 16.2643 90.6857 15.6641C90.7854 15.1267 90.8154 14.3274 90.7525 13.8879C90.6895 13.4482 90.4584 12.7251 90.2389 12.2809C90.0194 11.8365 89.5773 11.207 89.2566 10.8815C88.9357 10.5563 88.2466 10.0882 87.7252 9.84175C86.8919 9.44758 86.4776 9.38305 84.2979 9.30797L81.8184 9.22252L81.7069 9.64565ZM92.433 14.5779V19.9271H93.5667H94.7002L94.7471 15.6196L94.7939 11.3123L95.3134 11.2522C95.5991 11.2194 96.2589 11.2464 96.7797 11.3125C97.4326 11.3954 97.8548 11.5631 98.1401 11.8528C98.4147 12.1316 98.5541 12.4784 98.5541 12.8832C98.5541 13.2187 98.4038 13.6815 98.2202 13.9119C97.9521 14.2481 97.6686 14.3478 96.7774 14.42L95.6684 14.5095L95.6158 15.5308C95.5685 16.4535 95.5975 16.5522 95.9153 16.5522C96.1659 16.5522 96.5838 17.0373 97.3667 18.2366L98.4664 19.9211L99.7326 19.9241L100.999 19.9271L99.7514 18.0583C99.0649 17.0305 98.5335 16.168 98.5721 16.1415C98.6098 16.1151 98.9638 15.884 99.3572 15.6282C99.766 15.3627 100.213 14.8701 100.399 14.4809C100.591 14.0762 100.725 13.402 100.728 12.8221C100.731 12.173 100.612 11.6068 100.371 11.1346C100.145 10.6911 99.6931 10.2252 99.1695 9.89497C98.3407 9.37208 98.297 9.36513 95.382 9.29725L92.433 9.22852V14.5779ZM105.657 11.2679C105.199 12.367 104.702 13.5459 104.551 13.8879C104.401 14.2297 103.927 15.3488 103.499 16.3746C103.07 17.4004 102.57 18.6193 102.388 19.0834L102.056 19.9271H103.152C104.186 19.9271 104.259 19.8992 104.436 19.4386C104.539 19.17 105.238 17.4114 105.99 15.5308C106.742 13.6504 107.407 12.1116 107.468 12.1116C107.529 12.1116 107.871 12.8372 108.227 13.7241C108.583 14.611 108.83 15.4103 108.775 15.5003C108.721 15.5904 108.298 15.6641 107.836 15.6641C107.007 15.6641 106.992 15.6747 106.71 16.4248C106.552 16.8433 106.424 17.2877 106.424 17.4126C106.424 17.5821 106.815 17.6306 107.976 17.6046C108.829 17.5857 109.607 17.619 109.702 17.6791C109.797 17.7389 110.052 18.2693 110.269 18.8576L110.664 19.9271H111.779C112.392 19.9271 112.894 19.874 112.894 19.8091C112.894 19.7443 112.036 17.6462 110.987 15.1465C109.938 12.6469 108.959 10.3022 108.81 9.93568C108.541 9.27274 108.535 9.26957 107.514 9.26957H106.488L105.657 11.2679ZM123.853 9.26957C123.853 9.26957 123.736 11.851 123.736 14.7168V19.9271H124.873H126.01V14.5984V9.26957H124.989H123.853ZM128.108 14.5984V19.9271H131.693H135.278V18.955V17.983L132.786 17.9336L130.295 17.8844L130.247 13.577L130.2 9.26957H129.155H128.108V14.5984ZM86.9191 11.8188C87.3151 12.0372 87.7876 12.5064 88.019 12.9114C88.3559 13.5011 88.4152 13.8233 88.3687 14.8147C88.3285 15.6714 88.2124 16.1442 87.9574 16.4911C87.7621 16.7569 87.4052 17.1238 87.1643 17.3064C86.9233 17.4891 86.2139 17.7278 85.5878 17.8368C84.9615 17.9457 84.3174 17.9835 84.1566 17.9208C83.8981 17.8201 83.864 17.4363 83.864 14.6335C83.864 12.8882 83.9221 11.4014 83.9929 11.3294C84.0639 11.2574 84.595 11.2519 85.1733 11.3173C85.7516 11.3828 86.5372 11.6084 86.9191 11.8188Z" fill="white"/>
</g>
</g>
</g>
</g>
<defs>
<clipPath id="clip0_1_19546">
<rect width="122.56" height="30" fill="white" transform="translate(12.795 0.015625)"/>
</clipPath>
<clipPath id="clip1_1_19546">
<rect width="122.56" height="30" fill="white" transform="translate(12.795 0.015625)"/>
</clipPath>
<clipPath id="clip2_1_19546">
<rect width="122.56" height="30" fill="white" transform="translate(12.795 0.015625)"/>
</clipPath>
<clipPath id="clip3_1_19546">
<rect width="122.56" height="29.9972" fill="white" transform="translate(12.795 0.0166016)"/>
</clipPath>
</defs>
</svg>
