<svg width="161" height="31" viewBox="0 0 161 31" fill="none" xmlns="http://www.w3.org/2000/svg">
<g clip-path="url(#clip0_1_19766)">
<g clip-path="url(#clip1_1_19766)">
<g clip-path="url(#clip2_1_19766)">
<path fill-rule="evenodd" clip-rule="evenodd" d="M64.2458 22.9028C58.6539 27.0296 50.5468 29.2242 43.5653 29.2242C33.7814 29.2242 24.9705 25.6075 18.3028 19.587C17.7798 19.1138 18.2462 18.4683 18.8754 18.8344C26.0687 23.0203 34.9653 25.5415 44.1525 25.5415C50.3504 25.5415 57.1639 24.2547 63.4331 21.5955C64.3786 21.1952 65.1715 22.2188 64.2458 22.9028Z" fill="#F79C34"/>
<path fill-rule="evenodd" clip-rule="evenodd" d="M66.5747 20.2455C65.8589 19.3299 61.8469 19.8117 60.0441 20.0278C59.498 20.0938 59.4131 19.6162 59.9052 19.2708C63.1062 17.0222 68.3518 17.6712 68.9613 18.4247C69.5752 19.1834 68.7994 24.4426 65.8006 26.9518C65.3386 27.3376 64.8997 27.1318 65.1045 26.6226C65.78 24.9364 67.2905 21.1628 66.5747 20.2455Z" fill="#F79C34"/>
<path fill-rule="evenodd" clip-rule="evenodd" d="M60.1713 3.38774V1.20345C60.173 0.870831 60.4233 0.649659 60.7251 0.650516L70.5167 0.649659C70.8296 0.649659 71.0816 0.876832 71.0816 1.20087V3.07398C71.0782 3.3886 70.8133 3.79837 70.3444 4.44902L65.272 11.6911C67.1545 11.6474 69.1459 11.9294 70.857 12.8904C71.2428 13.1074 71.3465 13.4288 71.3765 13.7434V16.0743C71.3765 16.3958 71.0251 16.767 70.6547 16.574C67.6414 14.995 63.6424 14.8227 60.3093 16.5929C59.969 16.7746 59.6132 16.4078 59.6132 16.0863V13.8702C59.6132 13.5163 59.6201 12.9093 59.9776 12.3692L65.8532 3.93896L60.7371 3.9381C60.4242 3.9381 60.173 3.71521 60.1713 3.38774ZM24.4546 17.0327H21.4756C21.1918 17.0147 20.9655 16.8021 20.9423 16.5295L20.9449 1.24031C20.9449 0.935126 21.2021 0.690807 21.5201 0.690807L24.2942 0.68995C24.5839 0.704523 24.8171 0.923982 24.8351 1.20345V3.19914H24.8917C25.6144 1.2686 26.9765 0.367621 28.8119 0.367621C30.6748 0.367621 31.8432 1.2686 32.6773 3.19914C33.4 1.2686 35.0408 0.367621 36.7922 0.367621C38.0438 0.367621 39.4059 0.882833 40.2401 2.04099C41.1856 3.32859 40.9919 5.19398 40.9919 6.83477L40.9885 16.4832C40.9885 16.7875 40.7322 17.0327 40.4141 17.0327H37.4394C37.1394 17.0138 36.9044 16.7772 36.9044 16.484L36.9036 8.3787C36.9036 7.73575 36.9593 6.12753 36.8196 5.51631C36.5976 4.48589 35.9306 4.19614 35.0691 4.19614C34.3455 4.19614 33.5946 4.67877 33.2886 5.4503C32.9825 6.22355 33.0108 7.50944 33.0108 8.3787V16.4832C33.0108 16.7875 32.7536 17.0327 32.4364 17.0327H29.4609C29.1618 17.0138 28.9259 16.7772 28.9259 16.484L28.9226 8.3787C28.9226 6.67361 29.2011 4.16527 27.088 4.16527C24.9466 4.16527 25.0306 6.60931 25.0306 8.3787L25.0289 16.4832C25.0289 16.7875 24.7717 17.0327 24.4546 17.0327ZM79.5377 3.4889C77.3413 3.4889 77.2024 6.47987 77.2024 8.34612C77.2024 10.2124 77.1751 14.2021 79.511 14.2021C81.8188 14.2021 81.9302 10.9847 81.9302 9.0225C81.9302 7.73575 81.8736 6.19097 81.4845 4.96852C81.151 3.90638 80.4831 3.4889 79.5377 3.4889ZM79.511 0.367621C83.9319 0.367621 86.3229 4.16527 86.3229 8.99078C86.3229 13.6543 83.6816 17.355 79.511 17.355C75.1724 17.355 72.809 13.5583 72.809 8.82961C72.809 4.06755 75.1999 0.367621 79.511 0.367621ZM92.057 17.0327H89.0883C88.7908 17.0138 88.5542 16.7772 88.5542 16.484L88.5491 1.18973C88.5749 0.909408 88.8217 0.690807 89.1218 0.690807L91.8847 0.68995C92.1453 0.703666 92.3596 0.880261 92.4145 1.11772V3.45632H92.4702C93.3052 1.36461 94.4719 0.367621 96.5294 0.367621C97.864 0.367621 99.1714 0.850257 100.006 2.16958C100.784 3.39202 100.784 5.4503 100.784 6.93078V16.5518C100.751 16.8227 100.508 17.0327 100.213 17.0327H97.2271C96.9511 17.0156 96.7291 16.8124 96.6965 16.5518V8.25096C96.6965 6.57759 96.8919 4.13184 94.8337 4.13184C94.111 4.13184 93.4432 4.61448 93.1097 5.35429C92.6923 6.28784 92.6365 7.22054 92.6365 8.25096V16.4832C92.6314 16.7875 92.3742 17.0327 92.057 17.0327ZM55.368 16.995C55.1718 17.1716 54.888 17.1836 54.6652 17.0644C53.6758 16.2423 53.4984 15.8625 52.9575 15.079C51.3227 16.7446 50.1645 17.2444 48.0463 17.2444C45.5387 17.2444 43.5877 15.6963 43.5877 12.6016C43.5877 10.1832 44.8984 8.53901 46.7646 7.73318C48.3806 7.02337 50.6377 6.89478 52.3659 6.70105V6.31441C52.3659 5.60375 52.4217 4.76707 52.0034 4.15413C51.6407 3.60549 50.9447 3.38003 50.3317 3.38003C49.195 3.38003 48.186 3.9621 47.9374 5.16826C47.8851 5.43659 47.6896 5.70319 47.4204 5.71691L44.5324 5.40401C44.2889 5.34829 44.018 5.15284 44.0875 4.78079C44.7432 1.32689 47.8277 0.250177 50.6309 0.22103H50.8521C52.2871 0.239033 54.1199 0.632514 55.2361 1.70323C56.6857 3.05769 56.5451 4.86308 56.5451 6.83049V11.4708C56.5451 12.8673 57.1255 13.4794 57.6698 14.2312C57.861 14.503 57.903 14.8244 57.6604 15.0233C57.0517 15.5333 55.9707 16.472 55.3767 17.0018L55.368 16.995ZM52.3659 9.73232C52.3659 10.893 52.3934 11.8601 51.8088 12.8922C51.3347 13.7297 50.582 14.2458 49.7462 14.2458C48.6043 14.2458 47.9357 13.3757 47.9357 12.0854C47.9357 9.548 50.2108 9.08679 52.3659 9.08679V9.73232ZM16.3191 16.995C16.122 17.1716 15.8374 17.1836 15.6153 17.0644C14.6252 16.2423 14.4478 15.8625 13.9077 15.079C12.272 16.7446 11.1147 17.2444 8.99644 17.2444C6.48896 17.2444 4.53784 15.6963 4.53784 12.6016C4.53784 10.1832 5.84688 8.53901 7.71484 7.73318C9.33077 7.02337 11.5879 6.89478 13.3153 6.70105V6.31441C13.3153 5.60375 13.3719 4.76707 12.9535 4.15413C12.5909 3.60549 11.894 3.38003 11.2819 3.38003C10.1452 3.38003 9.13446 3.9621 8.88757 5.16826C8.83613 5.43659 8.63982 5.70319 8.36979 5.71691L5.48254 5.40401C5.23822 5.34829 4.96733 5.15284 5.03762 4.78079C5.69171 1.32689 8.77698 0.250177 11.5811 0.22103H11.8022C13.2373 0.239033 15.0702 0.632514 16.1862 1.70323C17.635 3.05769 17.4953 4.86308 17.4953 6.83049V11.4708C17.4953 12.8673 18.0757 13.4794 18.6201 14.2312C18.8095 14.503 18.8532 14.8244 18.6106 15.0233C18.0019 15.5333 16.9201 16.472 16.326 17.0018L16.3191 16.995ZM13.3153 9.73232C13.3153 10.893 13.3436 11.8601 12.7581 12.8922C12.2849 13.7297 11.5322 14.2458 10.6955 14.2458C9.55366 14.2458 8.885 13.3757 8.885 12.0854C8.885 9.548 11.161 9.08679 13.3153 9.08679V9.73232ZM141.505 22.5174V21.3944C141.505 21.0746 141.662 20.8544 141.994 20.8741C142.618 20.9624 143.497 21.0506 144.122 20.922C144.939 20.7523 145.524 20.1737 145.871 19.3808C146.359 18.2646 146.682 17.3645 146.886 16.7739L140.688 1.42205C140.584 1.16144 140.553 0.677949 141.073 0.677949H143.24C143.653 0.677949 143.82 0.940269 143.913 1.19745L148.406 13.6671L152.695 1.19745C152.783 0.941984 152.958 0.677949 153.368 0.677949H155.411C155.928 0.677949 155.899 1.16058 155.796 1.42205L149.649 17.253C148.853 19.3602 147.794 22.7163 145.406 23.2993C144.21 23.6122 142.701 23.499 141.814 23.1278C141.59 23.0155 141.505 22.7155 141.505 22.5174ZM138.615 16.0975C138.615 16.3829 138.38 16.6169 138.094 16.6169H136.566C136.236 16.6169 136.011 16.3787 135.968 16.0975L135.815 15.0575C135.113 15.6517 134.251 16.1737 133.317 16.5372C131.52 17.235 129.449 17.3508 127.694 16.2723C126.423 15.4931 125.75 13.9697 125.75 12.3984C125.75 11.1828 126.124 9.97752 126.955 9.10222C128.063 7.90634 129.67 7.31913 131.61 7.31913C132.782 7.31913 134.458 7.45714 135.679 7.85576V5.76321C135.679 3.63548 134.783 2.71479 132.421 2.71479C130.616 2.71479 129.234 2.98741 127.312 3.58491C127.005 3.5952 126.825 3.36117 126.825 3.0757V1.88239C126.825 1.59607 127.07 1.31918 127.334 1.23517C128.707 0.6368 130.651 0.263893 132.718 0.195312C135.412 0.195312 138.615 0.803108 138.615 4.9471V16.0975ZM135.679 13.0421V9.88491C134.653 9.60458 132.957 9.48798 132.3 9.48798C131.263 9.48798 130.127 9.73319 129.534 10.3718C129.091 10.8399 128.89 11.512 128.89 12.1618C128.89 13.0019 129.181 13.8446 129.859 14.2612C130.648 14.797 131.872 14.7318 133.022 14.4053C134.127 14.0915 135.163 13.5368 135.679 13.0421ZM116.091 2.76194C119.48 2.76194 120.403 5.42715 120.403 8.47899C120.422 10.5364 120.043 12.371 118.978 13.4211C118.181 14.2072 117.291 14.4215 115.949 14.4215C114.756 14.4215 113.187 13.7991 112.014 12.9324V4.20642C113.235 3.26858 114.792 2.76194 116.091 2.76194ZM111.494 23.0653H109.448C109.162 23.0653 108.928 22.8312 108.928 22.5458V1.22488C108.928 0.939412 109.162 0.705381 109.448 0.705381H111.014C111.343 0.705381 111.569 0.943698 111.611 1.22488L111.776 2.34189C113.243 1.03971 115.131 0.204742 116.931 0.204742C121.97 0.204742 123.628 4.3573 123.628 8.67531C123.628 13.2951 121.092 17.007 116.805 17.007C115 17.007 113.312 16.3409 112.014 15.1836V22.5458C112.014 22.8312 111.78 23.0653 111.494 23.0653Z" fill="white"/>
</g>
</g>
</g>
<defs>
<clipPath id="clip0_1_19766">
<rect width="151.92" height="30" fill="white" transform="translate(4.53784 0.015625)"/>
</clipPath>
<clipPath id="clip1_1_19766">
<rect width="151.92" height="30" fill="white" transform="translate(4.53784 0.015625)"/>
</clipPath>
<clipPath id="clip2_1_19766">
<rect width="151.92" height="29.9969" fill="white" transform="translate(4.53784 0.0175781)"/>
</clipPath>
</defs>
</svg>
