<svg width="77" height="31" viewBox="0 0 77 31" fill="none" xmlns="http://www.w3.org/2000/svg">
<g clip-path="url(#clip0_1_19611)">
<g clip-path="url(#clip1_1_19611)">
<g clip-path="url(#clip2_1_19611)">
<path d="M27.3277 9.8026C27.2724 9.91336 27.2281 10.0241 27.1727 10.1348C26.9622 10.5003 26.6411 10.7219 26.2091 10.7662C26.0873 10.7772 25.9654 10.7883 25.8325 10.7883C17.7141 10.7883 9.59568 10.7883 1.48832 10.7883C1.28896 10.7883 1.0896 10.7772 0.912395 10.7329C0.425068 10.6111 0.0595716 10.1681 0.0152691 9.68077C-0.040109 9.12699 0.21463 8.65074 0.724109 8.41815C1.52155 8.04158 2.34115 7.68715 3.14967 7.32166C6.41698 5.83752 9.69536 4.36447 12.9737 2.89142C13.1177 2.82496 13.2617 2.75851 13.4057 2.70312C13.5829 2.70312 13.7601 2.70312 13.9373 2.70312C14.0813 2.76957 14.2253 2.83603 14.3582 2.90248C18.3454 4.69673 22.3216 6.49099 26.3088 8.26309C26.785 8.47353 27.1616 8.75042 27.3277 9.2599C27.3277 9.43711 27.3277 9.62539 27.3277 9.8026Z" fill="white"/>
<path d="M27.329 29.0075C27.2958 29.074 27.2626 29.1294 27.2404 29.1958C27.0522 29.6832 26.6202 29.9933 26.0997 30.0154C26.0332 30.0154 25.9778 30.0154 25.9114 30.0154C17.7376 30.0154 9.56375 30.0154 1.40102 30.0154C0.84724 30.0154 0.415291 29.8271 0.149476 29.3287C-0.227095 28.631 0.182703 27.7338 0.957996 27.5677C1.1352 27.5234 1.32349 27.5234 1.51178 27.5234C9.57483 27.5234 17.6379 27.5234 25.712 27.5234C26.6867 27.5234 26.9635 27.7117 27.329 28.5867C27.329 28.7196 27.329 28.8636 27.329 29.0075Z" fill="white"/>
<path d="M24.2402 13.1696C24.2402 16.8689 24.2402 20.5792 24.2402 24.2785C24.4728 24.3117 24.6943 24.3117 24.9048 24.3781C25.4475 24.5443 25.824 25.0981 25.7687 25.6408C25.7022 26.2499 25.2703 26.704 24.6832 26.7705C24.5503 26.7816 24.4174 26.7926 24.2845 26.7926C17.2072 26.7926 10.1299 26.7926 3.05257 26.7926C2.49878 26.7926 2.01146 26.6597 1.72349 26.1392C1.28047 25.3417 1.82317 24.356 2.74245 24.3117C2.8532 24.3006 2.97504 24.3006 3.09687 24.2895C3.09687 20.5792 3.09687 16.8689 3.09687 13.1585C2.96396 13.1364 2.83105 13.1253 2.70922 13.1032C2.3991 13.0478 2.22189 12.8373 2.19974 12.5383C2.18867 12.2282 2.3548 11.9956 2.66492 11.9181C2.77567 11.8959 2.89751 11.8848 3.00826 11.8848C10.1188 11.8848 17.2294 11.8848 24.351 11.8848C24.5282 11.8848 24.7276 11.9291 24.8826 12.0177C25.1152 12.1396 25.1927 12.3832 25.1374 12.638C25.082 12.8816 24.938 13.0478 24.6832 13.1032C24.5282 13.1364 24.3953 13.1475 24.2402 13.1696ZM11.8134 13.1585C11.8134 16.8689 11.8134 20.5681 11.8134 24.2895C13.0538 24.2895 14.2722 24.2895 15.5016 24.2895C15.5016 20.5792 15.5016 16.8799 15.5016 13.1585C14.2722 13.1585 13.0538 13.1585 11.8134 13.1585ZM21.715 13.1585C20.4745 13.1585 19.2562 13.1585 18.0379 13.1585C18.0379 16.8799 18.0379 20.5792 18.0379 24.2785C19.2783 24.2785 20.4856 24.2785 21.715 24.2785C21.715 20.5792 21.715 16.8799 21.715 13.1585ZM5.62211 13.1585C5.62211 16.8799 5.62211 20.5792 5.62211 24.2895C6.8515 24.2895 8.05875 24.2895 9.28814 24.2895C9.28814 20.5792 9.28814 16.8799 9.28814 13.1585C8.05875 13.1585 6.8515 13.1585 5.62211 13.1585Z" fill="white"/>
<path d="M19.2209 16.2387C23.7008 16.2387 27.3325 12.6071 27.3325 8.12718C27.3325 3.64729 23.7008 0.015625 19.2209 0.015625C14.741 0.015625 11.1094 3.64729 11.1094 8.12718C11.1094 12.6071 14.741 16.2387 19.2209 16.2387Z" fill="#F9BB22"/>
<path d="M19.2186 15.3846C23.227 15.3846 26.4764 12.1352 26.4764 8.12685C26.4764 4.11853 23.227 0.869141 19.2186 0.869141C15.2103 0.869141 11.9609 4.11853 11.9609 8.12685C11.9609 12.1352 15.2103 15.3846 19.2186 15.3846Z" fill="#F9BB22" stroke="black" stroke-width="0.557378"/>
<mask id="mask0_1_19611" style="mask-type:luminance" maskUnits="userSpaceOnUse" x="16" y="3" width="8" height="11">
<path d="M23.0612 3.43164H16.2305V13.6778H23.0612V3.43164Z" fill="white"/>
</mask>
<g mask="url(#mask0_1_19611)">
<path d="M19.6448 12.8236L16.9093 8.95094L16.9251 8.18354C18.2089 8.28381 19.2069 8.13004 19.4391 6.75581L16.7038 6.73797L17.1465 5.89918L19.3286 5.93487C18.9961 5.15278 18.0817 5.05668 16.6562 5.11394L17.1465 4.29299L21.7794 4.28516L21.3209 5.09609H20.0401C20.2742 5.37568 20.4455 5.69741 20.4512 5.97057L21.7794 5.95272L21.3209 6.75581L20.4354 6.77366C20.2972 7.97163 19.3243 8.68093 18.0951 8.84386L20.849 12.8228L19.6448 12.8236Z" fill="black" stroke="black" stroke-width="0.0990844"/>
</g>
<path d="M28.9961 11.4297H33.5417C34.2993 11.4297 34.88 11.6173 35.2838 11.9925C35.6912 12.3677 35.8949 12.8323 35.8949 13.3862C35.8949 13.8508 35.7501 14.2492 35.4607 14.5816C35.2677 14.8031 34.9854 14.9782 34.6137 15.1069C35.1784 15.2427 35.5929 15.4767 35.8574 15.8091C36.1254 16.1379 36.2594 16.5524 36.2594 17.0527C36.2594 17.4601 36.1647 17.8264 35.9753 18.1516C35.7859 18.4768 35.5268 18.7341 35.198 18.9235C34.9943 19.0414 34.687 19.1272 34.276 19.1808C33.7293 19.2522 33.3666 19.288 33.1879 19.288H28.9961V11.4297ZM31.4458 14.5119H32.5018C32.8806 14.5119 33.1432 14.4476 33.2897 14.3189C33.4398 14.1867 33.5149 13.9973 33.5149 13.7507C33.5149 13.522 33.4398 13.3433 33.2897 13.2147C33.1432 13.086 32.8859 13.0217 32.5178 13.0217H31.4458V14.5119ZM31.4458 17.5994H32.684C33.1021 17.5994 33.3969 17.5262 33.5685 17.3797C33.74 17.2296 33.8258 17.0295 33.8258 16.7793C33.8258 16.547 33.74 16.3612 33.5685 16.2218C33.4005 16.0789 33.1039 16.0074 32.6787 16.0074H31.4458V17.5994Z" fill="white"/>
<path d="M42.1753 17.9908H39.4094L39.0288 19.288H36.5469L39.5005 11.4297H42.1485L45.1021 19.288H42.5613L42.1753 17.9908ZM41.6661 16.2915L40.7977 13.4666L39.9347 16.2915H41.6661Z" fill="white"/>
<path d="M45.9023 11.4297H48.1697L51.1286 15.7769V11.4297H53.4175V19.288H51.1286L48.1858 14.9729V19.288H45.9023V11.4297Z" fill="white"/>
<path d="M55.043 11.4297H57.4713V14.3993L60.0174 11.4297H63.2444L60.3819 14.3939L63.373 19.288H60.3819L58.7256 16.0557L57.4713 17.369V19.288H55.043V11.4297Z" fill="white"/>
<path d="M29.0312 28.6806V20.8223H31.7382C32.3493 20.8223 32.8157 20.8598 33.1373 20.9349C33.5876 21.0385 33.9718 21.2261 34.2898 21.4977C34.7044 21.8479 35.0134 22.2964 35.2171 22.8431C35.4243 23.3863 35.528 24.0081 35.528 24.7085C35.528 25.3053 35.4583 25.8342 35.3189 26.2952C35.1795 26.7562 35.0009 27.1386 34.7829 27.4423C34.5649 27.7425 34.3255 27.9802 34.0646 28.1553C33.8073 28.3268 33.4947 28.4572 33.1266 28.5466C32.7621 28.6359 32.3421 28.6806 31.8668 28.6806H29.0312ZM30.0711 27.7532H31.7489C32.2671 27.7532 32.6727 27.705 32.9657 27.6085C33.2623 27.512 33.4982 27.3762 33.6733 27.2011C33.9199 26.9545 34.1111 26.624 34.2469 26.2095C34.3863 25.7913 34.4559 25.2857 34.4559 24.6925C34.4559 23.8705 34.3201 23.2398 34.0485 22.8003C33.7805 22.3571 33.4535 22.0605 33.0676 21.9104C32.7888 21.8032 32.3403 21.7496 31.7221 21.7496H30.0711V27.7532Z" fill="white"/>
<path d="M36.9884 28.6806V20.8223H42.6704V21.7496H38.0283V24.1564H42.3756V25.0784H38.0283V27.7532H42.8526V28.6806H36.9884Z" fill="white"/>
<path d="M44.2892 28.6806V20.8223H47.2535C47.7752 20.8223 48.1737 20.8473 48.4489 20.8973C48.8348 20.9617 49.1582 21.0849 49.4191 21.2672C49.68 21.4459 49.889 21.6978 50.0462 22.023C50.2071 22.3482 50.2875 22.7056 50.2875 23.0951C50.2875 23.7633 50.0748 24.3298 49.6496 24.7943C49.2243 25.2553 48.456 25.4858 47.3446 25.4858H45.3291V28.6806H44.2892ZM45.3291 24.5585H47.3607C48.0325 24.5585 48.5096 24.4334 48.7919 24.1832C49.0742 23.9331 49.2154 23.5811 49.2154 23.1272C49.2154 22.7985 49.1314 22.5179 48.9635 22.2857C48.7991 22.0498 48.5811 21.8944 48.3095 21.8193C48.1344 21.7729 47.811 21.7496 47.3393 21.7496H45.3291V24.5585Z" fill="white"/>
<path d="M51.2969 24.854C51.2969 23.5496 51.6471 22.5294 52.3475 21.7932C53.048 21.0535 53.9521 20.6836 55.0599 20.6836C55.7853 20.6836 56.4393 20.8569 57.0218 21.2036C57.6043 21.5502 58.0474 22.0344 58.3512 22.6562C58.6585 23.2745 58.8122 23.9767 58.8122 24.7629C58.8122 25.5598 58.6513 26.2727 58.3297 26.9016C58.0081 27.5306 57.5525 28.0077 56.9628 28.3329C56.3732 28.6545 55.7371 28.8153 55.0545 28.8153C54.3148 28.8153 53.6537 28.6366 53.0712 28.2793C52.4887 27.9219 52.0474 27.4341 51.7472 26.8159C51.447 26.1976 51.2969 25.5437 51.2969 24.854ZM52.369 24.8701C52.369 25.8171 52.6227 26.5639 53.1302 27.1107C53.6412 27.6539 54.2809 27.9255 55.0492 27.9255C55.8318 27.9255 56.475 27.6503 56.9789 27.1C57.4864 26.5496 57.7401 25.7688 57.7401 24.7575C57.7401 24.1178 57.6311 23.5603 57.4131 23.0851C57.1987 22.6062 56.8824 22.2363 56.4643 21.9755C56.0498 21.711 55.5834 21.5788 55.0653 21.5788C54.3291 21.5788 53.6948 21.8325 53.1623 22.34C52.6334 22.8438 52.369 23.6872 52.369 24.8701Z" fill="white"/>
<path d="M59.8047 26.1551L60.7857 26.0693C60.8321 26.4624 60.9393 26.7858 61.1073 27.0395C61.2788 27.2897 61.5433 27.4934 61.9006 27.6506C62.258 27.8043 62.66 27.8811 63.1067 27.8811C63.5034 27.8811 63.8536 27.8221 64.1573 27.7042C64.4611 27.5863 64.6862 27.4255 64.8328 27.2218C64.9828 27.0145 65.0579 26.7894 65.0579 26.5464C65.0579 26.2998 64.9864 26.0854 64.8435 25.9031C64.7005 25.7173 64.4647 25.5618 64.1359 25.4368C63.9251 25.3546 63.4587 25.2277 62.7368 25.0562C62.015 24.8811 61.5093 24.7167 61.2199 24.563C60.8446 24.3665 60.5641 24.1235 60.3783 23.834C60.196 23.541 60.1049 23.214 60.1049 22.8531C60.1049 22.4564 60.2175 22.0865 60.4426 21.7435C60.6677 21.3968 60.9965 21.1342 61.4289 20.9555C61.8613 20.7768 62.342 20.6875 62.8709 20.6875C63.4533 20.6875 63.9662 20.7822 64.4093 20.9716C64.856 21.1574 65.199 21.4326 65.4385 21.7971C65.6779 22.1616 65.8066 22.5743 65.8244 23.0353L64.8274 23.1104C64.7738 22.6136 64.5915 22.2384 64.2806 21.9847C63.9733 21.731 63.5177 21.6041 62.9137 21.6041C62.2848 21.6041 61.8256 21.7202 61.5361 21.9525C61.2502 22.1812 61.1073 22.4582 61.1073 22.7834C61.1073 23.0657 61.2091 23.298 61.4128 23.4802C61.613 23.6625 62.1347 23.8501 62.9781 24.0431C63.825 24.2325 64.4057 24.3986 64.7202 24.5416C65.1776 24.7524 65.5153 25.0204 65.7333 25.3456C65.9513 25.6673 66.0603 26.0389 66.0603 26.4606C66.0603 26.8787 65.9406 27.2736 65.7011 27.6452C65.4617 28.0133 65.1169 28.301 64.6666 28.5083C64.2199 28.7119 63.716 28.8138 63.155 28.8138C62.4438 28.8138 61.847 28.7102 61.3646 28.5029C60.8857 28.2956 60.5087 27.9847 60.2336 27.5702C59.962 27.1521 59.819 26.6804 59.8047 26.1551Z" fill="white"/>
<path d="M67.6562 28.6806V20.8223H68.6962V28.6806H67.6562Z" fill="white"/>
<path d="M72.5344 28.6806V21.7496H69.9453V20.8223H76.1741V21.7496H73.5743V28.6806H72.5344Z" fill="white"/>
</g>
</g>
</g>
<defs>
<clipPath id="clip0_1_19611">
<rect width="77" height="30" fill="white" transform="translate(0.0078125 0.015625)"/>
</clipPath>
<clipPath id="clip1_1_19611">
<rect width="77" height="30" fill="white" transform="translate(0.0078125 0.015625)"/>
</clipPath>
<clipPath id="clip2_1_19611">
<rect width="77" height="30" fill="white" transform="translate(0.0078125 0.015625)"/>
</clipPath>
</defs>
</svg>
