<svg width="75" height="31" viewBox="0 0 75 31" fill="none" xmlns="http://www.w3.org/2000/svg">
<g clip-path="url(#clip0_1_19637)">
<g clip-path="url(#clip1_1_19637)">
<g clip-path="url(#clip2_1_19637)">
<path d="M35.3491 14.2517V22.7666H32.6505V1.74732H39.8078C41.5343 1.7138 43.1936 2.36751 44.4508 3.57437C45.7079 4.69742 46.412 6.32331 46.3784 7.9995C46.412 9.69244 45.7079 11.3183 44.4508 12.4582C43.1936 13.6483 41.6515 14.2517 39.8245 14.2517H35.3491ZM35.3491 4.32865V11.6703H39.8748C40.8805 11.7039 41.8527 11.3016 42.5399 10.5808C43.9647 9.20635 43.9815 6.9435 42.607 5.51874L42.5399 5.45169C41.8527 4.71418 40.8805 4.31189 39.8748 4.34541L35.3491 4.32865ZM52.5971 7.91569C54.5917 7.91569 56.1674 8.45206 57.3239 9.50806C58.4805 10.5808 59.0504 12.0391 59.0504 13.8997V22.7499H56.469V20.7553H56.3517C55.2287 22.3979 53.7536 23.2193 51.8931 23.2193C50.3175 23.2193 48.9765 22.7499 47.9205 21.8113C46.8813 20.9396 46.2946 19.649 46.3282 18.2913C46.3282 16.7994 46.8981 15.6262 48.021 14.7378C49.1441 13.8494 50.6527 13.4136 52.53 13.4136C54.1392 13.4136 55.4466 13.7153 56.4858 14.2852V13.665C56.4858 12.7431 56.0836 11.8715 55.3795 11.2849C54.6588 10.6479 53.7369 10.2958 52.7814 10.2958C51.2728 10.2958 50.0828 10.9328 49.1944 12.2067L46.8143 10.715C48.1049 8.85435 50.0325 7.91569 52.5971 7.91569ZM49.1106 18.3583C49.1106 19.0623 49.4458 19.716 49.999 20.1183C50.6024 20.5877 51.3399 20.8391 52.0943 20.8223C53.2341 20.8223 54.3235 20.3697 55.1281 19.5652C56.0165 18.7271 56.469 17.7382 56.469 16.5983C55.631 15.9279 54.4577 15.5926 52.9491 15.5926C51.8596 15.5926 50.9376 15.8608 50.2001 16.3804C49.4793 16.9168 49.1106 17.5705 49.1106 18.3583ZM73.8679 8.38502L64.85 29.1026H62.0675L65.4199 21.8615L59.4862 8.40178H62.4195L66.6938 18.7271H66.7609L70.9345 8.40178L73.8679 8.38502Z" fill="white"/>
<path d="M24.4438 12.4082C24.4438 11.5868 24.3768 10.7655 24.2426 9.96094H12.8614V14.604H19.3818C19.1135 16.0958 18.242 17.4367 16.968 18.2749V21.292H20.8568C23.1364 19.1968 24.4438 16.0958 24.4438 12.4082Z" fill="#4285F4"/>
<path d="M12.8542 24.2085C16.106 24.2085 18.8548 23.1358 20.8496 21.292L16.9608 18.2748C15.8713 19.0124 14.4801 19.4315 12.8542 19.4315C9.7029 19.4315 7.03777 17.3026 6.08235 14.4531H2.07626V17.5709C4.12121 21.6273 8.29492 24.2085 12.8542 24.2085Z" fill="#34A853"/>
<path d="M6.08421 14.4538C5.58137 12.9619 5.58137 11.336 6.08421 9.82752V6.72656H2.07814C1.22691 8.40438 0.783295 10.2592 0.783295 12.1406C0.783295 14.022 1.22691 15.8769 2.07814 17.5547L6.08421 14.4538Z" fill="#FBBC04"/>
<path d="M12.8581 4.84817C14.5845 4.81465 16.2439 5.46836 17.4843 6.65845L20.9205 3.22227C18.7415 1.16056 15.8584 0.0375182 12.8581 0.0710419C8.29882 0.0710419 4.12511 2.65237 2.08017 6.72549L6.08625 9.84322C7.04168 6.97692 9.70681 4.84817 12.8581 4.84817Z" fill="#EA4335"/>
</g>
</g>
</g>
<defs>
<clipPath id="clip0_1_19637">
<rect width="73.55" height="30" fill="white" transform="translate(0.727814 0.015625)"/>
</clipPath>
<clipPath id="clip1_1_19637">
<rect width="73.55" height="30" fill="white" transform="translate(0.727814 0.015625)"/>
</clipPath>
<clipPath id="clip2_1_19637">
<rect width="73.5484" height="30" fill="white" transform="translate(0.728607 0.015625)"/>
</clipPath>
</defs>
</svg>
