<svg width="182" height="31" viewBox="0 0 182 31" fill="none" xmlns="http://www.w3.org/2000/svg">
<g clip-path="url(#clip0_1_19647)">
<g clip-path="url(#clip1_1_19647)">
<g clip-path="url(#clip2_1_19647)">
<path d="M180.994 0.015625H1.14844V30.0156H180.994V0.015625Z" fill="#114D8B"/>
<path d="M180.992 0.015625H31.1172V30.0156H180.992V0.015625Z" fill="#004689"/>
<path d="M40.6406 22.112V7.93555H45.3171V12.715H49.6847V7.93555H54.3612V22.112H49.6847V16.6047H45.3171V22.112H40.6406Z" fill="white"/>
<path d="M61.7374 11.4567H62.9579C63.6072 11.4273 64.2561 11.5221 64.8697 11.7361C65.1638 11.8721 65.4172 12.0824 65.605 12.3464C65.8244 12.6894 65.9835 13.0674 66.0756 13.4641C66.1877 13.9461 66.2421 14.4398 66.2374 14.9347C66.2647 15.6452 66.1445 16.3537 65.8844 17.0155C65.6901 17.5273 65.3304 17.9595 64.8624 18.2435C64.2432 18.5172 63.5674 18.6382 62.8918 18.5964H61.7153V11.4641L61.7374 11.4567ZM63.5241 22.1185C64.4488 22.139 65.3725 22.0451 66.2741 21.8391C66.9237 21.6986 67.5451 21.4501 68.1124 21.1038C68.6383 20.7557 69.0988 20.3176 69.4726 19.8097C69.9039 19.1743 70.243 18.4812 70.48 17.7508C70.755 16.8277 70.8888 15.8684 70.8771 14.9052C70.9163 13.5297 70.6078 12.1665 69.98 10.942C69.4297 9.9117 68.5493 9.09604 67.48 8.62586C66.2788 8.13705 64.9896 7.90173 63.6932 7.93468H57.2226V22.1111L63.5241 22.1185Z" fill="white"/>
<path d="M72.9766 22.112V7.93555H84.0427V11.4429H77.5868V13.715H82.7413V17.112H77.5868V22.112H72.9766Z" fill="white"/>
<path d="M99.6626 13.3534H95.2508C95.2169 12.7304 94.9552 12.1416 94.5155 11.699C94.2985 11.4988 94.0435 11.3443 93.7656 11.2445C93.4877 11.1447 93.1927 11.1017 92.8979 11.1181C92.5122 11.1089 92.1296 11.1891 91.7801 11.3524C91.4306 11.5156 91.1236 11.7576 90.8832 12.0593C90.2651 12.9732 89.9748 14.0695 90.0596 15.1696C90.0255 15.9332 90.1352 16.6965 90.3832 17.4196C90.5694 17.8908 90.8986 18.2919 91.3244 18.5666C91.7659 18.8362 92.2782 18.9668 92.7949 18.9416C93.1039 18.9593 93.4134 18.9151 93.7051 18.8116C93.9967 18.708 94.2648 18.5472 94.4935 18.3387C94.9467 17.8724 95.209 17.2534 95.2288 16.6034H99.7141C99.6397 17.3603 99.459 18.1029 99.1773 18.8093C98.8909 19.4828 98.4735 20.0926 97.9494 20.6034C97.35 21.222 96.622 21.7014 95.817 22.0078C94.9011 22.3519 93.9275 22.5166 92.9494 22.4931C91.9294 22.5059 90.9148 22.3443 89.9494 22.0152C89.1215 21.7361 88.3589 21.2918 87.7079 20.7091C87.057 20.1264 86.5312 19.4175 86.1626 18.6254C85.655 17.5115 85.4037 16.2979 85.4273 15.074C85.4174 14.0301 85.5993 12.9933 85.9641 12.0152C86.2824 11.1183 86.7831 10.2971 87.4346 9.60343C88.0256 8.97876 88.7356 8.47874 89.5229 8.13284C90.5463 7.71234 91.6446 7.50469 92.7508 7.52255C93.735 7.51375 94.7139 7.66779 95.6479 7.97843C96.4752 8.25142 97.2295 8.70905 97.8538 9.31667C98.4294 9.90533 98.8862 10.5993 99.1993 11.3607C99.4379 11.9912 99.5864 12.6521 99.6405 13.324" fill="white"/>
<path d="M114.61 11.1265C115.044 11.1054 115.479 11.1375 115.905 11.2221C116.165 11.2886 116.396 11.4415 116.559 11.6559C116.746 11.8969 116.834 12.2006 116.804 12.5044C116.774 12.8081 116.628 13.0887 116.397 13.2883C115.936 13.5513 115.404 13.6668 114.875 13.6192H113.11V11.1265H114.581H114.61ZM115.794 22.1118C116.579 22.1364 117.365 22.0847 118.14 21.9574C118.617 21.8473 119.081 21.6845 119.522 21.4721C119.907 21.2795 120.261 21.0318 120.574 20.7368C120.929 20.3853 121.21 19.965 121.397 19.5015C121.594 18.975 121.691 18.4165 121.684 17.8544C121.711 17.0937 121.489 16.345 121.052 15.7221C120.625 15.1455 120.012 14.7349 119.316 14.5603C119.864 14.2701 120.324 13.8377 120.648 13.3086C120.971 12.7795 121.146 12.1731 121.155 11.553C121.176 10.9713 121.036 10.3951 120.75 9.8878C120.465 9.38052 120.045 8.96187 119.537 8.67799C118.335 8.09756 117.001 7.84397 115.669 7.9427H108.625V22.1118H115.794ZM115.059 16.1927C115.685 16.1261 116.317 16.2464 116.875 16.5383C117.015 16.6624 117.127 16.8148 117.203 16.9852C117.28 17.1557 117.319 17.3404 117.319 17.5272C117.319 17.7141 117.28 17.8988 117.203 18.0693C117.127 18.2397 117.015 18.392 116.875 18.5162C116.331 18.8242 115.703 18.9528 115.081 18.8839H113.162V16.1927H115.059Z" fill="white"/>
<path d="M131.914 17.34H128.973L130.443 12.1929L131.914 17.34ZM127.561 22.112L128.09 20.2517H132.708L133.252 22.112H137.892L132.811 7.93555H128.068L122.973 22.112H127.561Z" fill="white"/>
<path d="M139.875 22.112V7.93555H144.213L149.118 15.5311V7.93555H153.588V22.112H149.155L144.346 14.7223V22.112H139.875Z" fill="white"/>
<path d="M156.699 22.11V7.93359H161.214V12.61L165.442 7.93359H170.913L165.721 13.2644L171.449 22.11H165.869L162.464 16.4703L161.214 17.6909V22.11H156.699Z" fill="white"/>
<path d="M31.119 0.015625H1.14844V30.0156H31.119V0.015625Z" fill="#ED1C24"/>
<path d="M25.8759 5.28711H6.39062V24.765H25.8759V5.28711Z" fill="white"/>
<path d="M17.625 0.015625H14.625V30.0156H17.625V0.015625Z" fill="white"/>
<path d="M31.119 13.5156H1.14844V16.523H31.119V13.5156Z" fill="white"/>
<path d="M20.6294 10.5234H11.6367V19.5234H20.6294V10.5234Z" fill="#004689"/>
</g>
</g>
</g>
<defs>
<clipPath id="clip0_1_19647">
<rect width="181" height="30" fill="white" transform="translate(0.507812 0.015625)"/>
</clipPath>
<clipPath id="clip1_1_19647">
<rect width="181" height="30" fill="white" transform="translate(0.507812 0.015625)"/>
</clipPath>
<clipPath id="clip2_1_19647">
<rect width="181" height="30" fill="white" transform="translate(0.507812 0.015625)"/>
</clipPath>
</defs>
</svg>
