<svg width="161" height="31" viewBox="0 0 161 31" fill="none" xmlns="http://www.w3.org/2000/svg">
<g clip-path="url(#clip0_1_19666)">
<g clip-path="url(#clip1_1_19666)">
<g clip-path="url(#clip2_1_19666)">
<path fill-rule="evenodd" clip-rule="evenodd" d="M33.5867 29.2137H38.5275L42.4021 14.7529H37.4614L33.5867 29.2137Z" fill="white"/>
<path fill-rule="evenodd" clip-rule="evenodd" d="M58.9695 29.2137H63.9102L67.7849 14.7529H62.8442L58.9695 29.2137Z" fill="white"/>
<path fill-rule="evenodd" clip-rule="evenodd" d="M84.3523 29.2137H89.293L93.1677 14.7529H88.2269L84.3523 29.2137Z" fill="white"/>
<path fill-rule="evenodd" clip-rule="evenodd" d="M54.3604 19.7075H59.3063C59.9619 16.4575 57.8608 14.7822 53.013 14.7822C47.4062 14.7822 43.5961 17.5288 42.3184 22.2966C41.1594 26.6177 43.4516 29.2508 48.7279 29.2508C54.061 29.2508 57.2128 27.591 58.5603 23.8738H53.6014C52.9123 25.5104 51.6113 26.3648 49.8585 26.3648C47.4656 26.3648 46.5285 24.847 47.2643 22.103C48.0386 19.2402 49.8456 17.6631 52.2489 17.6631C53.7667 17.6631 54.4818 18.3445 54.3682 19.7075" fill="white"/>
<path fill-rule="evenodd" clip-rule="evenodd" d="M79.7511 19.7075H84.697C85.3526 16.4575 83.2514 14.7822 78.4036 14.7822C72.7969 14.7822 68.9868 17.5288 67.709 22.2966C66.5499 26.6177 68.8422 29.2508 74.1185 29.2508C79.4517 29.2508 82.6035 27.591 83.9484 23.8738H78.9844C78.2952 25.5104 76.9942 26.3648 75.2414 26.3648C72.8485 26.3648 71.9115 24.847 72.6471 22.103C73.4216 19.2402 75.2285 17.6631 77.6317 17.6631C79.1496 17.6631 79.8647 18.3445 79.7511 19.7075Z" fill="white"/>
<path fill-rule="evenodd" clip-rule="evenodd" d="M14.4979 6.73257C21.1165 0.173328 29.1188 -1.52779 32.3093 2.9612C35.4999 7.45019 32.7068 16.4489 26.0882 23.0106C19.4696 29.5725 11.4648 31.271 8.2768 26.782C5.08882 22.293 7.87927 13.3021 14.4979 6.73257Z" fill="#F99D27"/>
<path fill-rule="evenodd" clip-rule="evenodd" d="M18.8794 3.23367C18.1087 3.80762 17.3781 4.43378 16.693 5.10774C10.8927 10.8203 8.4843 18.6728 11.3393 22.5939C14.2846 26.5201 21.4221 25.0927 27.3127 19.2923C30.4801 16.2128 32.6226 12.5988 33.508 9.25341C33.7662 6.79853 33.4176 4.60695 32.3025 2.96005C29.7599 -0.519629 24.3158 -0.251167 18.8794 3.21818" fill="#B02A30"/>
<path fill-rule="evenodd" clip-rule="evenodd" d="M22.1597 26.2474C19.0621 28.5706 15.8586 29.7271 12.7352 29.2444C14.0465 29.3114 15.1048 27.8581 15.9722 25.9041C16.7504 24.0985 17.3638 22.2262 17.805 20.3102C18.4219 17.5611 18.4683 15.5941 18.156 15.1734C17.6398 14.4738 16.4188 14.6571 15.0584 15.4315C14.4079 15.7929 13.5405 15.5528 14.5653 14.3112C15.5901 13.0695 19.7281 10.0416 21.2098 9.57178C22.836 9.10197 24.6946 9.74217 24.0673 11.5258C23.6207 12.8165 17.916 27.7885 22.1623 26.2397L22.1597 26.2474ZM26.8268 3.02287C27.6013 3.79728 27.1288 5.48033 25.8149 6.80973C24.501 8.13913 22.7637 8.59345 22.0177 7.84227C21.2201 7.06786 21.6925 5.36932 23.0167 4.02959C24.341 2.68988 26.0782 2.28202 26.8242 3.03061L26.8268 3.02287Z" fill="white"/>
<path fill-rule="evenodd" clip-rule="evenodd" d="M100.59 26.9281L101.721 22.7102H104.958C107.449 22.7102 108.554 23.1516 108.097 24.8604C107.676 26.4248 106.457 26.9256 104.207 26.9256H100.593L100.59 26.9281ZM103.257 16.9847H106.329C108.639 16.9847 109.71 17.2635 109.321 18.7117C108.931 20.1598 107.691 20.5186 105.304 20.5186H102.309L103.257 16.9847ZM96.8602 29.2359H104.271C106.38 29.2359 107.95 29.0732 109.454 28.0304C110.464 27.3492 111.195 26.3304 111.52 25.1573C112.054 23.1697 111.143 21.8428 108.879 21.5227C111.016 21.1201 112.361 19.9972 112.821 18.2883C113.174 16.9641 112.885 16.0192 111.933 15.3765C111.159 14.8602 109.868 14.7725 108.117 14.7725H100.732L96.8602 29.2359Z" fill="white"/>
<path fill-rule="evenodd" clip-rule="evenodd" d="M120.808 24.5766L120.761 24.7599C120.561 25.626 120.068 26.3966 119.367 26.9423C118.664 27.488 117.796 27.7756 116.908 27.7569C115.56 27.7569 114.998 27.2406 115.256 26.27C115.612 24.9458 116.773 24.5818 118.921 24.5818H120.808V24.5766ZM119.67 29.2386H122.643C122.745 28.4785 122.9 27.7264 123.105 26.9877L124.187 22.9504C124.905 20.2787 123.583 18.9131 120.227 18.9131C116.995 18.9131 114.886 20.0386 114.239 21.9281H117.088C117.462 20.9834 118.284 20.5419 119.649 20.5419C121.174 20.5419 121.714 21.2235 121.324 22.6896L121.275 22.8704H119.708C115.289 22.8704 112.904 23.6732 112.222 26.2261C111.693 28.1931 112.935 29.4812 115.566 29.4812C117.181 29.5089 118.747 28.9274 119.953 27.8524L119.67 29.2386Z" fill="white"/>
<path fill-rule="evenodd" clip-rule="evenodd" d="M125.196 29.2396H128.19L129.574 24.0768C129.809 23.1864 130.326 22.3961 131.048 21.8238C131.77 21.2515 132.657 20.9281 133.577 20.9017C135.325 20.9017 135.935 21.9344 135.384 23.9762L133.975 29.2396H136.907L138.565 23.0443C139.264 20.4345 137.94 18.9271 135.028 18.9271C134.143 18.9031 133.265 19.0702 132.451 19.4168C131.637 19.7633 130.907 20.2812 130.312 20.9353L130.67 19.149H127.715C127.41 20.7357 127.207 21.72 127.106 22.1021L125.196 29.2319" fill="white"/>
<path fill-rule="evenodd" clip-rule="evenodd" d="M139.54 29.2372H142.454L143.913 23.7956L147.836 29.2372H151.833L147.413 23.473L153.409 19.1569H149.653L144.068 23.2148L146.328 14.7764H143.414L139.54 29.2372Z" fill="white"/>
</g>
</g>
</g>
<defs>
<clipPath id="clip0_1_19666">
<rect width="147.09" height="30" fill="white" transform="translate(6.95781 0.015625)"/>
</clipPath>
<clipPath id="clip1_1_19666">
<rect width="147.09" height="30" fill="white" transform="translate(6.95781 0.015625)"/>
</clipPath>
<clipPath id="clip2_1_19666">
<rect width="147.09" height="29.9986" fill="white" transform="translate(6.95781 0.0166016)"/>
</clipPath>
</defs>
</svg>
