<svg width="115" height="31" viewBox="0 0 115 31" fill="none" xmlns="http://www.w3.org/2000/svg">
<g clip-path="url(#clip0_1_19684)">
<g clip-path="url(#clip1_1_19684)">
<g clip-path="url(#clip2_1_19684)">
<path fill-rule="evenodd" clip-rule="evenodd" d="M17.4407 30.0156C7.83708 30.0156 0.0078125 23.2839 0.0078125 15.0156C0.0078125 6.74734 7.83708 0.015625 17.4407 0.015625C27.0444 0.015625 34.892 6.74734 34.892 15.0156C34.892 23.2839 27.0444 30.0156 17.4407 30.0156Z" fill="#004A8F"/>
<path fill-rule="evenodd" clip-rule="evenodd" d="M28.6362 16.4785L30.5753 16.5699C29.4228 24.6553 21.7582 25.2407 17.8984 17.4114L18.3923 16.5699C22.3984 19.1675 27.0814 20.137 28.6362 16.4785Z" fill="white"/>
<path fill-rule="evenodd" clip-rule="evenodd" d="M15.4446 4.77197L19.3227 3.50977L19.4873 25.5158L15.2617 26.9427L15.4446 4.77197Z" fill="#ED1C24"/>
<path fill-rule="evenodd" clip-rule="evenodd" d="M28.728 13.5702H30.5572C29.8621 9.91168 27.9963 7.55193 24.3743 7.22266C21.356 7.22266 18.8865 9.05193 16.6731 12.4726C15.2829 14.5946 13.0146 17.9604 10.3255 18.3263C9.68256 18.5175 8.9968 18.5101 8.35812 18.3049C7.71945 18.0997 7.15765 17.7064 6.74635 17.1764C6.33506 16.6465 6.09344 16.0046 6.05317 15.335C6.0129 14.6654 6.17585 13.9993 6.52067 13.4238C7.08026 12.7079 7.81608 12.1495 8.65616 11.8032C9.49625 11.457 10.4118 11.3346 11.3133 11.4482C12.7313 11.5551 14.1068 11.9802 15.3377 12.6921V9.56412C14.6893 8.92506 13.9715 8.36057 13.1975 7.8812C12.149 7.32596 10.9463 7.13302 9.77677 7.33242C4.83774 8.41168 3.9414 12.4543 4.85603 17.8324C6.77676 24.0519 12.7585 24.5275 16.1975 20.5397C18.5572 17.7043 24.4109 8.19217 28.728 13.5885V13.5702Z" fill="white"/>
<path fill-rule="evenodd" clip-rule="evenodd" d="M55.0658 18.9114C55.7519 18.991 56.447 18.9253 57.106 18.7185C57.765 18.5118 58.3731 18.1686 58.8908 17.7114C59.4084 17.2541 59.824 16.693 60.1105 16.0646C60.397 15.4362 60.548 14.7544 60.5536 14.0638C60.5363 13.3746 60.3779 12.6962 60.0884 12.0705C59.7988 11.4448 59.3842 10.885 58.87 10.4257C58.3558 9.96641 57.753 9.61726 57.0988 9.39981C56.4445 9.18237 55.7526 9.10123 55.0658 9.1614C54.3714 9.10077 53.672 9.18458 53.0116 9.40755C52.3512 9.63052 51.7442 9.98781 51.2286 10.4569C50.7131 10.926 50.3003 11.4968 50.0162 12.1333C49.7322 12.7698 49.583 13.4583 49.578 14.1553C49.5837 14.8459 49.7347 15.5276 50.0212 16.1561C50.3077 16.7845 50.7233 17.3456 51.2409 17.8028C51.7585 18.2601 52.3666 18.6033 53.0256 18.81C53.6846 19.0167 54.3798 19.0824 55.0658 19.0028V18.9114ZM55.0658 16.6431C53.6207 16.6431 52.9805 15.3626 52.9805 14.0638C52.9805 12.765 53.6207 11.3382 55.0658 11.3382C56.5109 11.3382 57.1695 12.6187 57.1695 14.0638C57.1695 15.5089 56.5109 16.6431 55.0658 16.6431ZM60.2244 11.6492H62.0536V15.3077C62.0536 17.5577 62.8585 18.8565 65.7122 18.8565C66.517 18.8565 67.0109 18.6918 67.6512 18.6918L67.4866 16.5882C67.1573 16.5882 66.8463 16.7528 66.517 16.7528C65.5475 16.7528 65.2366 16.1126 65.2366 14.9236V11.6492H67.4866V9.3992H65.2183V6.17969L62.2 7.33213V9.3992H60.2244V11.6492ZM78.6634 18.7467H81.9012V14.0638H82.0475L84.6268 18.7467H88.5049L85.0292 13.5882L88.2488 9.3992H84.7L82.1207 13.2589H81.9744V6.17969L78.6634 7.33213V18.765V18.7467ZM40.9805 18.7467H44.2731V14.0638L46.8524 18.7467H50.7122L47.328 13.5882L50.5475 9.3992H47.017L44.2731 13.2589V6.17969L41.0536 7.1492V18.7467H40.9805ZM77.5658 18.7467C77.4463 17.9969 77.4095 17.2363 77.4561 16.4784V12.9479C77.4561 10.0394 75.3707 9.1614 72.9378 9.1614C71.6863 9.13176 70.4418 9.35577 69.2792 9.81994V11.9784C70.2322 11.5253 71.2794 11.3058 72.3341 11.3382C73.4683 11.3382 74.4378 11.6492 74.4378 12.9479C73.9644 12.8027 73.4682 12.7469 72.9744 12.7833C71.1451 12.7833 67.9987 13.1126 67.9987 16.0028C67.9987 18.1065 69.828 18.9114 71.5292 18.9114C72.1394 18.9473 72.7478 18.8165 73.2892 18.5329C73.8306 18.2493 74.2846 17.8237 74.6024 17.3016C74.6024 17.7772 74.7488 18.2528 74.7488 18.7467H77.5658ZM71.017 15.6918C71.017 14.8687 71.9866 14.5577 73.1024 14.5577H74.4012C74.432 15.1108 74.2471 15.6542 73.8855 16.0738C73.5239 16.4934 73.0137 16.7565 72.4622 16.8077C71.6573 16.8077 71.017 16.3321 71.017 15.6918Z" fill="#ED1C24"/>
<path fill-rule="evenodd" clip-rule="evenodd" d="M90.3904 6.85747C90.1608 6.72949 89.9031 6.66036 89.6404 6.65625C89.3834 6.6603 89.1316 6.72954 88.9086 6.85747C88.6614 6.97755 88.4617 7.17727 88.3416 7.42454C88.2099 7.65257 88.1406 7.91123 88.1406 8.17454C88.1406 8.43784 88.2099 8.69651 88.3416 8.92454C88.465 9.16323 88.6558 9.36041 88.8904 9.49161C89.1199 9.61958 89.3776 9.68871 89.6404 9.69283C89.9089 9.68873 90.1725 9.61969 90.4086 9.49161C90.6432 9.36041 90.834 9.16323 90.9574 8.92454C91.0891 8.69651 91.1584 8.43784 91.1584 8.17454C91.1584 7.91123 91.0891 7.65257 90.9574 7.42454C90.833 7.18043 90.6345 6.98194 90.3904 6.85747ZM89.0184 7.07698C89.2089 6.97153 89.4226 6.91496 89.6404 6.91234C89.8584 6.91258 90.0727 6.9693 90.2623 7.07698C90.462 7.17981 90.6273 7.33876 90.7379 7.5343C90.8435 7.73137 90.8999 7.95099 90.9025 8.17454C90.9023 8.3926 90.8456 8.60688 90.7379 8.79649C90.6351 8.99621 90.4761 9.16152 90.2806 9.2721C90.0844 9.37977 89.8642 9.43638 89.6404 9.43673C89.4171 9.4366 89.1979 9.37727 89.0051 9.2648C88.8123 9.15232 88.6528 8.99073 88.5428 8.79649C88.4351 8.60688 88.3784 8.3926 88.3782 8.17454C88.3789 7.94833 88.4422 7.72674 88.5611 7.5343C88.6641 7.33938 88.8235 7.18002 89.0184 7.07698ZM89.0157 7.34269V9.02585H89.327V8.32319H89.3901C89.4617 8.32319 89.5139 8.3297 89.5468 8.34271C89.5798 8.35496 89.611 8.3783 89.6404 8.41275C89.6699 8.44643 89.7246 8.52871 89.8045 8.6596L90.0296 9.02585H90.4019L90.2136 8.69749C90.1393 8.5666 90.0801 8.47551 90.0359 8.42423C89.9924 8.37295 89.937 8.32587 89.8697 8.28301C90.005 8.26158 90.1067 8.20991 90.1747 8.12801C90.2427 8.04535 90.2767 7.94086 90.2767 7.81457C90.2767 7.71506 90.2543 7.62666 90.2094 7.54935C90.1645 7.47204 90.1046 7.41846 90.0296 7.38861C89.9553 7.35799 89.8357 7.34269 89.6709 7.34269H89.0157ZM89.5574 8.05453H89.327V7.62742H89.57C89.6962 7.62742 89.7719 7.62934 89.7972 7.63316C89.8476 7.64235 89.8865 7.66455 89.9139 7.69976C89.9419 7.7342 89.956 7.77974 89.956 7.83638C89.956 7.8869 89.9454 7.929 89.9244 7.96268C89.9034 7.99636 89.8743 8.02009 89.8371 8.03386C89.8 8.04764 89.7067 8.05453 89.5574 8.05453Z" fill="#004A8F"/>
<path d="M45.1003 27.4553H44.2406L42.082 24.9309L41.9357 24.748V27.4553H41.332V21.9675H41.9357V24.5285L42.082 24.3456L44.1674 21.9675H44.9357L42.521 24.6382L45.1003 27.4553ZM45.393 25.626C45.3609 25.0529 45.5509 24.4895 45.9235 24.0529C46.1165 23.8592 46.3483 23.7086 46.6037 23.6109C46.859 23.5131 47.1322 23.4705 47.4052 23.4858C47.6595 23.4768 47.9128 23.521 48.149 23.6155C48.3853 23.71 48.5992 23.8527 48.7771 24.0346C49.1265 24.4607 49.3028 25.0027 49.271 25.5529C49.3023 26.1093 49.1115 26.6553 48.7406 27.0712C48.5597 27.2667 48.3383 27.4205 48.0918 27.5216C47.8454 27.6227 47.5798 27.6687 47.3137 27.6565C47.0551 27.6657 46.7974 27.62 46.5577 27.5222C46.3181 27.4244 46.1019 27.2769 45.9235 27.0895C45.561 26.6904 45.3704 26.1646 45.393 25.626ZM45.9967 25.626C45.9795 26.0356 46.1093 26.4378 46.3625 26.7602C46.4876 26.8967 46.6405 27.0048 46.8109 27.0774C46.9813 27.15 47.1652 27.1853 47.3503 27.1809C47.5334 27.1903 47.7162 27.1572 47.8844 27.0842C48.0526 27.0112 48.2016 26.9003 48.3198 26.7602C48.5723 26.4312 48.6958 26.0214 48.6674 25.6077C48.6891 25.1892 48.5664 24.7759 48.3198 24.437C48.2007 24.2991 48.051 24.1909 47.8827 24.121C47.7144 24.0512 47.5321 24.0216 47.3503 24.0346C47.1652 24.0302 46.9813 24.0655 46.8109 24.1381C46.6405 24.2107 46.4876 24.3188 46.3625 24.4553C46.1095 24.7918 45.9802 25.2053 45.9967 25.626ZM52.1064 27.4553C51.9333 27.5509 51.7367 27.5953 51.5393 27.5834C50.8442 27.5834 50.5149 27.1992 50.5149 26.4309V24.0163H49.8198V23.5041H50.5149V22.5346L51.1003 22.3334V23.5041H52.1064V24.0163H51.1003V26.3029C51.0829 26.5088 51.1344 26.7147 51.2467 26.8882C51.3051 26.949 51.3768 26.9954 51.4561 27.0239C51.5354 27.0525 51.6202 27.0624 51.704 27.0529C51.8494 27.0617 51.9929 27.0161 52.1064 26.9248V27.4553ZM53.0576 23.7968C53.4546 23.5386 53.9196 23.4049 54.393 23.4126C55.3076 23.4126 55.7832 23.9065 55.7832 24.876V27.4553H55.1796V26.8334C55.0637 27.0574 54.8876 27.2446 54.6711 27.3739C54.4545 27.5032 54.2061 27.5694 53.954 27.5651C53.7843 27.5758 53.6142 27.5522 53.4539 27.4956C53.2936 27.4391 53.1464 27.3507 53.021 27.2358C52.91 27.1305 52.8231 27.0023 52.7663 26.8603C52.7095 26.7182 52.684 26.5655 52.6918 26.4126C52.6918 25.6809 53.1125 25.2419 53.9906 25.1138L55.1979 24.9492C55.1979 24.2541 54.9235 23.9065 54.3564 23.9065C53.8817 23.8987 53.4225 24.0758 53.0759 24.4004V23.7968H53.0576ZM54.1918 25.626C53.9403 25.6431 53.6991 25.732 53.4967 25.8821C53.3668 26.0211 53.2945 26.2041 53.2945 26.3943C53.2945 26.5845 53.3668 26.7676 53.4967 26.9065C53.6562 27.0362 53.8585 27.1014 54.0637 27.0895C54.2196 27.0939 54.3744 27.0633 54.5169 27C54.6593 26.9367 54.7858 26.8422 54.8869 26.7236C55.1059 26.4918 55.2243 26.1827 55.2162 25.8638V25.4614L54.2284 25.5895L54.1918 25.626ZM60.2467 27.4553H59.3869L57.5576 25.626V27.4553H56.954V21.6016H57.5576V25.2602L59.2588 23.4309H60.0454L58.2162 25.3516L60.2649 27.4553H60.2467ZM67.8564 27.4553V23.7968C67.8564 23.5041 67.8564 23.1565 67.8564 22.7175C67.8261 22.901 67.7707 23.0795 67.6918 23.248L65.8625 27.4553H65.5881L63.6491 23.1748C63.5821 22.9958 63.5271 22.8124 63.4845 22.626C63.5093 22.9793 63.5093 23.3338 63.4845 23.687V27.4553H62.8991V21.9675H63.6857L65.515 25.8821C65.6213 26.0951 65.713 26.3152 65.7893 26.5407L66.0637 25.8638L67.6918 21.9675H68.4601V27.4553H67.8564ZM69.9418 23.7968C70.3453 23.5382 70.8162 23.4045 71.2954 23.4126C72.2101 23.4126 72.6857 23.9065 72.6857 24.876V27.4553H72.082V26.8334C71.9692 27.0559 71.7964 27.2425 71.583 27.3718C71.3696 27.5011 71.1242 27.5681 70.8747 27.5651C70.705 27.5758 70.535 27.5522 70.3746 27.4956C70.2143 27.4391 70.0671 27.3507 69.9418 27.2358C69.8244 27.1346 69.7319 27.0077 69.6716 26.8649C69.6113 26.7221 69.5848 26.5673 69.5942 26.4126C69.5942 25.6809 70.0332 25.2419 70.9113 25.1138L72.1186 24.9492C72.1186 24.2541 71.8259 23.9065 71.2771 23.9065C70.7984 23.9068 70.3363 24.0825 69.9784 24.4004V23.7968H69.9418ZM71.0942 25.626C70.8381 25.6473 70.592 25.7356 70.3808 25.8821C70.3094 25.9535 70.2545 26.0396 70.2197 26.1343C70.185 26.2291 70.1713 26.3303 70.1796 26.4309C70.1767 26.5218 70.1951 26.6121 70.2332 26.6946C70.2713 26.7772 70.3281 26.8497 70.3991 26.9065C70.5586 27.0362 70.7609 27.1014 70.9662 27.0895C71.1131 27.0931 71.2591 27.0657 71.3947 27.0089C71.5302 26.9522 71.6523 26.8674 71.7528 26.7602C71.9718 26.5283 72.0901 26.2193 72.082 25.9004V25.498L71.0942 25.626ZM77.1491 27.4553H76.5637V25.187C76.5637 24.3456 76.2528 23.9248 75.6125 23.9248C75.4601 23.9255 75.3096 23.9585 75.1709 24.0215C75.0322 24.0846 74.9084 24.1763 74.8076 24.2907C74.5874 24.5498 74.476 24.8841 74.4967 25.2236V27.4553H73.9113V21.6016H74.5149V24.1626C74.6405 23.9294 74.8285 23.7357 75.0579 23.6032C75.2872 23.4708 75.549 23.4048 75.8137 23.4126C76.7101 23.4126 77.1491 23.9431 77.1491 25.0407V27.4553ZM78.3015 22.059C78.2992 21.9509 78.3385 21.8461 78.4113 21.7663C78.4858 21.6968 78.5838 21.6582 78.6857 21.6582C78.7875 21.6582 78.8856 21.6968 78.9601 21.7663C79.0012 21.803 79.0339 21.8482 79.056 21.8987C79.0781 21.9492 79.089 22.0039 79.0881 22.059C79.0903 22.1116 79.0798 22.164 79.0575 22.2118C79.0352 22.2595 79.0018 22.3012 78.9601 22.3334C78.9245 22.3697 78.8817 22.3983 78.8345 22.4172C78.7872 22.4361 78.7365 22.4449 78.6857 22.4431C78.6338 22.4489 78.5813 22.443 78.5321 22.4257C78.4828 22.4085 78.4381 22.3804 78.4012 22.3435C78.3643 22.3066 78.3362 22.2618 78.3189 22.2126C78.3017 22.1633 78.2957 22.1108 78.3015 22.059ZM78.3015 27.4553V23.5041H78.9052V27.4553H78.3015ZM83.4784 27.4553H82.8747V25.2053C82.8747 24.3456 82.5637 23.9248 81.9418 23.9248C81.7863 23.9229 81.6323 23.9546 81.4902 24.0178C81.3481 24.0809 81.2214 24.174 81.1186 24.2907C80.909 24.5486 80.7986 24.8731 80.8076 25.2053V27.4553H80.204V23.5041H80.8076V24.1626C80.9332 23.9294 81.1212 23.7357 81.3505 23.6032C81.5799 23.4708 81.8417 23.4048 82.1064 23.4126C82.2949 23.4031 82.4831 23.4359 82.6572 23.5087C82.8314 23.5815 82.9869 23.6925 83.1125 23.8334C83.3715 24.1871 83.4948 24.622 83.4601 25.059V27.4553H83.4784ZM88.0515 27.4553H87.4479V26.7785C87.3168 27.0258 87.1184 27.2309 86.8756 27.3701C86.6328 27.5093 86.3556 27.5769 86.0759 27.5651C85.8485 27.5737 85.6223 27.5285 85.4157 27.4331C85.2091 27.3377 85.0279 27.1949 84.8869 27.0163C84.5677 26.6042 84.4056 26.0919 84.4296 25.5712C84.3962 25.001 84.5791 24.4392 84.9418 23.998C85.0989 23.8014 85.2998 23.6444 85.5286 23.5396C85.7573 23.4348 86.0074 23.385 86.2589 23.3943C86.4996 23.3769 86.7401 23.4299 86.9513 23.5468C87.1624 23.6638 87.3349 23.8396 87.4479 24.0529V21.6016H88.0515V27.4553ZM87.4479 25.0773C87.4531 24.7644 87.3348 24.462 87.1186 24.2358C87.014 24.129 86.8886 24.0447 86.7502 23.988C86.6118 23.9314 86.4632 23.9037 86.3137 23.9065C86.1318 23.8993 85.9507 23.9354 85.7854 24.0117C85.62 24.088 85.4751 24.2024 85.3625 24.3456C85.1274 24.696 85.0119 25.1131 85.0332 25.5346C85.0128 25.9275 85.1291 26.3154 85.3625 26.6321C85.4607 26.767 85.5904 26.8758 85.7402 26.9491C85.8901 27.0224 86.0555 27.058 86.2223 27.0529C86.39 27.0601 86.5571 27.0273 86.7097 26.9574C86.8624 26.8874 86.9963 26.7822 87.1003 26.6504C87.3377 26.3847 87.4623 26.037 87.4479 25.6809V25.0773ZM91.4723 24.126C91.3333 24.0297 91.1652 23.9844 90.9967 23.998C90.8553 23.9964 90.7162 24.033 90.5939 24.1038C90.4715 24.1746 90.3706 24.2771 90.3015 24.4004C90.1074 24.7125 90.0118 25.0759 90.0271 25.4431V27.4553H89.4235V23.5041H90.0271V24.3273C90.1075 24.0748 90.2526 23.8478 90.4479 23.6687C90.6206 23.5185 90.8409 23.4343 91.0698 23.4309C91.1968 23.4075 91.327 23.4075 91.454 23.4309V24.0712L91.4723 24.126ZM92.2589 23.7968C92.6558 23.5386 93.1208 23.4049 93.5942 23.4126C94.5271 23.4126 94.9845 23.9065 94.9845 24.876V27.4553H94.3991V26.8334C94.285 27.0588 94.1092 27.2472 93.8923 27.3767C93.6753 27.5062 93.4261 27.5715 93.1735 27.5651C92.8315 27.5807 92.4969 27.4626 92.2406 27.2358C92.1296 27.1305 92.0427 27.0023 91.9858 26.8603C91.929 26.7182 91.9036 26.5655 91.9113 26.4126C91.9113 25.6809 92.3503 25.2419 93.2101 25.1138L94.4174 24.9492C94.4174 24.2541 94.143 23.9065 93.5942 23.9065C93.1155 23.9068 92.6534 24.0825 92.2954 24.4004V23.7968H92.2589ZM93.4113 25.626C93.1535 25.6397 92.9054 25.7287 92.6979 25.8821C92.6265 25.9535 92.5715 26.0396 92.5368 26.1343C92.502 26.2291 92.4883 26.3303 92.4967 26.4309C92.4938 26.5218 92.5121 26.6121 92.5502 26.6946C92.5884 26.7772 92.6452 26.8497 92.7162 26.9065C92.8701 27.0334 93.0657 27.0986 93.265 27.0895C93.4146 27.0934 93.5635 27.0662 93.702 27.0095C93.8406 26.9528 93.9658 26.8679 94.0698 26.7602C94.2758 26.5216 94.3865 26.2155 94.3808 25.9004V25.498L93.4113 25.626ZM98.1308 27.4553V21.9675H99.6857C100.088 21.9447 100.484 22.0682 100.802 22.3151C100.937 22.4294 101.045 22.5725 101.118 22.7339C101.19 22.8953 101.226 23.071 101.222 23.248C101.237 23.5384 101.146 23.8242 100.966 24.0529C100.798 24.2959 100.553 24.476 100.271 24.5651C100.614 24.5814 100.936 24.7327 101.168 24.9858C101.394 25.2422 101.513 25.5768 101.497 25.9187C101.505 26.1354 101.465 26.3512 101.38 26.5505C101.294 26.7498 101.166 26.9277 101.003 27.0712C100.639 27.3723 100.176 27.5286 99.704 27.5102L98.1308 27.4553ZM98.7893 22.4797V24.309H99.4662C99.7737 24.3253 100.078 24.2348 100.326 24.0529C100.432 23.9602 100.515 23.8444 100.569 23.7143C100.623 23.5842 100.647 23.4434 100.637 23.3029C100.637 22.7541 100.29 22.4797 99.5576 22.4797H98.7893ZM98.7893 24.876V26.9065H99.6857C100.014 26.9259 100.338 26.8287 100.601 26.6321C100.709 26.5404 100.795 26.4252 100.852 26.2952C100.909 26.1652 100.936 26.024 100.93 25.8821C100.93 25.2053 100.454 24.876 99.5393 24.876H98.7893ZM102.668 23.7968C103.071 23.5382 103.542 23.4045 104.021 23.4126C104.936 23.4126 105.393 23.9065 105.393 24.876V27.4553H104.808V26.8334C104.695 27.0559 104.522 27.2425 104.309 27.3718C104.095 27.5011 103.85 27.5681 103.601 27.5651C103.431 27.5758 103.261 27.5522 103.1 27.4956C102.94 27.4391 102.793 27.3507 102.668 27.2358C102.55 27.1346 102.458 27.0077 102.397 26.8649C102.337 26.7221 102.311 26.5673 102.32 26.4126C102.32 25.6809 102.759 25.2419 103.637 25.1138L104.826 24.9492C104.826 24.2541 104.552 23.9065 104.003 23.9065C103.524 23.9068 103.062 24.0825 102.704 24.4004V23.7968H102.668ZM103.82 25.626C103.564 25.6473 103.318 25.7356 103.107 25.8821C103.035 25.9535 102.98 26.0396 102.946 26.1343C102.911 26.2291 102.897 26.3303 102.905 26.4309C102.903 26.5218 102.921 26.6121 102.959 26.6946C102.997 26.7772 103.054 26.8497 103.125 26.9065C103.284 27.0362 103.487 27.1014 103.692 27.0895C103.839 27.0931 103.985 27.0657 104.12 27.0089C104.256 26.9522 104.378 26.8674 104.479 26.7602C104.585 26.6445 104.667 26.509 104.72 26.3614C104.773 26.2138 104.797 26.0572 104.79 25.9004V25.498L103.82 25.626ZM109.875 27.4553H109.271V25.2053C109.271 24.3456 108.96 23.9248 108.338 23.9248C108.185 23.9218 108.034 23.9531 107.894 24.0164C107.755 24.0798 107.632 24.1735 107.533 24.2907C107.309 24.5414 107.191 24.8693 107.204 25.2053V27.4553H106.619V23.5041H107.204V24.1626C107.334 23.9293 107.526 23.736 107.758 23.6038C107.99 23.4716 108.254 23.4055 108.521 23.4126C108.707 23.4004 108.894 23.4321 109.065 23.5051C109.237 23.5782 109.389 23.6907 109.509 23.8334C109.768 24.1871 109.891 24.622 109.857 25.059V27.4553H109.875ZM114.357 27.4553H113.424L111.594 25.626V27.4553H110.991V21.6016H111.594V25.2602L113.296 23.4309H114.082L112.253 25.3516L114.357 27.4553Z" fill="white"/>
</g>
</g>
</g>
<defs>
<clipPath id="clip0_1_19684">
<rect width="115" height="30" fill="white" transform="translate(0.0078125 0.015625)"/>
</clipPath>
<clipPath id="clip1_1_19684">
<rect width="115" height="30" fill="white" transform="translate(0.0078125 0.015625)"/>
</clipPath>
<clipPath id="clip2_1_19684">
<rect width="115" height="30" fill="white" transform="translate(0.0078125 0.015625)"/>
</clipPath>
</defs>
</svg>
