<svg width="39" height="31" viewBox="0 0 39 31" fill="none" xmlns="http://www.w3.org/2000/svg">
<g clip-path="url(#clip0_1_19697)">
<g clip-path="url(#clip1_1_19697)">
<path d="M37.8041 29.605V29.6821H37.876C37.8895 29.6823 37.9028 29.6789 37.9146 29.6723C37.9193 29.669 37.923 29.6646 37.9256 29.6595C37.9281 29.6543 37.9293 29.6486 37.929 29.6429C37.9293 29.6373 37.9281 29.6317 37.9255 29.6266C37.923 29.6216 37.9192 29.6173 37.9146 29.6142C37.903 29.6072 37.8896 29.6037 37.876 29.6042L37.8041 29.605ZM37.8768 29.5504C37.9076 29.5486 37.9381 29.5575 37.9632 29.5756C37.9732 29.5838 37.9811 29.5943 37.9864 29.6061C37.9917 29.618 37.9941 29.6309 37.9934 29.6439C37.9939 29.655 37.9919 29.6661 37.9878 29.6765C37.9836 29.6868 37.9772 29.6961 37.9691 29.7038C37.9498 29.7206 37.9256 29.7307 37.9001 29.7325L37.9965 29.8424H37.9223L37.8336 29.7332H37.8049V29.8424H37.7428V29.5506H37.8778L37.8768 29.5504ZM37.8575 29.9431C37.8901 29.9434 37.9223 29.9367 37.9522 29.9237C37.9809 29.9113 38.0071 29.8937 38.0293 29.8715C38.0515 29.8494 38.0692 29.8231 38.0815 29.7943C38.1068 29.7332 38.1068 29.6646 38.0815 29.6035C38.069 29.5747 38.0513 29.5486 38.0293 29.5264C38.0071 29.5042 37.9809 29.4865 37.9522 29.4741C37.9221 29.4618 37.89 29.4557 37.8575 29.4561C37.8245 29.4558 37.7918 29.4618 37.7611 29.4741C37.7317 29.4863 37.7049 29.504 37.6823 29.5264C37.6482 29.5613 37.6251 29.6057 37.616 29.6537C37.6068 29.7017 37.612 29.7512 37.6308 29.7962C37.6425 29.8252 37.66 29.8514 37.6823 29.8734C37.7049 29.8957 37.7317 29.9134 37.7611 29.9256C37.7916 29.9386 37.8244 29.9453 37.8575 29.945V29.9431ZM37.8575 29.3859C37.9422 29.3858 38.0236 29.419 38.084 29.4783C38.1132 29.5069 38.1364 29.5409 38.1523 29.5784C38.1687 29.6169 38.1772 29.6584 38.1772 29.7003C38.1772 29.7423 38.1687 29.7837 38.1523 29.8223C38.136 29.8596 38.1128 29.8935 38.084 29.9223C38.0544 29.9507 38.02 29.9736 37.9824 29.9899C37.9429 30.0067 37.9004 30.0151 37.8575 30.0149C37.8141 30.0152 37.7711 30.0067 37.731 29.9899C37.693 29.974 37.6583 29.951 37.6287 29.9223C37.5999 29.8925 37.577 29.8575 37.5614 29.819C37.5449 29.7806 37.5364 29.739 37.5364 29.6971C37.5364 29.6551 37.5449 29.6137 37.5614 29.5751C37.5773 29.5376 37.6005 29.5036 37.6296 29.4751C37.6588 29.4459 37.6937 29.4229 37.732 29.4076C37.772 29.3909 37.8151 29.3822 37.8585 29.3825L37.8575 29.3859ZM8.33873 28.2595C8.33873 27.7033 8.70309 27.2463 9.2986 27.2463C9.86769 27.2463 10.2517 27.6836 10.2517 28.2595C10.2517 28.8353 9.86769 29.2726 9.2986 29.2726C8.70309 29.2726 8.33873 28.8157 8.33873 28.2595ZM10.9004 28.2595V26.6767H10.2124V27.0623C9.99415 26.7774 9.66315 26.5986 9.213 26.5986C8.3262 26.5986 7.63026 27.2942 7.63026 28.2603C7.63026 29.2263 8.32582 29.9218 9.213 29.9218C9.66295 29.9218 9.99415 29.7429 10.2124 29.4582V29.8424H10.8996L10.9004 28.2595ZM34.1484 28.2595C34.1484 27.7033 34.5127 27.2463 35.1084 27.2463C35.6781 27.2463 36.0615 27.6836 36.0615 28.2595C36.0615 28.8353 35.6781 29.2726 35.1084 29.2726C34.5129 29.2726 34.1484 28.8157 34.1484 28.2595ZM36.7108 28.2595V25.4062H36.0222V27.0623C35.804 26.7774 35.473 26.5986 35.0228 26.5986C34.136 26.5986 33.4401 27.2942 33.4401 28.2603C33.4401 29.2263 34.1357 29.9218 35.0228 29.9218C35.473 29.9218 35.804 29.7429 36.0222 29.4582V29.8424H36.7108V28.2595ZM19.4399 27.2138C19.8833 27.2138 20.168 27.4918 20.2407 27.9813H18.599C18.6724 27.5244 18.9496 27.2138 19.4399 27.2138ZM19.4538 26.5968C18.5265 26.5968 17.8778 27.2716 17.8778 28.2584C17.8778 29.2646 18.5525 29.92 19.4998 29.92C19.9764 29.92 20.4128 29.8012 20.7969 29.4767L20.4597 28.9667C20.1944 29.1788 19.8567 29.2978 19.5392 29.2978C19.0958 29.2978 18.6921 29.0925 18.5928 28.5228H20.9422C20.949 28.4372 20.9559 28.3508 20.9559 28.2582C20.949 27.2718 20.3394 26.5968 19.4538 26.5968ZM27.7604 28.2582C27.7604 27.7021 28.1247 27.2453 28.7202 27.2453C29.2893 27.2453 29.6733 27.6824 29.6733 28.2582C29.6733 28.8341 29.2893 29.2714 28.7202 29.2714C28.1247 29.2714 27.7604 28.8144 27.7604 28.2582ZM30.3218 28.2582V26.6767H29.6342V27.0623C29.4152 26.7774 29.085 26.5986 28.6348 26.5986C27.748 26.5986 27.0521 27.2942 27.0521 28.2603C27.0521 29.2263 27.7476 29.9218 28.6348 29.9218C29.085 29.9218 29.4152 29.7429 29.6342 29.4582V29.8424H30.322V28.2595L30.3218 28.2582ZM23.8748 28.2582C23.8748 29.2181 24.543 29.9198 25.5628 29.9198C26.0394 29.9198 26.3569 29.8138 26.7002 29.5425L26.3698 28.9865C26.1115 29.1721 25.8402 29.2714 25.5409 29.2714C24.9916 29.2647 24.5877 28.8674 24.5877 28.2582C24.5877 27.649 24.9916 27.2522 25.5409 27.2453C25.8395 27.2453 26.1107 27.3444 26.3698 27.5301L26.7002 26.9739C26.3563 26.7027 26.0388 26.5966 25.5628 26.5966C24.543 26.5966 23.8748 27.2982 23.8748 28.2582ZM32.7447 26.5966C32.3478 26.5966 32.0893 26.7824 31.9106 27.0604V26.6767H31.2287V29.8407H31.9175V28.0671C31.9175 27.5435 32.1425 27.2526 32.5922 27.2526C32.7395 27.2505 32.8858 27.2774 33.0225 27.3321L33.2346 26.6837C33.0823 26.6237 32.8841 26.5966 32.7447 26.5966ZM14.302 26.9282C13.971 26.71 13.5149 26.5972 13.0118 26.5972C12.2102 26.5972 11.6941 26.9814 11.6941 27.6101C11.6941 28.126 12.0783 28.4444 12.7858 28.5436L13.1108 28.5898C13.4881 28.6428 13.6662 28.7422 13.6662 28.9209C13.6662 29.1656 13.4156 29.305 12.945 29.305C12.4685 29.305 12.1246 29.1528 11.8927 28.9741L11.5694 29.5105C11.9466 29.7885 12.4232 29.9212 12.9393 29.9212C13.8531 29.9212 14.3826 29.491 14.3826 28.8885C14.3826 28.3324 13.9658 28.0415 13.2772 27.9422L12.953 27.8951C12.6551 27.8565 12.4164 27.7966 12.4164 27.5846C12.4164 27.3532 12.6414 27.2139 13.0189 27.2139C13.4228 27.2139 13.8137 27.3663 14.0054 27.4853L14.3032 26.9291L14.302 26.9282ZM23.1798 26.5979C22.7829 26.5979 22.5244 26.7835 22.3465 27.0615V26.6767H21.6646V29.8407H22.3526V28.0671C22.3526 27.5435 22.5776 27.2526 23.0274 27.2526C23.1746 27.2505 23.3209 27.2774 23.4577 27.3321L23.6697 26.6837C23.5174 26.6237 23.3191 26.5979 23.1798 26.5979ZM17.3085 26.6767H16.1834V25.7169H15.4878V26.6767H14.8461V27.3055H15.4878V28.749C15.4878 29.4831 15.7728 29.9202 16.5867 29.9202C16.8853 29.9202 17.2292 29.8277 17.4475 29.6756L17.2487 29.0865C17.0434 29.2055 16.8184 29.2654 16.6395 29.2654C16.2956 29.2654 16.1834 29.0533 16.1834 28.7358V27.3062H17.3085V26.6767ZM7.02184 29.8414V27.8557C7.02184 27.1079 6.54528 26.6047 5.77704 26.598C5.37317 26.5912 4.95656 26.7169 4.66488 27.1609C4.44666 26.8101 4.10273 26.598 3.61924 26.598C3.28129 26.598 2.95105 26.6974 2.69253 27.0679V26.6767H2.00391V29.8407H2.69793V28.0863C2.69793 27.537 3.00252 27.2453 3.47291 27.2453C3.92981 27.2453 4.16095 27.543 4.16095 28.0793V29.8403H4.85651V28.086C4.85651 27.5367 5.17402 27.2449 5.63072 27.2449C6.10053 27.2449 6.32474 27.5427 6.32474 28.079V29.8398L7.02184 29.8414Z" fill="white"/>
<path d="M38.1956 19.3181V18.8555H38.0751L37.9357 19.173L37.7971 18.8555H37.6762V19.3181H37.7618V18.9696L37.8922 19.2703H37.9808L38.1112 18.9688V19.3181H38.1956ZM37.4312 19.3181V18.9347H37.5854V18.8566H37.1914V18.9347H37.3456V19.3181H37.4312Z" fill="#F79410"/>
<path d="M24.501 21.301H14.0742V2.5625H24.5012L24.501 21.301Z" fill="#FF5F00"/>
<path d="M14.7364 11.9328C14.7364 8.13177 16.5161 4.74574 19.2876 2.56364C17.1897 0.909467 14.595 0.0116906 11.9235 0.015638C5.34248 0.015638 0.0078125 5.35108 0.0078125 11.9328C0.0078125 18.5146 5.34248 23.85 11.9235 23.85C14.5951 23.854 17.1899 22.9562 19.2877 21.302C16.5165 19.1203 14.7364 15.7341 14.7364 11.9328Z" fill="#EB001B"/>
<path d="M38.57 11.9328C38.57 18.5146 33.2353 23.85 26.6543 23.85C23.9824 23.854 21.3873 22.9562 19.289 21.302C22.0613 19.1199 23.841 15.7341 23.841 11.9328C23.841 8.13157 22.0613 4.74574 19.289 2.56364C21.3873 0.909516 23.9823 0.0117598 26.6541 0.0156375C33.2351 0.0156375 38.57 5.35108 38.57 11.9328Z" fill="#F79E1B"/>
</g>
</g>
<defs>
<clipPath id="clip0_1_19697">
<rect width="39" height="30" fill="white" transform="translate(0.0078125 0.015625)"/>
</clipPath>
<clipPath id="clip1_1_19697">
<rect width="39" height="30" fill="white" transform="translate(0.0078125 0.015625)"/>
</clipPath>
</defs>
</svg>
