<svg width="109" height="31" viewBox="0 0 109 31" fill="none" xmlns="http://www.w3.org/2000/svg">
<g clip-path="url(#clip0_1_19706)">
<g clip-path="url(#clip1_1_19706)">
<g clip-path="url(#clip2_1_19706)">
<path d="M15.6937 29.8569C23.7101 29.8569 30.2086 23.3584 30.2086 15.342C30.2085 7.32567 23.71 0.827148 15.6937 0.827148C7.67738 0.827148 1.17888 7.32567 1.17889 15.342C1.1789 23.3584 7.67742 29.8569 15.6937 29.8569Z" fill="#5F259F"/>
<path d="M74.5896 23.637V18.3661C74.5896 17.0685 74.1031 16.4198 72.8867 16.4198C72.4002 16.4198 71.8326 16.5009 71.5081 16.582V24.2857C71.5081 24.529 71.2648 24.7723 71.0216 24.7723H69.1565C68.9132 24.7723 68.67 24.529 68.67 24.2857V15.2846C68.67 14.9602 68.9132 14.7169 69.1565 14.6358C70.3728 14.2304 71.5893 13.9871 72.8867 13.9871C75.8059 13.9871 77.4278 15.5278 77.4278 18.3661V24.3668C77.4278 24.6101 77.1846 24.8533 76.9413 24.8533H75.8059C75.0761 24.8533 74.5896 24.2857 74.5896 23.637ZM81.8879 20.4744L81.8068 21.2042C81.8068 22.1774 82.4555 22.745 83.5097 22.745C84.3206 22.745 85.0505 22.5017 85.8614 22.0963C85.9425 22.0963 86.0235 22.0152 86.1046 22.0152C86.2668 22.0152 86.3479 22.0963 86.429 22.1774C86.5101 22.2585 86.6723 22.5017 86.6723 22.5017C86.8344 22.745 86.9966 23.0694 86.9966 23.3126C86.9966 23.7181 86.7533 24.1235 86.429 24.2857C85.537 24.7723 84.4828 25.0156 83.3475 25.0156C82.05 25.0156 80.9959 24.6912 80.185 24.0424C79.374 23.3126 78.8875 22.3396 78.8875 21.1231V17.9606C78.8875 15.4467 80.5093 13.906 83.2664 13.906C85.9425 13.906 87.4832 15.3657 87.4832 17.9606V19.9068C87.4832 20.15 87.2399 20.3933 86.9966 20.3933H81.8879V20.4744ZM81.8068 18.6904H84.8883V17.8795C84.8883 16.9064 84.3206 16.2576 83.3475 16.2576C82.3744 16.2576 81.8068 16.8253 81.8068 17.8795V18.6904ZM102.485 20.4744L102.404 21.2042C102.404 22.1774 103.053 22.745 104.107 22.745C104.918 22.745 105.647 22.5017 106.458 22.0963C106.54 22.0963 106.621 22.0152 106.702 22.0152C106.864 22.0152 106.945 22.0963 107.026 22.1774C107.108 22.2585 107.269 22.5017 107.269 22.5017C107.432 22.745 107.594 23.0694 107.594 23.3126C107.594 23.7181 107.35 24.1235 107.026 24.2857C106.134 24.7723 105.08 25.0156 103.944 25.0156C102.648 25.0156 101.593 24.6912 100.782 24.0424C99.9711 23.3126 99.4843 22.3396 99.4843 21.1231V17.9606C99.4843 15.4467 101.106 13.906 103.864 13.906C106.54 13.906 108.08 15.3657 108.08 17.9606V19.9068C108.08 20.15 107.837 20.3933 107.594 20.3933H102.485V20.4744ZM102.404 18.6904H105.486V17.8795C105.486 16.9064 104.918 16.2576 103.944 16.2576C102.972 16.2576 102.404 16.8253 102.404 17.8795V18.6904ZM54.7222 24.8533H55.8575C56.1008 24.8533 56.344 24.6101 56.344 24.3668V18.3661C56.344 15.6089 54.8844 13.9871 52.4516 13.9871C51.7218 13.9871 50.9109 14.1493 50.4244 14.3115V11.3111C50.4244 10.6624 49.8567 10.0947 49.2079 10.0947H48.0727C47.8294 10.0947 47.5861 10.338 47.5861 10.5813V24.3668C47.5861 24.6101 47.8294 24.8533 48.0727 24.8533H49.9378C50.1811 24.8533 50.4244 24.6101 50.4244 24.3668V16.7442C50.8298 16.582 51.3975 16.5009 51.8029 16.5009C53.0193 16.5009 53.5058 17.0685 53.5058 18.4472V23.7181C53.5869 24.2857 54.0734 24.8533 54.7222 24.8533ZM66.967 18.0417V21.042C66.967 23.5559 65.2641 25.0967 62.4259 25.0967C59.6688 25.0967 57.8847 23.5559 57.8847 21.042V18.0417C57.8847 15.5278 59.5877 13.9871 62.4259 13.9871C65.2641 13.9871 66.967 15.5278 66.967 18.0417ZM64.1288 18.0417C64.1288 17.0685 63.5612 16.4198 62.5069 16.4198C61.4528 16.4198 60.8852 16.9874 60.8852 18.0417V21.042C60.8852 22.0152 61.4528 22.5828 62.5069 22.5828C63.5612 22.5828 64.1288 22.0152 64.1288 21.042V18.0417ZM46.0454 16.6631C46.0454 19.2581 44.0992 21.042 41.5043 21.042C40.8555 21.042 40.2879 20.9609 39.7203 20.7177V24.3668C39.7203 24.6101 39.477 24.8533 39.2337 24.8533H37.3687C37.1253 24.8533 36.882 24.6101 36.882 24.3668V11.4733C36.882 11.1489 37.1253 10.9056 37.3687 10.8245C38.585 10.4191 39.8013 10.1758 41.0988 10.1758C44.0181 10.1758 46.0454 11.9598 46.0454 14.7169V16.6631ZM43.1261 14.5548C43.1261 13.2572 42.2341 12.6085 41.0177 12.6085C40.2879 12.6085 39.8013 12.8518 39.8013 12.8518V18.2039C40.2879 18.4472 40.5311 18.5282 41.0988 18.5282C42.3152 18.5282 43.2072 17.7984 43.2072 16.582V14.5548H43.1261ZM98.4306 16.6631C98.4306 19.2581 96.4843 21.042 93.8894 21.042C93.2407 21.042 92.673 20.9609 92.1054 20.7177V24.3668C92.1054 24.6101 91.8621 24.8533 91.6188 24.8533H89.7538C89.5105 24.8533 89.2672 24.6101 89.2672 24.3668V11.4733C89.2672 11.1489 89.5105 10.9056 89.7538 10.8245C90.9701 10.4191 92.1865 10.1758 93.484 10.1758C96.4032 10.1758 98.4306 11.9598 98.4306 14.7169V16.6631ZM95.5112 14.5548C95.5112 13.2572 94.6192 12.6085 93.4029 12.6085C92.673 12.6085 92.1865 12.8518 92.1865 12.8518V18.2039C92.673 18.4472 92.9163 18.5282 93.484 18.5282C94.7003 18.5282 95.5923 17.7984 95.5923 16.582V14.5548H95.5112Z" fill="white"/>
<path d="M22.2808 11.5551C22.2808 10.9874 21.7943 10.5009 21.2267 10.5009H19.2805L14.8205 5.39209C14.4149 4.90554 13.7662 4.74336 13.1175 4.90554L11.5768 5.39209C11.3335 5.47318 11.2524 5.79755 11.4146 5.95974L16.2801 10.582H8.90076C8.65749 10.582 8.4953 10.7442 8.4953 10.9874V11.7983C8.4953 12.366 8.98185 12.8525 9.5495 12.8525H10.6848V16.7449C10.6848 19.6642 12.2255 21.3671 14.8205 21.3671C15.6314 21.3671 16.2801 21.286 17.091 20.9617V23.5566C17.091 24.2864 17.6586 24.8541 18.3884 24.8541H19.5238C19.767 24.8541 20.0103 24.6108 20.0103 24.3675V12.7714H21.8754C22.1187 12.7714 22.2808 12.6092 22.2808 12.366V11.5551ZM17.091 18.5289C16.6045 18.7723 15.9557 18.8533 15.4692 18.8533C14.1717 18.8533 13.5229 18.2045 13.5229 16.7449V12.8525H17.091V18.5289Z" fill="white"/>
</g>
</g>
</g>
<defs>
<clipPath id="clip0_1_19706">
<rect width="107.41" height="30" fill="white" transform="translate(0.8078 0.015625)"/>
</clipPath>
<clipPath id="clip1_1_19706">
<rect width="107.41" height="30" fill="white" transform="translate(0.8078 0.015625)"/>
</clipPath>
<clipPath id="clip2_1_19706">
<rect width="107.41" height="29.9974" fill="white" transform="translate(0.8078 0.0166016)"/>
</clipPath>
</defs>
</svg>
