<svg width="71" height="31" viewBox="0 0 71 31" fill="none" xmlns="http://www.w3.org/2000/svg">
<g clip-path="url(#clip0_1_19714)">
<g clip-path="url(#clip1_1_19714)">
<g clip-path="url(#clip2_1_19714)">
<path fill-rule="evenodd" clip-rule="evenodd" d="M24.3507 14.889C24.3455 12.5773 23.6652 10.3175 22.3932 8.38725C21.1213 6.45697 19.3131 4.9403 17.191 4.02358C15.0688 3.10687 12.7251 2.83006 10.4478 3.22715C8.17051 3.62424 6.05879 4.67794 4.37214 6.25879C2.6855 7.83963 1.49738 9.87875 0.953793 12.1256C0.410203 14.3724 0.534818 16.7291 1.31232 18.9061C2.08981 21.0832 3.48633 22.9856 5.33028 24.3798C7.17423 25.7739 9.38529 26.5991 11.6918 26.7538V17.5715C11.041 17.3862 10.4791 16.9718 10.1098 16.4048C9.74045 15.8378 9.58856 15.1564 9.68212 14.4863C9.77568 13.8161 10.1084 13.2023 10.6189 12.7581C11.1293 12.314 11.7832 12.0693 12.4599 12.0693C13.1366 12.0693 13.7904 12.314 14.3009 12.7581C14.8114 13.2023 15.1441 13.8161 15.2377 14.4863C15.3312 15.1564 15.1793 15.8378 14.81 16.4048C14.4407 16.9718 13.8788 17.3862 13.228 17.5715V26.7551C16.2415 26.5588 19.0674 25.2234 21.1325 23.02C23.1976 20.8166 24.3472 17.9101 24.3481 14.8903L24.3507 14.889Z" fill="#00B6F0"/>
<path fill-rule="evenodd" clip-rule="evenodd" d="M41.1587 9.94246L43.3162 5.6288C39.2326 1.81032 31.4748 1.97928 28.9456 7.44836C28.2711 8.90531 28.2958 10.5208 28.9378 12.2169C29.2484 13.0357 29.8073 14.0572 30.6937 14.7889C31.1473 15.1633 32.8875 16.0262 34.2951 16.6644C35.613 17.261 37.426 17.6898 38.2578 18.8739C39.2092 20.2177 38.6218 21.8787 36.4149 22.1816C35.1789 22.3505 33.3385 21.8371 30.5962 19.6238L27.6953 23.4072C36.9231 31.4522 45.436 24.4079 43.441 18.1473C42.9341 16.5578 41.8905 15.3348 40.5986 14.4016C38.601 12.9577 36.515 12.5665 35.1217 11.9595C32.5119 10.8223 32.881 7.61992 36.4994 7.81617C38.7894 7.93964 39.525 8.59598 41.1587 9.94246Z" fill="white"/>
<path fill-rule="evenodd" clip-rule="evenodd" d="M45.8476 3.01562H54.7921C57.7995 3.01562 61.3256 5.628 61.3256 8.74854C61.3256 9.46856 61.375 10.0092 61.3256 10.8462C61.2281 12.502 59.701 14.3554 58.7171 14.3554C60.2482 14.3554 61.7792 16.5505 62.1548 18.0686C63.0646 21.7584 61.1293 27.0117 54.7921 27.0117H45.8476V3.01562ZM50.6448 7.39557H54.1539C55.4731 7.39557 56.5519 8.5146 56.5519 9.88447V10.2406C56.5519 11.4103 55.6278 12.372 54.497 12.372H53.0466V16.8105H54.7362C56.2659 16.8105 57.5162 18.1102 57.5162 19.6945C57.5162 21.2801 56.2659 22.5785 54.7362 22.5785H50.6357V7.39557H50.6448Z" fill="white"/>
<path fill-rule="evenodd" clip-rule="evenodd" d="M64.5312 3.01562H69.5896V27.0156H64.5312V3.01562Z" fill="white"/>
</g>
</g>
</g>
<defs>
<clipPath id="clip0_1_19714">
<rect width="70" height="30" fill="white" transform="translate(0.507812 0.015625)"/>
</clipPath>
<clipPath id="clip1_1_19714">
<rect width="70" height="30" fill="white" transform="translate(0.507812 0.015625)"/>
</clipPath>
<clipPath id="clip2_1_19714">
<rect width="70" height="30" fill="white" transform="translate(0.507812 0.015625)"/>
</clipPath>
</defs>
</svg>
