<svg width="75" height="31" viewBox="0 0 75 31" fill="none" xmlns="http://www.w3.org/2000/svg">
<g clip-path="url(#clip0_1_19723)">
<g clip-path="url(#clip1_1_19723)">
<g clip-path="url(#clip2_1_19723)">
<path d="M1.38898 24.3516H1.94001L1.42797 26.4902C1.35198 26.8075 1.3663 27.0464 1.47134 27.2058C1.57597 27.3653 1.77073 27.4451 2.05539 27.4451C2.33827 27.4451 2.57022 27.3653 2.75144 27.2058C2.93286 27.0464 3.06157 26.8075 3.13756 26.4902L3.6494 24.3516H4.2076L3.68302 26.5431C3.56904 27.0194 3.36593 27.3759 3.0751 27.6122C2.78407 27.8489 2.40252 27.9671 1.93046 27.9671C1.45801 27.9671 1.13396 27.8491 0.957509 27.6134C0.780861 27.3778 0.750027 27.021 0.864411 26.5431L1.38898 24.3516Z" fill="white"/>
<path d="M4.12891 27.8722L5.00539 24.2109L6.67082 26.3639C6.71538 26.4246 6.76033 26.4896 6.8047 26.5587C6.84906 26.6277 6.89441 26.7053 6.94096 26.792L7.52561 24.3504H8.04143L7.16555 28.0088L5.46511 25.8174C5.41956 25.7584 5.37719 25.6959 5.3376 25.6301C5.29762 25.5642 5.26161 25.4952 5.22859 25.4232L4.64235 27.8722H4.12891Z" fill="white"/>
<path d="M8.00391 27.8734L8.84697 24.3516H9.40477L8.56191 27.8734H8.00391Z" fill="white"/>
<path d="M9.35938 27.8734L10.2024 24.3516H12.1181L12.0017 24.8374H10.644L10.4338 25.7155H11.7915L11.6713 26.2181H10.3134L9.91738 27.8734H9.35938Z" fill="white"/>
<path d="M11.8906 27.8734L12.7337 24.3516H13.2915L12.4486 27.8734H11.8906Z" fill="white"/>
<path d="M13.2461 27.8734L14.0891 24.3516H16.0048L15.8884 24.8374H14.5308L14.3193 25.7202H15.677L15.5568 26.2231H14.1991L13.9266 27.361H15.2843L15.1618 27.8734H13.2461Z" fill="white"/>
<path d="M16.4903 27.3562H16.9594C17.2172 27.3562 17.4149 27.3385 17.5524 27.3033C17.6898 27.2681 17.816 27.2086 17.9315 27.1253C18.0885 27.0117 18.2196 26.87 18.325 26.7007C18.4303 26.5317 18.51 26.3345 18.5637 26.1099C18.6172 25.8853 18.632 25.6888 18.6077 25.5199C18.5832 25.3504 18.52 25.209 18.4175 25.095C18.3405 25.0118 18.2389 24.9522 18.112 24.9168C17.9849 24.8817 17.778 24.864 17.4903 24.864H17.2886H17.0869L16.4903 27.3562ZM15.8086 27.8736L16.6516 24.3516H17.4042C17.8935 24.3516 18.2317 24.3767 18.4191 24.4272C18.6061 24.4779 18.7607 24.5627 18.8822 24.6812C19.0435 24.8368 19.1462 25.0365 19.1904 25.28C19.2343 25.5239 19.2188 25.8022 19.144 26.1149C19.0692 26.4276 18.9516 26.7047 18.7913 26.946C18.6314 27.1875 18.433 27.3866 18.1971 27.5438C18.0187 27.6626 17.8273 27.7471 17.624 27.7978C17.4201 27.8482 17.1161 27.8736 16.7111 27.8736H16.5609H15.8086Z" fill="white"/>
<path d="M21.8571 25.8239H22.0004C22.3097 25.8239 22.5243 25.7891 22.6441 25.7202C22.764 25.6514 22.8446 25.5295 22.8864 25.3546C22.9313 25.167 22.9081 25.0345 22.8162 24.9577C22.7243 24.8807 22.5309 24.842 22.2355 24.842H22.0923L21.8571 25.8239ZM21.7097 26.2925L21.3314 27.8734H20.8086L21.6518 24.3516H22.4959C22.7459 24.3516 22.9268 24.3655 23.0382 24.3936C23.1492 24.4214 23.2409 24.4678 23.3133 24.532C23.4014 24.6138 23.4593 24.724 23.4872 24.8626C23.5148 25.0015 23.5088 25.1543 23.469 25.3208C23.4289 25.4877 23.3616 25.6416 23.2669 25.7829C23.1722 25.9239 23.0612 26.0347 22.9343 26.1147C22.8313 26.179 22.7177 26.2247 22.5932 26.2518C22.4684 26.2792 22.2812 26.2925 22.0312 26.2925H21.9212H21.7097Z" fill="white"/>
<path d="M24.1589 26.489H25.1156L24.9558 25.6853C24.9483 25.6342 24.9411 25.5753 24.9349 25.5087C24.9292 25.442 24.9252 25.3678 24.9226 25.2861C24.8856 25.363 24.8484 25.4349 24.8112 25.5015C24.7742 25.5679 24.7382 25.6292 24.7028 25.6853L24.1589 26.489ZM25.3708 27.8721L25.1983 26.9652H23.8382L23.2225 27.8721H22.6367L25.1752 24.2109L25.9592 27.8721H25.3708Z" fill="white"/>
<path d="M26.7584 27.8734L27.1439 26.2615L26.4453 24.3516H27.0315L27.4652 25.5472C27.4752 25.5778 27.4871 25.6178 27.5008 25.6675C27.5147 25.7172 27.5283 25.7708 27.541 25.8286C27.576 25.7725 27.612 25.7192 27.648 25.6697C27.684 25.62 27.7204 25.5744 27.7572 25.5326L28.7783 24.3516H29.3365L27.6974 26.2615L27.3116 27.8734H26.7584Z" fill="white"/>
<path d="M32.0896 26.1329C32.0898 26.1057 32.0978 26.0305 32.1133 25.907C32.1253 25.8043 32.1346 25.7192 32.1414 25.6517C32.1081 25.7321 32.069 25.8125 32.024 25.8924C31.9788 25.9726 31.9271 26.0544 31.868 26.1379L30.5207 28.0144L30.0811 26.0995C30.0624 26.0208 30.048 25.9446 30.0385 25.871C30.0289 25.7972 30.0224 25.7242 30.0192 25.6517C30.0001 25.7257 29.9758 25.8029 29.9462 25.8841C29.9166 25.9651 29.8811 26.0498 29.8396 26.1379L29.0562 27.8724H28.543L30.2329 24.2012L30.7139 26.4242C30.7208 26.4594 30.731 26.5181 30.7433 26.5998C30.7556 26.6816 30.7702 26.7826 30.7871 26.9028C30.844 26.8017 30.9259 26.6736 31.0337 26.5181C31.0624 26.4763 31.0843 26.4443 31.099 26.4218L32.6202 24.2012L32.5714 27.8724H32.053L32.0896 26.1329Z" fill="white"/>
<path d="M33.0117 27.8734L33.855 24.3516H35.7706L35.6543 24.8374H34.2964L34.0851 25.7202H35.4428L35.3227 26.2231H33.9648L33.6924 27.361H35.0501L34.9272 27.8734H33.0117Z" fill="white"/>
<path d="M35.5625 27.8722L36.439 24.2109L38.1044 26.3639C38.149 26.4246 38.1939 26.4896 38.2383 26.5587C38.2826 26.6277 38.328 26.7053 38.3745 26.792L38.9592 24.3504H39.4752L38.5991 28.0088L36.8987 25.8174C36.8531 25.7584 36.8108 25.6959 36.7712 25.6301C36.7312 25.5642 36.6952 25.4952 36.6622 25.4232L36.0759 27.8722H35.5625Z" fill="white"/>
<path d="M41.2632 24.8374L40.5365 27.8734H39.9786L40.705 24.8374H39.793L39.9093 24.3516H42.2869L42.1707 24.8374H41.2632Z" fill="white"/>
<path d="M41.836 27.1679L42.3322 26.9564C42.3371 27.1134 42.3857 27.2333 42.4784 27.3159C42.5711 27.3986 42.705 27.4398 42.8804 27.4398C43.0459 27.4398 43.1892 27.3925 43.3093 27.2978C43.4297 27.2033 43.509 27.0766 43.547 26.9178C43.5966 26.7107 43.473 26.5263 43.1776 26.3646C43.1362 26.3405 43.1044 26.3228 43.0825 26.3115C42.7493 26.1223 42.5381 25.951 42.4489 25.7979C42.36 25.6447 42.3417 25.4575 42.3946 25.2363C42.4633 24.9492 42.6141 24.7167 42.8466 24.5386C43.0791 24.3606 43.3493 24.2715 43.6574 24.2715C43.9107 24.2715 44.1106 24.3216 44.2568 24.4219C44.4032 24.5223 44.4868 24.6662 44.5075 24.8537L44.0163 25.0847C43.9737 24.9741 43.9176 24.8931 43.848 24.8416C43.7782 24.7903 43.6899 24.7646 43.5838 24.7646C43.4338 24.7646 43.3049 24.805 43.1973 24.8848C43.0903 24.9651 43.0201 25.0726 42.9876 25.2074C42.9371 25.4191 43.0837 25.6162 43.4277 25.7991C43.4541 25.8134 43.4748 25.8249 43.4897 25.8329C43.7907 25.993 43.9865 26.15 44.0762 26.3031C44.1661 26.4565 44.1838 26.6477 44.1287 26.8768C44.0489 27.2106 43.8832 27.4756 43.6314 27.672C43.3795 27.8683 43.0791 27.9666 42.7308 27.9666C42.4382 27.9666 42.2152 27.8977 42.0616 27.7597C41.9077 27.6218 41.8325 27.4247 41.836 27.1679Z" fill="white"/>
<path d="M45.9609 27.8734L46.804 24.3516H47.362L46.5189 27.8734H45.9609Z" fill="white"/>
<path d="M47.3164 27.8722L48.1929 24.2109L49.8583 26.3639C49.9029 26.4246 49.9478 26.4896 49.9922 26.5587C50.0365 26.6277 50.0819 26.7053 50.1284 26.792L50.7131 24.3504H51.2289L50.353 28.0088L48.6526 25.8174C48.607 25.7584 48.5645 25.6959 48.5249 25.6301C48.4851 25.5642 48.4489 25.4952 48.4159 25.4232L47.8298 27.8722H47.3164Z" fill="white"/>
<path d="M53.0171 24.8374L52.2903 27.8734H51.7325L52.4589 24.8374H51.5469L51.6632 24.3516H54.0408L53.9246 24.8374H53.0171Z" fill="white"/>
<path d="M53.6289 27.8734L54.472 24.3516H56.3876L56.2715 24.8374H54.9138L54.7023 25.7202H56.06L55.9396 26.2231H54.582L54.3096 27.361H55.6673L55.5446 27.8734H53.6289Z" fill="white"/>
<path d="M57.2215 25.8525H57.3225C57.6177 25.8525 57.8224 25.8175 57.9362 25.7469C58.05 25.6763 58.1288 25.5513 58.1713 25.3715C58.2179 25.1775 58.1988 25.0407 58.1135 24.9615C58.0289 24.8817 57.8457 24.8422 57.5644 24.8422H57.4634L57.2215 25.8525ZM57.0798 26.2975L56.7025 27.8734H56.1797L57.0229 24.3516H57.8013C58.0295 24.3516 58.203 24.3667 58.3213 24.3974C58.4399 24.4278 58.5354 24.4781 58.6076 24.5489C58.6935 24.6337 58.7492 24.7439 58.7751 24.8786C58.8004 25.013 58.7938 25.1606 58.7556 25.3208C58.6882 25.6031 58.5688 25.8241 58.3977 25.9838C58.2266 26.1431 58.0074 26.2392 57.7403 26.2711L58.5388 27.8734H57.9078L57.1431 26.2975H57.0798Z" fill="white"/>
<path d="M58.8711 27.8734L59.7141 24.3516H61.6298L61.5136 24.8374H60.1558L59.9455 25.7155H61.3034L61.183 26.2181H59.8253L59.4291 27.8734H58.8711Z" fill="white"/>
<path d="M62.2722 26.489H63.229L63.0693 25.6853C63.0615 25.6342 63.0546 25.5753 63.0484 25.5087C63.0426 25.442 63.0387 25.3678 63.0361 25.2861C62.9989 25.363 62.9617 25.4349 62.9247 25.5015C62.8877 25.5679 62.8515 25.6292 62.8161 25.6853L62.2722 26.489ZM63.4843 27.8721L63.3118 26.9652H61.9517L61.336 27.8721H60.75L63.2885 24.2109L64.0727 27.8721H63.4843Z" fill="white"/>
<path d="M67.7059 25.2083C67.5812 25.0705 67.4391 24.967 67.2796 24.898C67.1204 24.8294 66.9438 24.7946 66.7498 24.7946C66.3749 24.7946 66.0399 24.9181 65.7457 25.165C65.451 25.412 65.2569 25.7319 65.1628 26.125C65.0719 26.5052 65.1115 26.8185 65.2814 27.0653C65.4512 27.3124 65.7106 27.4361 66.059 27.4361C66.2625 27.4361 66.4646 27.3991 66.6659 27.3253C66.8672 27.2515 67.0703 27.1401 67.2746 26.9907L67.1196 27.638C66.9432 27.7487 66.76 27.8314 66.5704 27.8857C66.3806 27.9402 66.1827 27.9675 65.9764 27.9675C65.7138 27.9675 65.4815 27.9235 65.28 27.8352C65.0783 27.7471 64.9133 27.6174 64.7858 27.4455C64.6589 27.2772 64.5776 27.0789 64.5427 26.8501C64.5073 26.6217 64.5207 26.3782 64.5823 26.1198C64.6442 25.8618 64.7474 25.6193 64.8917 25.3923C65.0357 25.1654 65.2137 24.966 65.425 24.7946C65.637 24.6213 65.8638 24.4904 66.1053 24.4011C66.347 24.3124 66.5963 24.2676 66.8527 24.2676C67.0544 24.2676 67.2394 24.2978 67.4079 24.3581C67.5764 24.418 67.7319 24.5089 67.875 24.6313L67.7059 25.2083Z" fill="white"/>
<path d="M67.7578 27.8734L68.6009 24.3516H70.5165L70.4002 24.8374H69.0427L68.8312 25.7202H70.1889L70.0686 26.2231H68.7109L68.4385 27.361H69.7962L69.6735 27.8734H67.7578Z" fill="white"/>
<path d="M57.5781 21.2828H53.7422L59.077 2.01562H62.9132L57.5781 21.2828Z" fill="white"/>
<path d="M55.5881 2.62389C55.3221 2.25727 54.9119 2.07227 54.3547 2.07227H33.2612L32.2164 5.84593H36.0545V5.84375H51.4056L50.2888 9.87642H34.9373L34.9387 9.86806H31.1022L27.918 21.3636H31.7565L33.8934 13.6479H51.1496C51.6885 13.6479 52.1957 13.4641 52.6728 13.0965C53.1488 12.7285 53.4621 12.2747 53.6123 11.7328L55.749 4.0156C55.9049 3.45561 55.851 2.99092 55.5881 2.62389Z" fill="white"/>
<path d="M25.6912 20.0785C25.4794 20.8413 24.7847 21.3691 23.9928 21.3691H4.20123C3.66194 21.3691 3.2611 21.1853 2.99752 20.8181C2.73414 20.4505 2.67764 19.9957 2.82823 19.454L7.65741 2.07031H11.4969L7.18356 17.5966H22.542L26.8554 2.07031H30.6941L25.6912 20.0785Z" fill="white"/>
<path d="M69.5442 2.05078L74.4008 11.7093L64.1914 21.3653L69.5442 2.05078Z" fill="#27803B"/>
<path d="M66.1339 2.05078L70.987 11.7093L60.7734 21.3653L66.1339 2.05078Z" fill="#E9661C"/>
</g>
</g>
</g>
<defs>
<clipPath id="clip0_1_19723">
<rect width="75" height="30" fill="white" transform="translate(0.0078125 0.015625)"/>
</clipPath>
<clipPath id="clip1_1_19723">
<rect width="75" height="30" fill="white" transform="translate(0.0078125 0.015625)"/>
</clipPath>
<clipPath id="clip2_1_19723">
<rect width="75" height="30" fill="white" transform="translate(0.0078125 0.015625)"/>
</clipPath>
</defs>
</svg>
