<svg width="75" height="31" viewBox="0 0 75 31" fill="none" xmlns="http://www.w3.org/2000/svg">
<g clip-path="url(#clip0_1_19757)">
<g clip-path="url(#clip1_1_19757)">
<g clip-path="url(#clip2_1_19757)">
<path d="M32.4118 26.6152H26.3086L30.1184 3.41211H36.2217L32.4118 26.6152Z" fill="#0066B3"/>
<path d="M21.1686 3.41211L15.3599 19.3712L14.6769 15.9323L12.6216 5.49778C12.6216 5.49778 12.3772 3.41211 9.7329 3.41211H0.120604L0.0078125 3.80317C2.25832 4.35871 4.40961 5.2526 6.38677 6.45371L11.6817 26.6152H18.0356L27.7419 3.41211H21.1686Z" fill="#0066B3"/>
<path d="M69.1486 26.6171H74.7505L69.8629 3.41404H64.9628C64.3674 3.36975 63.7732 3.51511 63.2671 3.82889C62.761 4.14267 62.3693 4.60846 62.1492 5.1583L53.0508 26.6171H59.3921L60.6454 23.172H68.4029L69.1486 26.6171ZM62.4375 18.411L65.6395 9.72069L67.4442 18.411H62.4375Z" fill="#0066B3"/>
<path d="M53.5276 8.99329L54.3986 4.02742C52.6368 3.40395 50.786 3.06241 48.9157 3.01562C45.8891 3.01562 38.7018 4.32538 38.7018 10.6941C38.7018 16.6904 47.1361 16.7649 47.1361 19.912C47.1361 23.0591 39.5666 22.5004 37.0726 20.5327L36.164 25.7034C38.3457 26.6069 40.6926 27.0528 43.0568 27.0132C47.2176 27.0132 53.4963 24.8778 53.4963 19.074C53.49 13.0405 44.9805 12.4756 44.9805 9.85612C44.9805 7.23662 50.9209 7.5656 53.5276 8.99329Z" fill="#0066B3"/>
<path d="M14.6769 15.9323L12.6216 5.49778C12.6216 5.49778 12.3772 3.41211 9.73291 3.41211H0.120604L0.0078125 3.80317C3.31646 4.63878 6.40327 6.17405 9.05616 8.30349C11.5776 10.3094 13.5171 12.9418 14.6769 15.9323Z" fill="#FAA634"/>
</g>
</g>
</g>
<defs>
<clipPath id="clip0_1_19757">
<rect width="75" height="30" fill="white" transform="translate(0.0078125 0.015625)"/>
</clipPath>
<clipPath id="clip1_1_19757">
<rect width="75" height="30" fill="white" transform="translate(0.0078125 0.015625)"/>
</clipPath>
<clipPath id="clip2_1_19757">
<rect width="75" height="30" fill="white" transform="translate(0.0078125 0.015625)"/>
</clipPath>
</defs>
</svg>
