<svg width="159" height="25" viewBox="0 0 159 25" fill="none" xmlns="http://www.w3.org/2000/svg">
<g clip-path="url(#clip0_1_19438)">
<g clip-path="url(#clip1_1_19438)">
<path d="M30.2621 1.61328L21.5369 22.621L16.3595 10.3722L11.0514 22.585L2.42188 1.61328H6.18104L11.1393 13.6628L16.3764 1.61328H16.4306L21.5087 13.6266L26.4986 1.61328H30.2621Z" fill="white"/>
<path d="M33.293 22.4644V1.61328H36.7691V22.4644H33.293Z" fill="white"/>
<path d="M57.6998 1.61247V22.543L44.6636 9.79839V22.4638H41.1875V1.53906L54.2237 14.2834V1.61247H57.6998Z" fill="white"/>
<path d="M81.2379 1.61133V22.4646H77.7623V13.21L71.6798 22.447L65.5972 13.21V22.4646H62.1211V1.61133L71.6798 16.1265L81.2379 1.61133Z" fill="white"/>
<path d="M94.8566 17.1979C93.9054 18.3679 93.4907 19.3014 93.3336 19.7285C93.3036 19.8062 93.1942 19.8062 93.166 19.7285C93.0089 19.305 92.5977 18.3838 91.666 17.2262C91.6254 17.1785 91.6836 17.115 91.733 17.152C92.0401 17.3797 92.4742 17.6709 92.836 17.7891L92.8413 17.7926C93.1077 17.8826 93.3919 17.8826 93.6548 17.7926L93.6654 17.7891C94.036 17.6691 94.4842 17.362 94.7948 17.1291C94.8407 17.0956 94.8936 17.1538 94.8566 17.1979Z" fill="white"/>
<path d="M95.3206 15.2508C95.3206 15.2508 95.527 17.0172 93.3035 17.3666C93.2682 17.3702 93.2276 17.3702 93.1941 17.3666C90.9688 17.0172 91.1771 15.2508 91.1771 15.2508V13.3114C91.1771 13.149 91.2935 13.0166 91.4523 12.9972L93.21 12.7819C93.2347 12.7784 93.2629 12.7784 93.2876 12.7819L95.0453 12.9972C95.2023 13.0166 95.3206 13.149 95.3206 13.3114V15.2508Z" fill="white"/>
<path d="M95.3592 12.5159C95.3486 12.5865 95.2868 12.6429 95.2198 12.6429C95.2127 12.6429 95.2074 12.6429 95.2003 12.6394L93.6598 12.4506C93.3845 12.4171 93.1057 12.4171 92.8304 12.4506L91.3551 12.6323C91.2739 12.6429 91.2051 12.5865 91.1962 12.5071C91.1874 12.4294 91.2421 12.3571 91.3198 12.3482L92.7933 12.1665C93.0933 12.1294 93.3968 12.1294 93.6968 12.1665L95.2339 12.3571C95.3115 12.3676 95.368 12.4382 95.3592 12.5159Z" fill="white"/>
<path d="M93.3318 1.45117L84.5312 22.467H102.083L93.3318 1.45117ZM97.3553 21.3852C97.0077 21.6499 96.683 21.7064 96.3794 21.6905C96.3794 21.6905 94.8512 21.4311 93.2577 21.4311H93.2489C93.2453 21.4311 93.2453 21.4311 93.2453 21.4311C91.6606 21.4311 90.5753 21.724 90.5753 21.724C90.3883 21.7752 90.1871 21.7964 89.993 21.777C89.1724 21.6976 88.6059 21.0287 88.6059 20.2046C88.6059 19.8958 88.7048 19.6152 88.8601 19.3699C88.9342 19.2588 89.0365 19.1493 89.1424 19.0576C89.4106 18.8229 89.8906 18.5864 90.2118 18.1082C90.6001 17.5311 90.2436 16.9311 89.6471 15.8017C88.8724 14.3388 90.2312 13.5129 90.6089 13.2023C90.6777 13.1476 90.7359 13.0876 90.7818 13.0294C90.9495 12.8247 91.0271 12.5617 91.0271 12.2988V9.60761C91.0271 9.55114 91.0942 9.52291 91.1348 9.56349L92.1442 10.5729C92.1742 10.5994 92.2236 10.5941 92.243 10.5605L93.2242 8.91409C93.2489 8.8735 93.3071 8.8735 93.3318 8.91409L94.313 10.5605C94.3342 10.5941 94.3818 10.5994 94.4118 10.5729L95.4212 9.56349C95.4618 9.52291 95.5289 9.55114 95.5289 9.60761V12.2952C95.5289 12.5617 95.6065 12.8282 95.7759 13.0347C95.8236 13.0911 95.8783 13.1494 95.9471 13.2023C96.3247 13.5129 97.6853 14.3388 96.9088 15.8017C96.3124 16.9311 95.9559 17.5311 96.3424 18.1082C96.6653 18.5864 97.1471 18.8229 97.4136 19.0576C97.5212 19.1493 97.62 19.2588 97.6959 19.3699C97.9112 19.714 98.0206 20.134 97.8971 20.5946C97.8089 20.9087 97.6112 21.1858 97.3553 21.3852Z" fill="white"/>
<path d="M116.774 1.61523V5.09134H112.138V22.4653H108.663V5.09134H104.027V1.61523H116.774Z" fill="white"/>
<path d="M137.266 19.5935C133.148 23.5122 126.651 23.4089 122.659 19.3618C118.667 15.3146 118.654 8.81523 122.628 4.75113C126.602 0.687027 133.099 0.556439 137.234 4.45731L134.848 6.98577C132.092 4.38566 127.761 4.47284 125.112 7.18183C122.464 9.89082 122.472 14.223 125.133 16.9207C127.794 19.6184 132.124 19.6872 134.869 17.0754L137.266 19.5935Z" fill="white"/>
<path d="M157.059 1.61328V22.4644H153.584V13.7782H144.027V22.4644H140.551V1.61328H144.027V10.302H153.584V1.61328H157.059Z" fill="white"/>
</g>
</g>
<defs>
<clipPath id="clip0_1_19438">
<rect width="158.47" height="24" fill="white" transform="translate(0.507812 0.0351562)"/>
</clipPath>
<clipPath id="clip1_1_19438">
<rect width="158.47" height="24" fill="white" transform="translate(0.507812 0.0351562)"/>
</clipPath>
</defs>
</svg>
