<svg width="16" height="12" viewBox="0 0 16 12" fill="none" xmlns="http://www.w3.org/2000/svg">
<path d="M15.0002 12H1.00025C0.447943 12 0.000244141 11.5523 0.000244141 11C0.000244141 10.4477 0.447943 10 1.00025 10H15.0003C15.5525 10 16.0003 10.4477 16.0003 11C16.0002 11.5523 15.5525 12 15.0002 12Z" fill="white"/>
<path d="M15.0002 6.99998H1.00025C0.447943 6.99998 0.000244141 6.55228 0.000244141 6.00001C0.000244141 5.44773 0.447943 5 1.00025 5H15.0003C15.5525 5 16.0003 5.4477 16.0003 6.00001C16.0003 6.55231 15.5525 6.99998 15.0002 6.99998Z" fill="white"/>
<path d="M15.0002 2.00001H1.00025C0.447943 2.00001 0.000244141 1.55231 0.000244141 1.00001C0.000244141 0.447699 0.447943 0 1.00025 0H15.0003C15.5525 0 16.0003 0.447699 16.0003 1.00001C16.0003 1.55231 15.5525 2.00001 15.0002 2.00001Z" fill="white"/>
</svg>
