<svg width="41" height="41" viewBox="0 0 41 41" fill="none" xmlns="http://www.w3.org/2000/svg">
<g clip-path="url(#clip0_1_11109)">
<path d="M18.1539 29.9676L14.4768 33.6446C12.6354 35.486 9.63911 35.4866 7.79676 33.6446C5.95567 31.8032 5.95629 28.8069 7.7977 26.9655L15.1808 19.5824C16.8871 17.8762 19.5854 17.7501 21.4369 19.2061C21.5853 19.3228 21.7265 19.4483 21.8599 19.5819C22.6799 20.4015 23.9513 20.4149 24.7542 19.6117L27.068 17.2979C26.6855 16.718 26.2452 16.1786 25.7536 15.6877C25.0563 14.9907 24.283 14.4148 23.459 13.9617C20.2351 12.1834 16.248 12.2723 13.0995 14.2278C12.4321 14.6425 11.8146 15.1327 11.2593 15.6887L3.90364 23.0443C-0.0926121 27.0406 -0.0926121 33.5427 3.90301 37.5387C7.89965 41.5349 14.4014 41.5349 18.398 37.5387L25.0151 30.9215C22.7037 31.2273 20.3245 30.9099 18.1539 29.9676Z" fill="white"/>
<path d="M37.9106 3.53216C33.9146 -0.463936 27.4129 -0.463936 23.4162 3.53271L16.7997 10.1493C19.1111 9.84317 21.4903 10.1605 23.661 11.1032L27.3383 7.42583C29.1797 5.58442 32.1754 5.58442 34.0168 7.42583C35.8589 9.26786 35.8589 12.2635 34.0175 14.1049L26.6334 21.489C24.9461 23.1763 22.2682 23.2929 20.4188 21.8439C20.2659 21.7248 20.1207 21.5963 19.9839 21.459C19.1777 20.6528 17.8663 20.6534 17.06 21.4597L14.7462 23.7735C15.1292 24.3525 15.5695 24.8914 16.0606 25.3821C16.7452 26.0675 17.5236 26.6521 18.3726 27.1186C21.6142 28.898 25.6214 28.794 28.7721 26.8076C29.4175 26.4006 30.0154 25.9226 30.5546 25.3826L37.9106 18.0271C41.9068 14.0304 41.9068 7.52872 37.9106 3.53216Z" fill="white"/>
</g>
<defs>
<clipPath id="clip0_1_11109">
<rect width="40" height="40" fill="white" transform="translate(0.90625 0.535156)"/>
</clipPath>
</defs>
</svg>
