<svg width="25" height="25" viewBox="0 0 25 25" fill="none" xmlns="http://www.w3.org/2000/svg">
<g clip-path="url(#clip0_1_19479)">
<g clip-path="url(#clip1_1_19479)">
<g clip-path="url(#clip2_1_19479)">
<path fill-rule="evenodd" clip-rule="evenodd" d="M22.1078 0.015625H2.90781C2.27129 0.015625 1.66084 0.268481 1.21076 0.718569C0.760669 1.16866 0.507813 1.77911 0.507812 2.41563L0.507813 24.0156L5.30781 19.2156H22.1078C22.7443 19.2156 23.3548 18.9628 23.8049 18.5127C24.255 18.0626 24.5078 17.4521 24.5078 16.8156V2.41563C24.5078 1.77911 24.255 1.16866 23.8049 0.718569C23.3548 0.268481 22.7443 0.015625 22.1078 0.015625ZM5.30781 8.41563H19.7078V10.8156H5.30781V8.41563ZM14.9078 14.4156H5.30781V12.0156H14.9078V14.4156ZM19.7078 7.21563H5.30781V4.81563H19.7078V7.21563Z" fill="white"/>
</g>
</g>
</g>
<defs>
<clipPath id="clip0_1_19479">
<rect width="24" height="24" fill="white" transform="translate(0.507812 0.015625)"/>
</clipPath>
<clipPath id="clip1_1_19479">
<rect width="24" height="24" fill="white" transform="translate(0.507812 0.015625)"/>
</clipPath>
<clipPath id="clip2_1_19479">
<rect width="24" height="24" fill="white" transform="translate(0.507812 0.015625)"/>
</clipPath>
</defs>
</svg>
