<svg width="104" height="104" viewBox="0 0 104 104" fill="none" xmlns="http://www.w3.org/2000/svg">
<g clip-path="url(#clip0_1_19774)">
<rect width="104" height="104" transform="translate(-0.492188)" fill="#C51A1B"/>
<g clip-path="url(#clip1_1_19774)">
<g clip-path="url(#clip2_1_19774)">
<path d="M66.9806 34.5092C54.9242 21.9044 51.4772 15.2676 51.4772 15.2676C51.4772 15.2676 48.0302 21.9044 35.974 34.5092C28.4362 42.3898 23.4214 48.3724 24.0304 57.2218C24.4464 63.2672 29.1638 68.1736 35.1622 69.0342C39.102 69.5996 41.3604 69.1374 43.5224 67.783C43.7858 67.5726 43.9508 67.3794 43.845 67.1714C43.7558 66.9958 43.5268 67.0052 43.4012 67.0242C42.8434 67.1704 42.244 67.2358 41.6552 67.1798C39.2056 66.9462 37.5166 64.9446 37.5166 62.4838C37.5166 61.561 37.8146 60.7154 38.2776 59.9926C38.4946 59.6536 38.7976 59.334 39.119 59.0504C39.9162 58.3472 41.355 57.6478 42.315 56.2174C43.4744 54.49 42.41 52.7036 40.6218 49.326C38.3066 44.953 42.371 42.4834 43.5028 41.5574C43.7066 41.3908 43.8772 41.215 44.021 41.0388C44.5194 40.4284 44.7506 39.6424 44.7506 38.8544V30.8124C44.7506 30.6434 44.9548 30.5588 45.0744 30.6784L48.0896 33.6936C48.177 33.781 48.3234 33.7628 48.3866 33.6566L51.3144 28.7378C51.388 28.6142 51.5668 28.6142 51.6404 28.7378L54.5682 33.6566C54.6314 33.7628 54.7778 33.7812 54.8652 33.6936L57.8804 30.6784C57.9998 30.559 58.2042 30.6436 58.2042 30.8124V38.846C58.2042 39.6428 58.44 40.4364 58.9454 41.0522C59.0864 41.224 59.2534 41.395 59.4518 41.5572C60.5836 42.4834 64.648 44.9528 62.333 49.3258C60.5448 52.7034 59.4804 54.4898 60.6398 56.2172C61.5998 57.6476 63.0386 58.347 63.8358 59.0502C64.1572 59.3338 64.4602 59.6534 64.6772 59.9924C65.3292 61.0102 65.6542 62.2722 65.2798 63.65C65.025 64.5882 64.4336 65.416 63.6622 66.0078C62.6288 66.8006 61.6584 66.9754 60.747 66.9276C60.747 66.9276 60.3204 66.8912 60.2402 67.1548C60.184 67.3404 60.311 67.4824 60.5234 67.6178C60.5698 67.6432 60.6132 67.673 60.66 67.698C60.6804 67.7092 60.7012 67.7204 60.7228 67.7316C63.2112 69.0438 66.1768 69.5748 69.3176 68.8758C74.748 67.6674 78.5292 62.8124 78.9214 57.2628C79.5486 48.391 74.53 42.4022 66.9806 34.5092Z" fill="white"/>
<path d="M60.9637 75.2509C58.6763 74.3973 53.6123 71.9411 51.8204 66.4625C51.6823 66.0399 51.0843 66.0399 50.9461 66.4625C49.1543 71.9409 44.0903 74.3973 41.8029 75.2509C41.1169 75.5069 40.6562 76.1543 40.6562 76.8863V76.8981H51.3833H62.1101V76.8863C62.1103 76.1543 61.6495 75.5069 60.9637 75.2509Z" fill="white"/>
<path d="M45.1868 47.68C45.1868 47.68 44.5736 52.9566 51.2166 54.0008C51.3234 54.0176 51.4416 54.0176 51.5482 54.0008C58.191 52.9564 57.578 47.68 57.578 47.68V41.8774C57.578 41.4008 57.2226 40.999 56.7496 40.9406L51.498 40.2932C51.4214 40.2838 51.3438 40.2838 51.267 40.2932L46.0152 40.9406C45.5422 40.999 45.1868 41.4008 45.1868 41.8774V47.68Z" fill="white"/>
<path d="M50.1372 39.3073C50.9626 39.2055 51.798 39.2055 52.6218 39.3073L57.2238 39.8739C57.2422 39.8763 57.2596 39.8773 57.2772 39.8773C57.4892 39.8773 57.6736 39.7187 57.7004 39.5025C57.7296 39.2679 57.5626 39.0543 57.329 39.0259L52.727 38.4593C51.8332 38.3499 50.9276 38.3491 50.032 38.4593L45.6286 39.0017C45.395 39.0301 45.228 39.2437 45.2572 39.4783C45.2856 39.7119 45.4892 39.8789 45.7338 39.8497L50.1372 39.3073Z" fill="white"/>
<path d="M56.0059 53.2921C55.0833 53.9855 53.7373 54.8997 52.6273 55.2625L52.6053 55.2699C51.8157 55.5381 50.9597 55.5381 50.1701 55.2699L50.1481 55.2625C49.0719 54.9107 47.7737 54.0405 46.8549 53.3559C46.7093 53.2475 46.5361 53.4385 46.6503 53.5797C49.4417 57.0365 50.6705 59.7945 51.1389 61.0593C51.2247 61.2907 51.5509 61.2907 51.6365 61.0593C52.1087 59.7847 53.3533 56.9927 56.1917 53.4975C56.2965 53.3685 56.1389 53.1923 56.0059 53.2921Z" fill="white"/>
<path d="M70.052 29.9232V36.0122C73.8988 40.132 76.9834 43.844 78.8814 47.8014V12.1738L59.5508 24.4346C61.439 26.6954 63.719 29.2884 66.4524 32.2066L70.052 29.9232Z" fill="white"/>
<path d="M44.2846 25.1113C44.0546 25.3899 43.8178 25.6743 43.5742 25.9645C43.8178 25.6745 44.0544 25.3901 44.2846 25.1113Z" fill="white"/>
<path d="M32.7161 29.9232L36.3157 32.2064C39.0491 29.2882 41.3291 26.6952 43.2173 24.4344L23.8867 12.1738V47.8004C25.7847 43.8434 28.8693 40.1318 32.7161 36.0122V29.9232Z" fill="white"/>
<path d="M26.3075 82.7549L22.5617 91.7737L20.3389 86.5153L18.0601 91.7583L14.3555 82.7549H15.9693L18.0979 87.9279L20.3463 82.7549H20.3695L22.5495 87.9123L24.6917 82.7549H26.3075Z" fill="white"/>
<path d="M28.8321 91.7065V82.7549H30.3243V91.7065H28.8321Z" fill="white"/>
<path d="M40.2803 82.755V91.7406L34.6837 86.2692V91.7066H33.1915V82.7236L38.7881 88.1948V82.755H40.2803Z" fill="white"/>
<path d="M51.3554 82.7539V91.7063H49.8634V87.7333L47.252 91.6989L44.6406 87.7333V91.7063H43.1484V82.7539L47.252 88.9853L51.3554 82.7539Z" fill="white"/>
<path d="M61.7575 91.7061H60.1409L59.5225 90.2211H56.4623L55.8405 91.7061H54.2227L58.0019 82.6855L61.7575 91.7061ZM58.9015 88.7285L57.9973 86.5573L57.0877 88.7285H58.9015Z" fill="white"/>
<path d="M68.7886 82.7559V84.2481H66.7986V91.7069H65.3064V84.2481H63.3164V82.7559H68.7886Z" fill="white"/>
<path d="M78.5563 90.4739C76.7885 92.1563 73.9989 92.1119 72.2853 90.3745C70.5717 88.6371 70.5659 85.8467 72.2719 84.1021C73.9781 82.3573 76.7673 82.3013 78.5423 83.9759L77.5181 85.0613C76.3349 83.9451 74.4757 83.9825 73.3385 85.1455C72.2015 86.3085 72.2051 88.1683 73.3475 89.3265C74.4897 90.4847 76.3489 90.5143 77.5273 89.3929L78.5563 90.4739Z" fill="white"/>
<path d="M88.5091 82.7549V91.7065H87.0169V87.9775H82.9141V91.7065H81.4219V82.7549H82.9141V86.4851H87.0169V82.7549H88.5091Z" fill="white"/>
</g>
</g>
</g>
<defs>
<clipPath id="clip0_1_19774">
<rect width="104" height="104" fill="white" transform="translate(-0.492188)"/>
</clipPath>
<clipPath id="clip1_1_19774">
<rect width="80" height="80" fill="white" transform="translate(11.5078 12)"/>
</clipPath>
<clipPath id="clip2_1_19774">
<rect width="80" height="80" fill="white" transform="translate(11.5078 12)"/>
</clipPath>
</defs>
</svg>
