<svg width="97" height="20" viewBox="0 0 97 20" fill="none" xmlns="http://www.w3.org/2000/svg">
<rect width="20" height="20" rx="2" fill="#C51A1B"/>
<path d="M13.341 7.91557C10.5421 5.09564 9.74213 3.60938 9.74213 3.60938C9.74213 3.60938 8.94219 5.09481 6.14322 7.91557C4.39366 9.67969 3.22986 11.0183 3.37093 12.9997C3.46727 14.3525 4.56225 15.4506 5.95141 15.643C6.86576 15.7699 7.39046 15.6662 7.89193 15.3635C7.953 15.3162 7.99171 15.2731 7.96676 15.2267C7.94182 15.1802 7.89279 15.1893 7.86441 15.1935C7.73346 15.2282 7.59731 15.2412 7.46185 15.2316C6.89328 15.1794 6.50191 14.734 6.50191 14.1808C6.50153 14.0335 6.5346 13.8879 6.59879 13.7542C6.66299 13.6205 6.75675 13.502 6.8735 13.407C7.05844 13.2494 7.3896 13.0935 7.61496 12.7733C7.88419 12.386 7.63732 11.9862 7.22273 11.2306C6.68771 10.2553 7.62872 9.70042 7.89193 9.49308C7.93606 9.45842 7.97641 9.41951 8.01235 9.37696C8.12627 9.23806 8.18703 9.06552 8.18438 8.88845V7.08867C8.18423 7.08025 8.18669 7.07198 8.19145 7.06491C8.1962 7.05785 8.20304 7.05231 8.21108 7.04901C8.21912 7.04572 8.22799 7.04481 8.23657 7.04641C8.24515 7.04801 8.25303 7.05204 8.25922 7.05798L8.95939 7.73311C8.96411 7.73768 8.96986 7.74115 8.97619 7.74325C8.98252 7.74535 8.98926 7.74602 8.9959 7.74522C9.00254 7.74442 9.00891 7.74217 9.01451 7.73863C9.0201 7.73509 9.02479 7.73037 9.0282 7.72481L9.70773 6.62421C9.7116 6.61785 9.71713 6.61257 9.72376 6.6089C9.7304 6.60523 9.73792 6.6033 9.74557 6.6033C9.75323 6.6033 9.76075 6.60523 9.76739 6.6089C9.77402 6.61257 9.77955 6.61785 9.78342 6.62421L10.4629 7.72481C10.4664 7.73037 10.471 7.73509 10.4766 7.73863C10.4822 7.74217 10.4886 7.74442 10.4952 7.74522C10.5019 7.74602 10.5086 7.74535 10.515 7.74325C10.5213 7.74115 10.527 7.73768 10.5318 7.73311L11.2319 7.05798C11.2381 7.05204 11.246 7.04801 11.2546 7.04641C11.2632 7.04481 11.272 7.04572 11.2801 7.04901C11.2881 7.05231 11.2949 7.05785 11.2997 7.06491C11.3045 7.07198 11.3069 7.08025 11.3068 7.08867V8.88679C11.3035 9.06548 11.3643 9.23978 11.4788 9.38028C11.5141 9.42152 11.5536 9.45931 11.5966 9.49308C11.8598 9.70042 12.8009 10.2536 12.2658 11.2348C11.8504 11.9904 11.6035 12.3901 11.8728 12.7775C12.0955 13.0976 12.4293 13.2535 12.6142 13.4111C12.6889 13.4725 12.7546 13.5433 12.8095 13.6218C12.9581 13.8322 13.0166 14.0899 12.9726 14.341C12.9287 14.592 12.7858 14.817 12.5738 14.9687C12.3834 15.1171 12.1419 15.1906 11.8977 15.1744C11.8977 15.1744 11.7979 15.1661 11.7799 15.225C11.767 15.2665 11.7962 15.2988 11.8452 15.3287L11.8771 15.3469L11.8917 15.3544C12.5035 15.6677 13.2117 15.7586 13.8872 15.6107C15.1474 15.3403 16.0247 14.253 16.1159 13.0114C16.2587 11.0225 15.0932 9.68218 13.341 7.91557Z" fill="white"/>
<path d="M11.9402 17.0346C11.4095 16.8439 10.2337 16.294 9.81822 15.0673C9.81129 15.0466 9.79773 15.0286 9.7795 15.0158C9.76126 15.003 9.73928 14.9961 9.71673 14.9961C9.69417 14.9961 9.67219 15.003 9.65395 15.0158C9.63572 15.0286 9.62216 15.0466 9.61523 15.0673C9.19891 16.294 8.02393 16.8439 7.49235 17.0346C7.41466 17.0622 7.34756 17.112 7.30006 17.1774C7.25255 17.2428 7.22691 17.3206 7.22656 17.4004H12.2069C12.2064 17.3205 12.1805 17.2427 12.1329 17.1773C12.0852 17.112 12.018 17.0622 11.9402 17.0346Z" fill="white"/>
<path d="M8.28083 10.864C8.28083 10.864 8.13804 12.0451 9.68031 12.274C9.70565 12.2781 9.73153 12.2781 9.75686 12.274C11.2991 12.0409 11.1572 10.864 11.1572 10.864V9.56521C11.1572 9.51358 11.1376 9.46375 11.1021 9.4251C11.0666 9.38645 11.0177 9.36165 10.9645 9.35537L9.74568 9.21023C9.72795 9.20857 9.71009 9.20857 9.69235 9.21023L8.47264 9.35537C8.41966 9.36183 8.37094 9.38672 8.33562 9.42535C8.30031 9.46398 8.28083 9.51371 8.28083 9.56521V10.864Z" fill="white"/>
<path d="M9.43139 8.98908C9.62308 8.96668 9.81687 8.96668 10.0086 8.98908L11.0752 9.11597H11.0881C11.101 9.11673 11.1141 9.11502 11.1264 9.11093C11.1387 9.10684 11.15 9.10046 11.1598 9.09214C11.1695 9.08382 11.1775 9.07374 11.1832 9.06246C11.1889 9.05118 11.1922 9.03892 11.193 9.0264C11.1938 9.01387 11.192 9.00132 11.1878 8.98945C11.1835 8.97759 11.1769 8.96665 11.1683 8.95725C11.1597 8.94786 11.1492 8.94019 11.1375 8.93469C11.1258 8.9292 11.1131 8.92597 11.1001 8.92521L10.0318 8.79832C9.82408 8.77426 9.61414 8.77426 9.40645 8.79832L8.38372 8.92024C8.3708 8.92167 8.35831 8.92557 8.34697 8.9317C8.33563 8.93783 8.32567 8.94608 8.31766 8.95596C8.30966 8.96583 8.30377 8.97715 8.30034 8.98924C8.29692 9.00134 8.29602 9.01397 8.2977 9.0264C8.29929 9.03889 8.30343 9.05095 8.30988 9.06189C8.31633 9.07283 8.32496 9.08243 8.33527 9.09014C8.34559 9.09785 8.35738 9.10351 8.36998 9.10681C8.38257 9.1101 8.39572 9.11096 8.40866 9.10934L9.43139 8.98908Z" fill="white"/>
<path d="M10.7929 12.1203C10.5788 12.2754 10.2665 12.4802 10.0085 12.5615H10.0033C9.82004 12.6212 9.62148 12.6212 9.4382 12.5615H9.43304C9.18359 12.4786 8.88167 12.2878 8.66835 12.1344C8.66491 12.1314 8.66089 12.1291 8.65651 12.1276C8.65214 12.1261 8.64751 12.1254 8.64287 12.1256C8.63352 12.1261 8.62474 12.1301 8.61846 12.1368C8.61219 12.1436 8.60894 12.1524 8.60942 12.1614C8.60991 12.1704 8.61409 12.1789 8.62105 12.185C9.26789 12.9588 9.55432 13.5734 9.66356 13.8587C9.66775 13.8702 9.67554 13.8802 9.68587 13.8872C9.69619 13.8943 9.70853 13.8981 9.72119 13.8981C9.73384 13.8981 9.74619 13.8943 9.75651 13.8872C9.76684 13.8802 9.77463 13.8702 9.77882 13.8587C9.88806 13.5734 10.1771 12.9463 10.836 12.1667C10.8409 12.1609 10.8435 12.1536 10.8433 12.1461C10.8432 12.1386 10.8402 12.1314 10.835 12.1258C10.8299 12.1202 10.8228 12.1165 10.815 12.1155C10.8073 12.1145 10.7995 12.1162 10.7929 12.1203Z" fill="white"/>
<path d="M14.0501 6.88978V8.25247C14.9421 9.17724 15.6595 10.0066 16.0999 10.8908V2.91699L11.6133 5.66062C12.0511 6.16655 12.5801 6.74712 13.2149 7.40234L14.0501 6.88978Z" fill="white"/>
<path d="M5.3857 6.88978L6.22091 7.40068C6.85571 6.74712 7.38471 6.16655 7.82339 5.65896L3.33594 2.91699V10.8908C3.77634 10.0066 4.49285 9.17724 5.3857 8.25247V6.88978Z" fill="white"/>
<path d="M35.9088 6.22363L33.6216 11.7285L31.2965 6.22363H31.2714L28.8727 11.7463L26.6009 6.22363H24.8789L28.8323 15.8357L31.2641 10.2378L33.6362 15.8535L37.6332 6.22849L35.9088 6.22363Z" fill="white"/>
<path d="M39.0195 6.22363V15.7807H40.6122V6.22363H39.0195Z" fill="white"/>
<path d="M48.6088 6.22342V12.0308L42.6367 6.18945V15.7805H44.2294V9.97556L50.2015 15.8169V6.22342H48.6088Z" fill="white"/>
<path d="M56.6052 12.8762L52.2266 6.22363V15.7815H53.8184V11.5392L56.6052 15.7734L59.392 11.5392V15.7815H60.9838V6.22363L56.6052 12.8762Z" fill="white"/>
<path d="M66.697 6.49512L70.9804 15.4007H69.4195L68.6572 13.6583H64.5795L63.8172 15.4007H62.3047L66.5639 6.49512H66.697ZM66.092 10.2824L65.124 12.4362H68.1248L67.1689 10.2945L66.6486 9.07242H66.6244L66.092 10.2824Z" fill="white"/>
<path d="M71.4258 6.22852V7.81705H73.5496V15.7807H75.1415V7.81705H77.2653V6.22852H71.4258Z" fill="white"/>
<path d="M85.555 13.3099C85.1042 13.7391 84.5374 14.0267 83.9249 14.1371C83.3124 14.2475 82.6809 14.1759 82.1087 13.9311C81.5364 13.6863 81.0484 13.2791 80.705 12.7598C80.3616 12.2404 80.1779 11.6318 80.1766 11.0091C80.1753 10.3865 80.3565 9.77709 80.6977 9.25633C81.0389 8.73557 81.5251 8.32629 82.0964 8.07908C82.6676 7.83188 83.2987 7.75761 83.9117 7.86545C84.5247 7.97329 85.0927 8.25851 85.5453 8.68584L86.6384 7.5268C85.9593 6.88597 85.1074 6.45831 84.188 6.2967C83.2685 6.13508 82.3219 6.24659 81.4652 6.61744C80.6084 6.98829 79.8791 7.60222 79.3674 8.38332C78.8557 9.16442 78.584 10.0784 78.5859 11.0124C78.5879 11.9463 78.8634 12.8591 79.3784 13.6381C79.8934 14.417 80.6253 15.0279 81.4836 15.3951C82.3419 15.7624 83.289 15.8699 84.2077 15.7045C85.1264 15.539 85.9765 15.1077 86.6529 14.4641L85.555 13.3099Z" fill="white"/>
<path d="M94.1276 6.22363V10.2063H89.7489V6.22363H88.1562V15.7807H89.7489V11.7997H94.1276V15.7807H95.7194V6.22363H94.1276Z" fill="white"/>
</svg>
