<svg width="47" height="46" viewBox="0 0 47 46" fill="none" xmlns="http://www.w3.org/2000/svg">
<path fill-rule="evenodd" clip-rule="evenodd" d="M31.7809 12.6188C32.7008 12.865 33.4673 13.4506 33.9389 14.2679C34.8494 15.845 34.4079 17.8373 32.9781 18.896L29.4497 12.7859C30.1803 12.469 30.9938 12.4079 31.7809 12.6187V12.6188ZM9.78591 35.6948L14.7097 32.8522L8.22292 21.6323L3.30613 24.4715C1.81472 25.3326 0.745581 26.7308 0.29646 28.4081C-0.153637 30.086 0.0728273 31.8316 0.933862 33.3225C2.13337 35.3991 4.31589 36.5615 6.5572 36.5615C7.65554 36.5615 8.76804 36.2823 9.78591 35.6948ZM20.0582 42.1312L15.9233 34.9703L12.0639 37.1984L16.1978 44.3598C16.8132 45.4238 18.1784 45.7895 19.2428 45.1752C19.7546 44.8796 20.1217 44.3985 20.2771 43.8213C20.4315 43.2437 20.3539 42.6439 20.0582 42.1313V42.1312ZM35.4341 28.033L22.7652 6.09066C22.5015 5.63304 22.0679 5.38217 21.5435 5.38217C21.5337 5.38217 21.5233 5.38265 21.5135 5.38265C20.9754 5.39252 20.5399 5.6599 20.2876 6.13588C19.8423 6.97621 19.4129 7.87299 18.9586 8.8226C17.0468 12.8157 14.8972 17.3045 10.3171 20.3753L16.8443 31.6678C21.7888 29.2405 26.7499 29.6228 31.1615 29.9636C32.2128 30.0451 33.2047 30.1213 34.1561 30.1562C34.6952 30.1769 35.1433 29.9331 35.4207 29.4717C35.6989 29.0103 35.7031 28.4991 35.4343 28.0331L35.4341 28.033ZM32.2493 5.50316C31.9127 6.08695 32.1128 6.83353 32.6966 7.17064C32.8814 7.27808 33.0914 7.33462 33.3052 7.33451C33.727 7.33451 34.1381 7.11556 34.3635 6.72396L36.8855 2.35756C37.2221 1.77377 37.022 1.02718 36.4383 0.690074C35.854 0.353062 35.1079 0.553063 34.7713 1.13685L32.2493 5.50316ZM46.9487 18.8919C46.9487 18.2183 46.4026 17.6712 45.7247 17.6712L40.6841 17.6717C40.0105 17.6717 39.4634 18.2183 39.4634 18.8924C39.4634 19.5665 40.0105 20.1131 40.6841 20.1131L45.7247 20.1126C46.4026 20.1126 46.9487 19.5665 46.9487 18.8919ZM44.0299 8.44174C43.6909 7.85795 42.947 7.65795 42.3633 7.99496L37.8901 10.5767C37.3058 10.9143 37.1058 11.6604 37.4428 12.2447C37.523 12.3836 37.6297 12.5053 37.7569 12.6029C37.8842 12.7005 38.0294 12.7721 38.1843 12.8136C38.3392 12.8551 38.5007 12.8657 38.6597 12.8447C38.8187 12.8238 38.972 12.7717 39.1108 12.6914L43.5827 10.1092C44.1665 9.77211 44.3688 9.02553 44.0299 8.44174Z" fill="white"/>
</svg>
