<svg width="16" height="16" viewBox="0 0 16 16" fill="none" xmlns="http://www.w3.org/2000/svg">
<g clip-path="url(#clip0_184_44)">
<path fill-rule="evenodd" clip-rule="evenodd" d="M11.1131 9.7771H10.4074L10.162 9.53354C11.0287 8.52287 11.5558 7.21265 11.5558 5.7771C11.5558 2.58599 8.96913 -0.00067997 5.77802 -0.00067997C2.58691 -0.00067997 0.000244141 2.58599 0.000244141 5.7771C0.000244141 8.96821 2.58691 11.5549 5.77802 11.5549C7.21358 11.5549 8.52291 11.0287 9.53358 10.1629L9.77891 10.4064V11.1104L14.2216 15.5469L15.5469 14.2215L11.1131 9.7771ZM5.77802 9.7771C3.56824 9.7771 1.77802 7.98688 1.77802 5.7771C1.77802 3.56821 3.56824 1.7771 5.77802 1.7771C7.98691 1.7771 9.77802 3.56821 9.77802 5.7771C9.77802 7.98688 7.98691 9.7771 5.77802 9.7771Z" fill="white"/>
</g>
<defs>
<clipPath id="clip0_184_44">
<rect width="16" height="16" fill="white" transform="translate(0.000244141)"/>
</clipPath>
</defs>
</svg>
