<svg width="41" height="41" viewBox="0 0 41 41" fill="none" xmlns="http://www.w3.org/2000/svg">
<g clip-path="url(#clip0_1_9445)">
<path d="M8.85412 13.1931L4.72991 15.1438L5.21559 19.2998L9.72194 20.0562L11.8159 16.354L8.85412 13.1931ZM14.714 7.87469L15.1121 7.30141C13.7665 6.81573 12.3095 6.59284 10.8764 6.66449C10.0712 6.70425 9.27292 6.8324 8.4958 7.04663L10.5738 8.1294L14.714 7.87469ZM16.6089 15.2871L17.827 12.0228L14.7856 8.82216L10.8127 9.06894L9.52286 12.4925L12.5961 15.7728L16.6089 15.2871ZM3.10568 33.5673L3.46394 33.8142C3.5913 33.5116 3.6869 33.1931 3.75855 32.8747L3.27287 32.7632L3.49583 31.8317L3.87003 31.9193V31.7999C3.87003 31.6168 3.85409 31.4336 3.83821 31.2505L3.48789 31.3301L3.26493 30.3986L3.64707 30.311C3.57542 30.0721 3.48782 29.8333 3.38435 29.6103L3.09775 29.8094L2.55636 29.0212L2.89073 28.7903C2.72355 28.5514 2.53248 28.3365 2.32546 28.1295C1.34616 29.0928 0.788831 30.4066 0.788831 31.7919C0.788831 33.1852 1.34616 34.4989 2.3334 35.4622C2.58024 35.2154 2.81107 34.9447 3.00221 34.6581L2.5643 34.3556L3.10568 33.5673ZM5.92416 25.7011C6.33819 25.7011 6.74421 25.7409 7.13436 25.8205V24.0849C6.55314 24.6104 6.05953 25.1517 5.66144 25.7091C5.74904 25.7011 5.83657 25.7011 5.92416 25.7011ZM3.92574 25.4782L3.00221 22.7314L1.46558 22.0228C2.0468 23.3285 2.88279 24.4989 3.92574 25.4782ZM4.14869 19.7457C4.17796 19.6788 4.22473 19.621 4.28406 19.5785L3.76656 15.1677L1.16303 13.8301C0.518105 15.6135 0.335041 17.5483 0.677352 19.4591C0.756375 19.8945 0.860038 20.3252 0.987841 20.7489L3.16139 21.76L4.14869 19.7457ZM8.58339 12.2616L9.88118 8.84605L7.25378 7.4766C5.54996 8.17724 4.03722 9.30784 2.88279 10.7569C2.34418 11.4304 1.88719 12.1654 1.52135 12.9464L4.22041 14.3317L8.58339 12.2616ZM4.97669 20.2314L3.90185 22.4288L4.84933 25.2234C5.46237 24.3396 6.3063 23.4798 7.32543 22.6915C8.06589 22.1182 8.878 21.6007 9.74582 21.1549L9.66623 21.0195L4.97669 20.2314ZM31.4576 17.4925C33.671 14.9209 36.7999 13.3365 40.1757 13.0738C39.5945 10.6693 38.2808 8.50374 36.4098 6.88752L29.3159 15.7807L31.4576 17.4925ZM28.5674 15.1836L35.6614 6.29029C33.6152 4.78548 31.1391 3.98138 28.6073 3.98932C29.0452 7.28547 28.1853 10.6295 26.2108 13.3046L28.5674 15.1836Z" fill="white"/>
<path d="M32.2064 18.0819L38.2016 22.8748C39.1285 21.6132 39.797 20.1809 40.1686 18.6602C40.5403 17.1394 40.6078 15.5603 40.3672 14.0134C37.2064 14.2284 34.2764 15.6933 32.2064 18.0819ZM9.8179 27.1025C9.82584 27.1025 9.83384 27.1104 9.84178 27.1184C9.95326 27.214 10.0567 27.3095 10.1603 27.405C10.3991 27.6359 10.6061 27.8748 10.7972 28.1136V21.6885C9.8179 22.1423 8.91025 22.6837 8.0902 23.2968V26.0914C8.71124 26.3302 9.30039 26.6726 9.8179 27.1025ZM7.76376 35.534L7.22238 34.7458L7.6364 34.4671C7.42939 34.0452 7.27014 33.5993 7.16667 33.1375L6.7447 33.241L6.52174 32.3095L7.03131 32.1901C7.02337 32.0547 7.01536 31.9273 7.01536 31.792C7.01536 31.5133 7.03131 31.2426 7.07107 30.9719L6.52168 30.8446L6.74464 29.913L7.27808 30.0404C7.38956 29.6582 7.5408 29.2999 7.72394 28.9496L7.23032 28.6152L7.7717 27.827L8.24144 28.1455C8.40862 27.9225 8.59175 27.7156 8.78282 27.5165C7.93889 26.9513 6.95159 26.6487 5.92452 26.6487C4.90539 26.6487 3.91815 26.9513 3.07422 27.5165C3.29589 27.7456 3.50076 27.9904 3.68726 28.249L4.3083 27.827L4.84969 28.6152L4.18888 29.069C4.34813 29.3955 4.48349 29.7378 4.58696 30.0882L5.33537 29.913L5.55832 30.8445L4.78604 31.0276C4.81804 31.2811 4.834 31.5364 4.83381 31.792C4.83381 31.9035 4.83381 32.0229 4.82587 32.1343L5.55832 32.3095L5.33537 33.2411L4.69044 33.0898C4.5949 33.5277 4.4516 33.9497 4.26847 34.3557L4.84969 34.7538L4.3083 35.542L3.7908 35.1917C3.58135 35.5065 3.34132 35.7999 3.07422 36.0676C3.91815 36.6249 4.9134 36.9354 5.90857 36.9274C6.94358 36.9274 7.93088 36.6249 8.76688 36.0596C8.52804 35.8208 8.31309 35.5581 8.12195 35.2873L7.76376 35.534ZM27.6522 4.0293C24.5631 4.29202 21.6968 5.74906 19.6745 8.08185L25.4707 12.7076C27.3019 10.2156 28.0822 7.09462 27.6522 4.0293ZM21.0838 12.5484C20.3832 11.1949 19.3959 9.99268 18.1937 9.02933C17.5169 8.49588 16.7924 8.04209 16.0201 7.67583L15.5902 8.28887L18.6555 11.5134L21.0838 12.5484ZM30.0726 27.851C30.1602 27.7793 30.2557 27.7077 30.3513 27.636C30.0408 26.2586 28.7351 24.6105 26.8959 23.257V33.2331C27.2462 32.9783 27.5726 32.7156 27.8831 32.437C27.915 30.6614 28.7032 28.9974 30.0726 27.851ZM33.735 35.136C32.7557 35.136 31.8003 34.7219 31.1873 34.0372C30.6937 33.4878 30.4628 32.8032 30.5344 32.1185C30.5662 31.8477 30.622 31.5134 30.6857 31.1312C30.821 30.3271 31.0121 29.1965 30.9484 28.3924C30.8608 28.4561 30.7732 28.5278 30.6857 28.5994C29.5153 29.5787 28.8385 31.0118 28.8385 32.5405C28.8385 34.0612 29.5153 35.5023 30.6857 36.4816C31.6092 37.2539 32.7796 37.6758 33.9818 37.6758C35.3194 37.6758 36.5853 37.1663 37.5487 36.2347C38.5598 35.2554 39.1171 33.9418 39.1251 32.5564C39.1251 31.1472 38.5678 29.8334 37.5567 28.8541C37.3656 28.671 37.1586 28.5038 36.9436 28.3525C36.8481 29.1407 37.079 30.3032 37.2383 31.1232C37.3099 31.5054 37.3816 31.8398 37.4134 32.1185C37.501 32.7952 37.278 33.472 36.7923 34.0214C36.1713 34.7141 35.2159 35.136 34.2207 35.136H33.735V35.136ZM30.8608 18.2331L28.7191 16.5213L25.1045 21.0516C25.6379 21.3302 26.1714 21.6248 26.6729 21.9513C27.3736 22.4051 28.0185 22.8908 28.5838 23.4083C28.95 21.5373 29.7223 19.7777 30.8608 18.2331ZM23.2335 35.1997C24.1809 34.8414 25.0886 34.3956 25.9405 33.8701V22.6121C25.0812 22.0816 24.1751 21.6312 23.2335 21.2665V35.1997Z" fill="white"/>
<path d="M10.8111 30.1675C10.5643 29.4112 10.1264 28.7105 9.5372 28.1293C9.35407 28.3045 9.19483 28.4876 9.04358 28.6866L9.5372 29.021L8.99582 29.8092L8.53402 29.4988C8.40747 29.7436 8.30354 29.9994 8.22353 30.2631L8.79681 30.4064L8.57385 31.3379L8.00057 31.2026C7.98463 31.4017 7.96875 31.6007 7.96875 31.7997C7.96875 31.8554 7.97669 31.9192 7.97669 31.9749L8.58179 31.8316L8.80475 32.7632L8.10411 32.9303C8.1837 33.2727 8.30319 33.615 8.44649 33.9335L8.98788 33.5673L9.52926 34.3555L8.9321 34.7615C9.10729 35.0084 9.3063 35.2472 9.52926 35.4621C10.5245 34.4829 11.0659 33.1851 11.0738 31.7918C11.0738 31.2663 10.9942 30.7647 10.8509 30.2791C10.835 30.2471 10.8191 30.2073 10.8111 30.1675ZM31.8302 27.8665C32.0372 28.8458 31.8063 30.1754 31.6232 31.2821C31.5594 31.6484 31.5037 31.9668 31.4799 32.2136C31.4241 32.7391 31.6789 33.1452 31.8939 33.3919C32.3238 33.8696 33.0244 34.1722 33.7251 34.1722H34.2107C34.9193 34.1722 35.6359 33.8696 36.0659 33.376C36.2808 33.1292 36.5197 32.7391 36.456 32.2215C36.4242 31.9747 36.3605 31.6562 36.2888 31.29C36.0659 30.1753 35.8031 28.8298 36.05 27.8346C35.4051 27.548 34.6885 27.3967 33.972 27.3967C33.2314 27.3968 32.4989 27.564 31.8302 27.8665ZM31.6152 18.8379C30.4448 20.4302 29.6964 22.2854 29.4257 24.2359C30.2935 25.1834 30.9145 26.1786 31.2011 27.1101C32.0531 26.6722 33.0164 26.4413 33.9798 26.4413H34.0037C35.381 25.7407 36.5912 24.7932 37.6183 23.6228L31.6152 18.8379ZM27.9687 15.9319L25.6199 14.0529C24.8954 14.8968 24.0754 15.6293 23.1757 16.2503C23.2473 16.8952 23.2633 17.5481 23.2314 18.193C23.2314 18.2806 23.2234 18.3602 23.2154 18.4477C23.1756 19.021 23.0881 19.5863 22.9606 20.1516C23.3826 20.2949 23.8046 20.4621 24.2107 20.6372L27.9687 15.9319ZM18.6614 19.2758L16.7107 16.2424L12.7059 16.7281L10.5244 20.5815L10.612 20.7328C10.7712 20.6611 10.9305 20.5895 11.0977 20.5258C13.1757 19.6659 15.3492 19.236 17.5547 19.236C17.9209 19.236 18.2951 19.2519 18.6614 19.2758ZM24.8715 13.4557L20.5164 9.98438C21.3047 10.9319 21.9495 12.0067 22.4034 13.1532C22.4193 13.2009 22.4432 13.2566 22.4591 13.3044C22.6975 13.916 22.8813 14.5474 23.0085 15.1914C23.6852 14.6819 24.3142 14.1006 24.8715 13.4557ZM22.2283 20.9159C20.6916 20.4382 19.1152 20.1914 17.5547 20.1914C15.5722 20.1914 13.6216 20.5577 11.7506 21.2901V29.9844C11.9258 30.5656 12.0213 31.1707 12.0213 31.7917C12.0213 32.8904 11.7347 33.9413 11.1933 34.8649C11.2729 34.9048 11.3605 34.9366 11.464 34.9843C13.4386 35.8283 15.4847 36.2583 17.5548 36.2583C19.1471 36.2583 20.7315 36.0114 22.2761 35.5337V20.9319C22.2682 20.9319 22.2601 20.9239 22.2522 20.9239C22.2443 20.9239 22.2362 20.9159 22.2283 20.9159ZM20.7872 28.7105H19.991V29.5783H19.0356V28.7105H18.3907V29.5783H17.4352V28.7105H16.5833V29.5783H15.6279V28.7105H14.7761V29.5783H13.8207V28.7105H13.1041V27.7551H13.8207V26.8395H14.7761V27.7551H15.628V26.8395H16.5834V27.7551H17.4354V26.8395H18.3908V27.7551H19.0357V26.8395H19.9911V27.7551H20.7873V28.7105H20.7872ZM21.034 19.6102C21.3684 19.6898 21.7108 19.7694 22.0451 19.865C22.0929 19.6261 22.1407 19.3873 22.1725 19.1484L21.034 19.6102ZM21.6391 13.83L18.6455 12.5561L17.4831 15.6691L19.7044 19.1166L22.276 18.0735C22.3159 17.2137 22.2601 16.3379 22.0929 15.486C21.9894 14.9207 21.8302 14.3634 21.6391 13.83Z" fill="white"/>
</g>
<defs>
<clipPath id="clip0_1_9445">
<rect width="40" height="40" fill="white" transform="translate(0.507812 0.832031)"/>
</clipPath>
</defs>
</svg>
