<svg width="37" height="36" viewBox="0 0 37 36" fill="none" xmlns="http://www.w3.org/2000/svg">
<g clip-path="url(#clip0_1_19516)">
<g clip-path="url(#clip1_1_19516)">
<path fill-rule="evenodd" clip-rule="evenodd" d="M18.7278 0.00537109C8.78581 0.00537109 0.727814 8.06337 0.727814 18.0054C0.727814 27.9474 8.78581 36.0054 18.7278 36.0054C28.6698 36.0054 36.7278 27.9474 36.7278 18.0054C36.7278 8.06337 28.6698 0.00537109 18.7278 0.00537109ZM26.0508 14.7504C26.0588 14.9034 26.0608 15.0564 26.0608 15.2084C26.0608 19.8954 22.4948 25.2964 15.9748 25.2964C13.9708 25.2964 12.1088 24.7064 10.5408 23.7014C11.4691 23.8135 12.4104 23.7416 13.3109 23.4897C14.2114 23.2378 15.0534 22.8109 15.7888 22.2334C15.049 22.219 14.3321 21.9739 13.7384 21.5323C13.1446 21.0907 12.7035 20.4747 12.4768 19.7704C13.0085 19.8708 13.5559 19.8506 14.0788 19.7114C13.2766 19.5483 12.5554 19.1131 12.037 18.4796C11.5186 17.8461 11.2349 17.053 11.2338 16.2344V16.1914C11.7259 16.4656 12.2767 16.6175 12.8398 16.6344C12.0888 16.1331 11.5571 15.3644 11.3531 14.4849C11.1491 13.6053 11.2881 12.681 11.7418 11.9004C12.6317 12.9956 13.7421 13.8914 15.0008 14.5296C16.2595 15.1677 17.6384 15.5339 19.0478 15.6044C18.9888 15.3444 18.9578 15.0744 18.9578 14.7954C18.9581 14.0847 19.1719 13.3904 19.5716 12.8027C19.9712 12.215 20.5382 11.7609 21.1991 11.4994C21.86 11.2379 22.5842 11.1811 23.2778 11.3362C23.9713 11.4913 24.6023 11.8513 25.0888 12.3694C25.8823 12.2138 26.6432 11.9236 27.3388 11.5114C27.0742 12.3316 26.521 13.0281 25.7818 13.4714C26.484 13.3884 27.1696 13.2003 27.8158 12.9134C27.3429 13.627 26.7449 14.2493 26.0508 14.7504Z" fill="white"/>
</g>
</g>
<defs>
<clipPath id="clip0_1_19516">
<rect width="36" height="36" fill="white" transform="translate(0.727814 0.00537109)"/>
</clipPath>
<clipPath id="clip1_1_19516">
<rect width="36" height="36" fill="white" transform="translate(0.727814 0.00537109)"/>
</clipPath>
</defs>
</svg>
